%TF.GenerationSoftware,KiCad,Pcbnew,8.0.0*%
%TF.CreationDate,2024-04-12T21:24:49+10:00*%
%TF.ProjectId,ghost-bot,67686f73-742d-4626-9f74-2e6b69636164,rev?*%
%TF.SameCoordinates,Original*%
%TF.FileFunction,Copper,L1,Top*%
%TF.FilePolarity,Positive*%
%FSLAX46Y46*%
G04 Gerber Fmt 4.6, Leading zero omitted, Abs format (unit mm)*
G04 Created by KiCad (PCBNEW 8.0.0) date 2024-04-12 21:24:49*
%MOMM*%
%LPD*%
G01*
G04 APERTURE LIST*
G04 Aperture macros list*
%AMRoundRect*
0 Rectangle with rounded corners*
0 $1 Rounding radius*
0 $2 $3 $4 $5 $6 $7 $8 $9 X,Y pos of 4 corners*
0 Add a 4 corners polygon primitive as box body*
4,1,4,$2,$3,$4,$5,$6,$7,$8,$9,$2,$3,0*
0 Add four circle primitives for the rounded corners*
1,1,$1+$1,$2,$3*
1,1,$1+$1,$4,$5*
1,1,$1+$1,$6,$7*
1,1,$1+$1,$8,$9*
0 Add four rect primitives between the rounded corners*
20,1,$1+$1,$2,$3,$4,$5,0*
20,1,$1+$1,$4,$5,$6,$7,0*
20,1,$1+$1,$6,$7,$8,$9,0*
20,1,$1+$1,$8,$9,$2,$3,0*%
G04 Aperture macros list end*
%TA.AperFunction,ComponentPad*%
%ADD10RoundRect,0.450000X-0.450000X-0.450000X0.450000X-0.450000X0.450000X0.450000X-0.450000X0.450000X0*%
%TD*%
%TA.AperFunction,ComponentPad*%
%ADD11C,1.800000*%
%TD*%
%TA.AperFunction,ComponentPad*%
%ADD12RoundRect,0.250000X-0.550000X0.550000X-0.550000X-0.550000X0.550000X-0.550000X0.550000X0.550000X0*%
%TD*%
%TA.AperFunction,ComponentPad*%
%ADD13C,1.600000*%
%TD*%
%TA.AperFunction,ComponentPad*%
%ADD14R,1.600000X1.600000*%
%TD*%
%TA.AperFunction,ComponentPad*%
%ADD15O,1.600000X1.600000*%
%TD*%
%TA.AperFunction,ComponentPad*%
%ADD16R,1.700000X1.700000*%
%TD*%
%TA.AperFunction,ComponentPad*%
%ADD17O,1.700000X1.700000*%
%TD*%
%TA.AperFunction,ComponentPad*%
%ADD18R,1.800000X1.800000*%
%TD*%
%TA.AperFunction,ComponentPad*%
%ADD19C,2.000000*%
%TD*%
%TA.AperFunction,ViaPad*%
%ADD20C,1.000000*%
%TD*%
%TA.AperFunction,Conductor*%
%ADD21C,0.500000*%
%TD*%
%TA.AperFunction,Conductor*%
%ADD22C,1.000000*%
%TD*%
%TA.AperFunction,Conductor*%
%ADD23C,1.500000*%
%TD*%
G04 APERTURE END LIST*
D10*
%TO.P,D1,1,BA*%
%TO.N,Net-(D1-BA)*%
X200600003Y-113240000D03*
D11*
%TO.P,D1,2,K*%
%TO.N,GND*%
X202378003Y-114764000D03*
%TO.P,D1,3,GA*%
%TO.N,Net-(D1-GA)*%
X203902003Y-113240000D03*
%TO.P,D1,4,RA*%
%TO.N,Net-(D1-RA)*%
X205426003Y-114764000D03*
%TD*%
D12*
%TO.P,J4,1,Pin_1*%
%TO.N,+BATT*%
X156652143Y-135484999D03*
D13*
%TO.P,J4,2,Pin_2*%
%TO.N,GND*%
X156652143Y-139084999D03*
%TD*%
D14*
%TO.P,A1,1,D1/TX*%
%TO.N,/LED1*%
X166370000Y-126160000D03*
D15*
%TO.P,A1,2,D0/RX*%
%TO.N,/LED0*%
X166370000Y-123620000D03*
%TO.P,A1,3,~{RESET}*%
%TO.N,unconnected-(A1-~{RESET}-Pad3)*%
X166370000Y-121080000D03*
%TO.P,A1,4,GND*%
%TO.N,GND*%
X166370000Y-118540000D03*
%TO.P,A1,5,D2*%
%TO.N,/LED2*%
X166370000Y-116000000D03*
%TO.P,A1,6,D3*%
%TO.N,/SERVO0*%
X166370000Y-113460000D03*
%TO.P,A1,7,D4*%
%TO.N,/PUSH_BTN0*%
X166370000Y-110920000D03*
%TO.P,A1,8,D5*%
%TO.N,/SERVO1*%
X166370000Y-108380000D03*
%TO.P,A1,9,D6*%
%TO.N,/PUSH_BTN1*%
X166370000Y-105840000D03*
%TO.P,A1,10,D7*%
%TO.N,unconnected-(A1-D7-Pad10)*%
X166370000Y-103300000D03*
%TO.P,A1,11,D8*%
%TO.N,unconnected-(A1-D8-Pad11)*%
X166370000Y-100760000D03*
%TO.P,A1,12,D9*%
%TO.N,/RGB_B*%
X166370000Y-98220000D03*
%TO.P,A1,13,D10*%
%TO.N,/RGB_G*%
X166370000Y-95680000D03*
%TO.P,A1,14,D11*%
%TO.N,/RGB_R*%
X166370000Y-93140000D03*
%TO.P,A1,15,D12*%
%TO.N,/TRIG*%
X166370000Y-90600000D03*
%TO.P,A1,16,D13*%
%TO.N,/ECHO*%
X151130000Y-90600000D03*
%TO.P,A1,17,3V3*%
%TO.N,unconnected-(A1-3V3-Pad17)*%
X151130000Y-93140000D03*
%TO.P,A1,18,AREF*%
%TO.N,unconnected-(A1-AREF-Pad18)*%
X151130000Y-95680000D03*
%TO.P,A1,19,A0*%
%TO.N,/PD0*%
X151130000Y-98220000D03*
%TO.P,A1,20,A1*%
%TO.N,unconnected-(A1-A1-Pad20)*%
X151130000Y-100760000D03*
%TO.P,A1,21,A2*%
%TO.N,unconnected-(A1-A2-Pad21)*%
X151130000Y-103300000D03*
%TO.P,A1,22,A3*%
%TO.N,unconnected-(A1-A3-Pad22)*%
X151130000Y-105840000D03*
%TO.P,A1,23,A4*%
%TO.N,unconnected-(A1-A4-Pad23)*%
X151130000Y-108380000D03*
%TO.P,A1,24,A5*%
%TO.N,unconnected-(A1-A5-Pad24)*%
X151130000Y-110920000D03*
%TO.P,A1,25,A6*%
%TO.N,/PD1*%
X151130000Y-113460000D03*
%TO.P,A1,26,A7*%
%TO.N,/PD2*%
X151130000Y-116000000D03*
%TO.P,A1,27,+5V*%
%TO.N,+5V*%
X151130000Y-118540000D03*
%TO.P,A1,28,~{RESET}*%
%TO.N,unconnected-(A1-~{RESET}-Pad28)*%
X151130000Y-121080000D03*
%TO.P,A1,29,GND*%
%TO.N,GND*%
X151130000Y-123620000D03*
%TO.P,A1,30,VIN*%
%TO.N,+BATT_SW*%
X151130000Y-126160000D03*
%TD*%
D13*
%TO.P,R4,1*%
%TO.N,+5V*%
X202000003Y-118920000D03*
D15*
%TO.P,R4,2*%
%TO.N,Net-(D3-A)*%
X202000003Y-129080000D03*
%TD*%
D16*
%TO.P,J2,1,Pin_1*%
%TO.N,/SERVO1*%
X128660000Y-114000000D03*
D17*
%TO.P,J2,2,Pin_2*%
%TO.N,+5V*%
X131200000Y-114000000D03*
%TO.P,J2,3,Pin_3*%
%TO.N,GND*%
X133740000Y-114000000D03*
%TD*%
D14*
%TO.P,SW3,1,C*%
%TO.N,unconnected-(SW3-C-Pad1)*%
X162269643Y-135684999D03*
D13*
%TO.P,SW3,2,B*%
%TO.N,+BATT*%
X164769643Y-135684999D03*
%TO.P,SW3,3,A*%
%TO.N,+BATT_SW*%
X167269643Y-135684999D03*
%TO.P,SW3,4*%
%TO.N,unconnected-(SW3-Pad4)*%
X162269643Y-138884999D03*
%TO.P,SW3,5*%
%TO.N,unconnected-(SW3-Pad5)*%
X164769643Y-138884999D03*
%TO.P,SW3,6*%
%TO.N,unconnected-(SW3-Pad6)*%
X167269643Y-138884999D03*
%TD*%
%TO.P,R12,1*%
%TO.N,+5V*%
X189500003Y-109080000D03*
D15*
%TO.P,R12,2*%
%TO.N,Net-(D8-A)*%
X189500003Y-98920000D03*
%TD*%
D13*
%TO.P,R5,1*%
%TO.N,+5V*%
X192500003Y-109080000D03*
D15*
%TO.P,R5,2*%
%TO.N,Net-(D4-A)*%
X192500003Y-98920000D03*
%TD*%
D18*
%TO.P,D4,1,K*%
%TO.N,/LED2*%
X194725003Y-94000000D03*
D11*
%TO.P,D4,2,A*%
%TO.N,Net-(D4-A)*%
X197265003Y-94000000D03*
%TD*%
D13*
%TO.P,R6,1*%
%TO.N,Net-(D1-RA)*%
X202000003Y-109080000D03*
D15*
%TO.P,R6,2*%
%TO.N,/RGB_R*%
X202000003Y-98920000D03*
%TD*%
D13*
%TO.P,R13,1*%
%TO.N,GND*%
X186500003Y-129080000D03*
D15*
%TO.P,R13,2*%
%TO.N,/PD1*%
X186500003Y-118920000D03*
%TD*%
D19*
%TO.P,SW1,1,1*%
%TO.N,GND*%
X179250003Y-126250000D03*
X172750003Y-126250000D03*
%TO.P,SW1,2,2*%
%TO.N,/PUSH_BTN0*%
X179250003Y-121750000D03*
X172750003Y-121750000D03*
%TD*%
D13*
%TO.P,R11,1*%
%TO.N,+5V*%
X189500003Y-129080000D03*
D15*
%TO.P,R11,2*%
%TO.N,Net-(D7-A)*%
X189500003Y-118920000D03*
%TD*%
D13*
%TO.P,R1,1*%
%TO.N,/PUSH_BTN0*%
X183000003Y-118920000D03*
D15*
%TO.P,R1,2*%
%TO.N,+5V*%
X183000003Y-129080000D03*
%TD*%
D13*
%TO.P,R7,1*%
%TO.N,Net-(D1-GA)*%
X199000003Y-109080000D03*
D15*
%TO.P,R7,2*%
%TO.N,/RGB_G*%
X199000003Y-98920000D03*
%TD*%
D19*
%TO.P,SW2,1,1*%
%TO.N,GND*%
X172750003Y-101250000D03*
X179250003Y-101250000D03*
%TO.P,SW2,2,2*%
%TO.N,/PUSH_BTN1*%
X172750003Y-105750000D03*
X179250003Y-105750000D03*
%TD*%
D18*
%TO.P,D2,1,K*%
%TO.N,/LED0*%
X194725003Y-114000000D03*
D11*
%TO.P,D2,2,A*%
%TO.N,Net-(D2-A)*%
X197265003Y-114000000D03*
%TD*%
D13*
%TO.P,R3,1*%
%TO.N,+5V*%
X192500003Y-129080000D03*
D15*
%TO.P,R3,2*%
%TO.N,Net-(D2-A)*%
X192500003Y-118920000D03*
%TD*%
D13*
%TO.P,R14,1*%
%TO.N,GND*%
X196000003Y-118920000D03*
D15*
%TO.P,R14,2*%
%TO.N,/PD2*%
X196000003Y-129080000D03*
%TD*%
D13*
%TO.P,R10,1*%
%TO.N,+5V*%
X199000003Y-118920000D03*
D15*
%TO.P,R10,2*%
%TO.N,Net-(D6-A)*%
X199000003Y-129080000D03*
%TD*%
D16*
%TO.P,J3,1,Pin_1*%
%TO.N,+5V*%
X128660000Y-110190000D03*
D17*
%TO.P,J3,2,Pin_2*%
%TO.N,/TRIG*%
X131200000Y-110190000D03*
%TO.P,J3,3,Pin_3*%
%TO.N,/ECHO*%
X133740000Y-110190000D03*
%TO.P,J3,4,Pin_4*%
%TO.N,GND*%
X136280000Y-110190000D03*
%TD*%
D18*
%TO.P,D3,1,K*%
%TO.N,/LED1*%
X194725003Y-134000000D03*
D11*
%TO.P,D3,2,A*%
%TO.N,Net-(D3-A)*%
X197265003Y-134000000D03*
%TD*%
D13*
%TO.P,R8,1*%
%TO.N,Net-(D1-BA)*%
X196000003Y-109080000D03*
D15*
%TO.P,R8,2*%
%TO.N,/RGB_B*%
X196000003Y-98920000D03*
%TD*%
D13*
%TO.P,R2,1*%
%TO.N,/PUSH_BTN1*%
X183000003Y-98920000D03*
D15*
%TO.P,R2,2*%
%TO.N,+5V*%
X183000003Y-109080000D03*
%TD*%
D16*
%TO.P,J1,1,Pin_1*%
%TO.N,/SERVO0*%
X128660000Y-117810000D03*
D17*
%TO.P,J1,2,Pin_2*%
%TO.N,+5V*%
X131200000Y-117810000D03*
%TO.P,J1,3,Pin_3*%
%TO.N,GND*%
X133740000Y-117810000D03*
%TD*%
D13*
%TO.P,R9,1*%
%TO.N,GND*%
X186500003Y-109080000D03*
D15*
%TO.P,R9,2*%
%TO.N,/PD0*%
X186500003Y-98920000D03*
%TD*%
D18*
%TO.P,D5,1,K*%
%TO.N,+5V*%
X184275003Y-94000000D03*
D11*
%TO.P,D5,2,A*%
%TO.N,/PD0*%
X181735003Y-94000000D03*
%TD*%
D18*
%TO.P,D9,1,K*%
%TO.N,+5V*%
X184275003Y-114000000D03*
D11*
%TO.P,D9,2,A*%
%TO.N,/PD1*%
X181735003Y-114000000D03*
%TD*%
D18*
%TO.P,D7,1,K*%
%TO.N,GND*%
X190775003Y-114000000D03*
D11*
%TO.P,D7,2,A*%
%TO.N,Net-(D7-A)*%
X188235003Y-114000000D03*
%TD*%
D18*
%TO.P,D8,1,K*%
%TO.N,GND*%
X190775003Y-94000000D03*
D11*
%TO.P,D8,2,A*%
%TO.N,Net-(D8-A)*%
X188235003Y-94000000D03*
%TD*%
D18*
%TO.P,D10,1,K*%
%TO.N,+5V*%
X184275003Y-134000000D03*
D11*
%TO.P,D10,2,A*%
%TO.N,/PD2*%
X181735003Y-134000000D03*
%TD*%
D18*
%TO.P,D6,1,K*%
%TO.N,GND*%
X190775003Y-134000000D03*
D11*
%TO.P,D6,2,A*%
%TO.N,Net-(D6-A)*%
X188235003Y-134000000D03*
%TD*%
D20*
%TO.N,+5V*%
X182255000Y-96315000D03*
X184275003Y-138225000D03*
X180985000Y-104570000D03*
%TD*%
D21*
%TO.N,Net-(D1-GA)*%
X199472144Y-109080000D02*
X203632144Y-113240000D01*
X199000003Y-109080000D02*
X199472144Y-109080000D01*
X203632144Y-113240000D02*
X203902003Y-113240000D01*
%TO.N,Net-(D1-RA)*%
X205426003Y-112506000D02*
X205426003Y-114764000D01*
X202000003Y-109080000D02*
X205426003Y-112506000D01*
%TO.N,Net-(D1-BA)*%
X200160003Y-113240000D02*
X200600003Y-113240000D01*
X196000003Y-109080000D02*
X200160003Y-113240000D01*
D22*
%TO.N,+5V*%
X207677143Y-110942143D02*
X203845000Y-107110000D01*
X194470003Y-107110000D02*
X192500003Y-109080000D01*
X207677143Y-116097650D02*
X207677143Y-110942143D01*
X204854793Y-118920000D02*
X207677143Y-116097650D01*
X203845000Y-107110000D02*
X194470003Y-107110000D01*
X202000003Y-118920000D02*
X204854793Y-118920000D01*
D23*
%TO.N,+BATT*%
X163089078Y-133284999D02*
X164769643Y-134965564D01*
X158852143Y-133284999D02*
X163089078Y-133284999D01*
X156652143Y-135484999D02*
X158852143Y-133284999D01*
X164769643Y-134965564D02*
X164769643Y-135684999D01*
%TO.N,+BATT_SW*%
X167269643Y-133965564D02*
X167269643Y-135684999D01*
X159464079Y-126160000D02*
X167269643Y-133965564D01*
X151130000Y-126160000D02*
X159464079Y-126160000D01*
D21*
%TO.N,/PD0*%
X186500003Y-98765000D02*
X186500003Y-98920000D01*
X181735003Y-94000000D02*
X186500003Y-98765000D01*
X176245003Y-99490000D02*
X159395000Y-99490000D01*
X158125000Y-98220000D02*
X151130000Y-98220000D01*
X159395000Y-99490000D02*
X158125000Y-98220000D01*
X181735003Y-94000000D02*
X176245003Y-99490000D01*
%TO.N,/LED2*%
X165872233Y-112190000D02*
X165110000Y-111427767D01*
X165110000Y-111427767D02*
X165110000Y-110412233D01*
X191145000Y-97580003D02*
X194725003Y-94000000D01*
X178465000Y-109630000D02*
X187335000Y-100760000D01*
X187335000Y-100760000D02*
X189875000Y-100760000D01*
X165892233Y-109630000D02*
X166380000Y-109630000D01*
X166380000Y-109630000D02*
X178465000Y-109630000D01*
X167650000Y-114720000D02*
X167650000Y-112972233D01*
X166867767Y-112190000D02*
X165872233Y-112190000D01*
X191145000Y-99490000D02*
X191145000Y-97580003D01*
X165110000Y-110412233D02*
X165892233Y-109630000D01*
X166370000Y-116000000D02*
X167650000Y-114720000D01*
X167650000Y-112972233D02*
X166867767Y-112190000D01*
X189875000Y-100760000D02*
X191145000Y-99490000D01*
%TO.N,/SERVO0*%
X157490000Y-113460000D02*
X166370000Y-113460000D01*
X156240000Y-112210000D02*
X157490000Y-113460000D01*
X141615000Y-116000000D02*
X145405000Y-112210000D01*
X145405000Y-112210000D02*
X156240000Y-112210000D01*
X128660000Y-117810000D02*
X130470000Y-116000000D01*
X130470000Y-116000000D02*
X141615000Y-116000000D01*
%TO.N,/PUSH_BTN0*%
X166370000Y-110920000D02*
X169555000Y-110920000D01*
X172750003Y-121750000D02*
X179250003Y-121750000D01*
X181750003Y-121750000D02*
X183000003Y-120500000D01*
X183000003Y-120500000D02*
X183000003Y-118920000D01*
X172750003Y-114115003D02*
X172750003Y-121750000D01*
X169555000Y-110920000D02*
X172750003Y-114115003D01*
X179250003Y-121750000D02*
X181750003Y-121750000D01*
%TO.N,/TRIG*%
X135550000Y-105840000D02*
X140345000Y-105840000D01*
X150505000Y-88695000D02*
X164465000Y-88695000D01*
X147000000Y-99185000D02*
X147000000Y-92200000D01*
X147000000Y-92200000D02*
X150505000Y-88695000D01*
X131200000Y-110190000D02*
X135550000Y-105840000D01*
X164465000Y-88695000D02*
X166370000Y-90600000D01*
X140345000Y-105840000D02*
X147000000Y-99185000D01*
%TO.N,/PD1*%
X181865003Y-123555000D02*
X186500003Y-118920000D01*
X163205000Y-122350000D02*
X169555000Y-122350000D01*
X169555000Y-122350000D02*
X170760000Y-123555000D01*
X181735003Y-114000000D02*
X186500003Y-118765000D01*
X154315000Y-113460000D02*
X163205000Y-122350000D01*
X186500003Y-118765000D02*
X186500003Y-118920000D01*
X151130000Y-113460000D02*
X154315000Y-113460000D01*
X170760000Y-123555000D02*
X181865003Y-123555000D01*
%TO.N,/ECHO*%
X136820000Y-107110000D02*
X140980000Y-107110000D01*
X140980000Y-107110000D02*
X147965000Y-100125000D01*
X147965000Y-93765000D02*
X151130000Y-90600000D01*
X133740000Y-110190000D02*
X136820000Y-107110000D01*
X147965000Y-100125000D02*
X147965000Y-93765000D01*
%TO.N,/LED0*%
X191250003Y-121609997D02*
X191250003Y-117475000D01*
X166370000Y-123620000D02*
X168920000Y-123620000D01*
X191250003Y-117475000D02*
X194725003Y-114000000D01*
X188605000Y-124255000D02*
X191250003Y-121609997D01*
X169555000Y-124255000D02*
X188605000Y-124255000D01*
X168920000Y-123620000D02*
X169555000Y-124255000D01*
%TO.N,/LED1*%
X166380000Y-126160000D02*
X176220000Y-136000000D01*
X166370000Y-126160000D02*
X166380000Y-126160000D01*
X192725003Y-136000000D02*
X177810000Y-136000000D01*
X194725003Y-134000000D02*
X192725003Y-136000000D01*
X176220000Y-136000000D02*
X177810000Y-136000000D01*
%TO.N,/PUSH_BTN1*%
X183000003Y-104000000D02*
X183000003Y-98920000D01*
X179250003Y-105750000D02*
X181250003Y-105750000D01*
X166370000Y-105840000D02*
X172660003Y-105840000D01*
X172660003Y-105840000D02*
X172750003Y-105750000D01*
X181250003Y-105750000D02*
X183000003Y-104000000D01*
X172750003Y-105750000D02*
X179250003Y-105750000D01*
X179160003Y-105840000D02*
X179250003Y-105750000D01*
%TO.N,/PD2*%
X181735003Y-134000000D02*
X184235003Y-131500000D01*
X184235003Y-131500000D02*
X193580003Y-131500000D01*
X168305000Y-124910000D02*
X177395000Y-134000000D01*
X151130000Y-116000000D02*
X154315000Y-116000000D01*
X177395000Y-134000000D02*
X181735003Y-134000000D01*
X193580003Y-131500000D02*
X196000003Y-129080000D01*
X163225000Y-124910000D02*
X168305000Y-124910000D01*
X154315000Y-116000000D02*
X163225000Y-124910000D01*
D22*
%TO.N,+5V*%
X189500003Y-129080000D02*
X192500003Y-129080000D01*
X184750003Y-127330000D02*
X187750003Y-127330000D01*
X183000003Y-129080000D02*
X184750003Y-127330000D01*
X184275003Y-138225000D02*
X174952500Y-138225000D01*
X187750003Y-107330000D02*
X189500003Y-109080000D01*
X174952500Y-138225000D02*
X155267500Y-118540000D01*
X141615000Y-118540000D02*
X151130000Y-118540000D01*
X189500003Y-109080000D02*
X192500003Y-109080000D01*
X184750003Y-107330000D02*
X187750003Y-107330000D01*
X199000003Y-118920000D02*
X202000003Y-118920000D01*
X184275003Y-110355000D02*
X184275003Y-114000000D01*
X192500003Y-125420000D02*
X199000003Y-118920000D01*
X139710000Y-120445000D02*
X141615000Y-118540000D01*
X131200000Y-118285000D02*
X133360000Y-120445000D01*
X183000003Y-109080000D02*
X184750003Y-107330000D01*
X133360000Y-120445000D02*
X139710000Y-120445000D01*
X155267500Y-118540000D02*
X151130000Y-118540000D01*
X131200000Y-117810000D02*
X131200000Y-118285000D01*
X180985000Y-104570000D02*
X180985000Y-97585000D01*
X183000003Y-109080000D02*
X184275003Y-110355000D01*
X192500003Y-129080000D02*
X192500003Y-125420000D01*
X180985000Y-97585000D02*
X182255000Y-96315000D01*
X187750003Y-127330000D02*
X189500003Y-129080000D01*
D21*
%TO.N,/SERVO1*%
X128660000Y-114000000D02*
X130470000Y-112190000D01*
X142885000Y-112190000D02*
X145425000Y-109650000D01*
X145425000Y-109650000D02*
X156220000Y-109650000D01*
X156220000Y-109650000D02*
X157490000Y-108380000D01*
X157490000Y-108380000D02*
X166370000Y-108380000D01*
X130470000Y-112190000D02*
X142885000Y-112190000D01*
%TO.N,Net-(D2-A)*%
X197265003Y-114155000D02*
X197265003Y-114000000D01*
X192500003Y-118920000D02*
X197265003Y-114155000D01*
%TO.N,Net-(D3-A)*%
X202000003Y-129265000D02*
X202000003Y-129080000D01*
X197265003Y-134000000D02*
X202000003Y-129265000D01*
%TO.N,Net-(D4-A)*%
X192500003Y-98920000D02*
X197265003Y-94155000D01*
X197265003Y-94155000D02*
X197265003Y-94000000D01*
%TO.N,/RGB_R*%
X166370000Y-93140000D02*
X175140000Y-93140000D01*
X175140000Y-93140000D02*
X178950000Y-89330000D01*
X198130000Y-89330000D02*
X202000003Y-93200003D01*
X202000003Y-93200003D02*
X202000003Y-98920000D01*
X178950000Y-89330000D02*
X198130000Y-89330000D01*
%TO.N,Net-(D6-A)*%
X195880003Y-132200000D02*
X199000003Y-129080000D01*
X188235003Y-134000000D02*
X190035003Y-132200000D01*
X190035003Y-132200000D02*
X195880003Y-132200000D01*
%TO.N,/RGB_B*%
X198765000Y-96155003D02*
X198765000Y-93365404D01*
X166370000Y-98220000D02*
X174000000Y-98220000D01*
X180350000Y-91870000D02*
X174000000Y-98220000D01*
X198765000Y-93365404D02*
X197269596Y-91870000D01*
X196000003Y-98920000D02*
X198765000Y-96155003D01*
X197269596Y-91870000D02*
X180350000Y-91870000D01*
%TO.N,/RGB_G*%
X199000003Y-98920000D02*
X200670000Y-97250003D01*
X179715000Y-90600000D02*
X174635000Y-95680000D01*
X200670000Y-93775000D02*
X197495000Y-90600000D01*
X166370000Y-95680000D02*
X174635000Y-95680000D01*
X197495000Y-90600000D02*
X179715000Y-90600000D01*
X200670000Y-97250003D02*
X200670000Y-93775000D01*
%TO.N,Net-(D7-A)*%
X188235003Y-114000000D02*
X188235003Y-117655000D01*
X188235003Y-117655000D02*
X189500003Y-118920000D01*
%TO.N,Net-(D8-A)*%
X189500003Y-95265000D02*
X189500003Y-98920000D01*
X188235003Y-94000000D02*
X189500003Y-95265000D01*
%TD*%
%TA.AperFunction,Conductor*%
%TO.N,GND*%
G36*
X182501152Y-84500520D02*
G01*
X183575131Y-84520139D01*
X183579611Y-84520303D01*
X184651093Y-84579074D01*
X184655573Y-84579402D01*
X185724159Y-84677263D01*
X185728610Y-84677753D01*
X186655232Y-84796876D01*
X186792931Y-84814579D01*
X186797412Y-84815239D01*
X186864695Y-84826400D01*
X187855960Y-84990833D01*
X187860386Y-84991650D01*
X188911915Y-85205808D01*
X188916244Y-85206772D01*
X189959254Y-85459192D01*
X189963554Y-85460317D01*
X190996628Y-85750656D01*
X191000921Y-85751948D01*
X192022676Y-86079815D01*
X192026897Y-86081255D01*
X193036021Y-86446228D01*
X193040208Y-86447829D01*
X194035351Y-86849423D01*
X194039445Y-86851164D01*
X195019198Y-87288809D01*
X195023270Y-87290717D01*
X195588148Y-87568216D01*
X195986378Y-87763848D01*
X195990407Y-87765919D01*
X196935591Y-88273908D01*
X196939541Y-88276125D01*
X197063140Y-88348492D01*
X197111047Y-88399352D01*
X197123851Y-88468038D01*
X197097489Y-88532744D01*
X197040329Y-88572925D01*
X197000487Y-88579500D01*
X178876076Y-88579500D01*
X178847242Y-88585234D01*
X178847243Y-88585235D01*
X178731092Y-88608339D01*
X178731086Y-88608341D01*
X178700326Y-88621083D01*
X178594506Y-88664914D01*
X178512372Y-88719795D01*
X178471585Y-88747047D01*
X178471581Y-88747050D01*
X174865451Y-92353181D01*
X174804128Y-92386666D01*
X174777770Y-92389500D01*
X167496663Y-92389500D01*
X167429624Y-92369815D01*
X167395088Y-92336623D01*
X167370045Y-92300858D01*
X167209141Y-92139954D01*
X167022734Y-92009432D01*
X167022728Y-92009429D01*
X166964725Y-91982382D01*
X166912285Y-91936210D01*
X166893133Y-91869017D01*
X166913348Y-91802135D01*
X166964725Y-91757618D01*
X167022734Y-91730568D01*
X167209139Y-91600047D01*
X167370047Y-91439139D01*
X167500568Y-91252734D01*
X167596739Y-91046496D01*
X167655635Y-90826692D01*
X167675468Y-90600000D01*
X167655635Y-90373308D01*
X167596739Y-90153504D01*
X167500568Y-89947266D01*
X167370047Y-89760861D01*
X167370045Y-89760858D01*
X167209141Y-89599954D01*
X167022734Y-89469432D01*
X167022732Y-89469431D01*
X166816497Y-89373261D01*
X166816488Y-89373258D01*
X166596697Y-89314366D01*
X166596693Y-89314365D01*
X166596692Y-89314365D01*
X166596691Y-89314364D01*
X166596686Y-89314364D01*
X166370002Y-89294532D01*
X166369997Y-89294532D01*
X166203137Y-89309129D01*
X166134637Y-89295362D01*
X166104650Y-89273282D01*
X164943421Y-88112052D01*
X164943420Y-88112051D01*
X164943414Y-88112047D01*
X164846024Y-88046974D01*
X164820495Y-88029916D01*
X164820493Y-88029915D01*
X164820488Y-88029912D01*
X164683917Y-87973343D01*
X164683907Y-87973340D01*
X164538920Y-87944500D01*
X164538918Y-87944500D01*
X150431082Y-87944500D01*
X150431076Y-87944500D01*
X150402242Y-87950234D01*
X150402243Y-87950235D01*
X150286093Y-87973339D01*
X150286083Y-87973342D01*
X150206081Y-88006479D01*
X150206082Y-88006480D01*
X150149505Y-88029915D01*
X150067372Y-88084795D01*
X150026585Y-88112047D01*
X150026581Y-88112050D01*
X146417048Y-91721583D01*
X146395562Y-91753740D01*
X146374219Y-91785684D01*
X146354567Y-91815094D01*
X146334916Y-91844504D01*
X146334912Y-91844511D01*
X146278343Y-91981082D01*
X146278340Y-91981092D01*
X146249500Y-92126079D01*
X146249500Y-93078111D01*
X146229815Y-93145150D01*
X146177011Y-93190905D01*
X146107853Y-93200849D01*
X146044297Y-93171824D01*
X146037819Y-93165792D01*
X145977512Y-93105485D01*
X145977510Y-93105483D01*
X145786433Y-92966657D01*
X145724146Y-92934920D01*
X145575996Y-92859433D01*
X145351368Y-92786446D01*
X145118097Y-92749500D01*
X145118092Y-92749500D01*
X144881908Y-92749500D01*
X144881903Y-92749500D01*
X144648631Y-92786446D01*
X144424003Y-92859433D01*
X144213566Y-92966657D01*
X144150995Y-93012118D01*
X144022490Y-93105483D01*
X144022488Y-93105485D01*
X144022487Y-93105485D01*
X143855485Y-93272487D01*
X143855485Y-93272488D01*
X143855483Y-93272490D01*
X143817829Y-93324316D01*
X143716657Y-93463566D01*
X143609433Y-93674003D01*
X143536446Y-93898631D01*
X143499500Y-94131902D01*
X143499500Y-96868097D01*
X143536446Y-97101368D01*
X143609433Y-97325996D01*
X143697249Y-97498343D01*
X143716657Y-97536433D01*
X143855483Y-97727510D01*
X144022490Y-97894517D01*
X144213567Y-98033343D01*
X144306826Y-98080861D01*
X144424003Y-98140566D01*
X144424005Y-98140566D01*
X144424008Y-98140568D01*
X144544412Y-98179689D01*
X144648631Y-98213553D01*
X144881903Y-98250500D01*
X144881908Y-98250500D01*
X145118097Y-98250500D01*
X145351368Y-98213553D01*
X145575992Y-98140568D01*
X145786433Y-98033343D01*
X145977510Y-97894517D01*
X146037819Y-97834208D01*
X146099142Y-97800723D01*
X146168834Y-97805707D01*
X146224767Y-97847579D01*
X146249184Y-97913043D01*
X146249500Y-97921889D01*
X146249500Y-98822770D01*
X146229815Y-98889809D01*
X146213181Y-98910451D01*
X140070451Y-105053181D01*
X140009128Y-105086666D01*
X139982770Y-105089500D01*
X135476080Y-105089500D01*
X135331092Y-105118340D01*
X135331082Y-105118343D01*
X135194509Y-105174913D01*
X135194507Y-105174914D01*
X135153645Y-105202218D01*
X135153643Y-105202219D01*
X135071589Y-105257043D01*
X135071584Y-105257047D01*
X131511500Y-108817130D01*
X131450177Y-108850615D01*
X131413012Y-108852977D01*
X131200002Y-108834341D01*
X131199999Y-108834341D01*
X130964596Y-108854936D01*
X130964586Y-108854938D01*
X130736344Y-108916094D01*
X130736335Y-108916098D01*
X130522171Y-109015964D01*
X130522169Y-109015965D01*
X130328600Y-109151503D01*
X130206673Y-109273430D01*
X130145350Y-109306914D01*
X130075658Y-109301930D01*
X130019725Y-109260058D01*
X130002810Y-109229081D01*
X129953797Y-109097671D01*
X129953793Y-109097664D01*
X129867547Y-108982455D01*
X129867544Y-108982452D01*
X129752335Y-108896206D01*
X129752328Y-108896202D01*
X129617482Y-108845908D01*
X129617483Y-108845908D01*
X129557883Y-108839501D01*
X129557881Y-108839500D01*
X129557873Y-108839500D01*
X129557864Y-108839500D01*
X127762129Y-108839500D01*
X127762123Y-108839501D01*
X127702516Y-108845908D01*
X127567671Y-108896202D01*
X127567664Y-108896206D01*
X127452455Y-108982452D01*
X127452452Y-108982455D01*
X127366206Y-109097664D01*
X127366202Y-109097671D01*
X127315908Y-109232517D01*
X127309501Y-109292116D01*
X127309500Y-109292135D01*
X127309500Y-111087870D01*
X127309501Y-111087876D01*
X127315908Y-111147483D01*
X127366202Y-111282328D01*
X127366206Y-111282335D01*
X127452452Y-111397544D01*
X127452455Y-111397547D01*
X127567664Y-111483793D01*
X127567671Y-111483797D01*
X127702517Y-111534091D01*
X127702516Y-111534091D01*
X127709444Y-111534835D01*
X127762127Y-111540500D01*
X129557872Y-111540499D01*
X129617483Y-111534091D01*
X129752331Y-111483796D01*
X129806291Y-111443400D01*
X129854486Y-111425424D01*
X129863636Y-111402767D01*
X129867542Y-111397548D01*
X129867546Y-111397546D01*
X129953796Y-111282331D01*
X130002810Y-111150916D01*
X130044681Y-111094984D01*
X130110145Y-111070566D01*
X130178418Y-111085417D01*
X130206673Y-111106569D01*
X130328597Y-111228493D01*
X130328603Y-111228498D01*
X130340355Y-111236727D01*
X130383980Y-111291304D01*
X130391174Y-111360802D01*
X130359651Y-111423157D01*
X130299421Y-111458571D01*
X130293425Y-111459919D01*
X130251092Y-111468340D01*
X130251083Y-111468342D01*
X130171081Y-111501479D01*
X130171082Y-111501480D01*
X130114506Y-111524915D01*
X130049702Y-111568216D01*
X130049698Y-111568218D01*
X130031788Y-111580184D01*
X129988542Y-111593722D01*
X129979870Y-111616977D01*
X129968282Y-111630349D01*
X128985450Y-112613181D01*
X128924127Y-112646666D01*
X128897769Y-112649500D01*
X127762129Y-112649500D01*
X127762123Y-112649501D01*
X127702516Y-112655908D01*
X127567671Y-112706202D01*
X127567664Y-112706206D01*
X127452455Y-112792452D01*
X127452452Y-112792455D01*
X127366206Y-112907664D01*
X127366202Y-112907671D01*
X127315908Y-113042517D01*
X127309501Y-113102116D01*
X127309500Y-113102135D01*
X127309500Y-114897870D01*
X127309501Y-114897876D01*
X127315908Y-114957483D01*
X127366202Y-115092328D01*
X127366206Y-115092335D01*
X127452452Y-115207544D01*
X127452455Y-115207547D01*
X127567664Y-115293793D01*
X127567671Y-115293797D01*
X127702517Y-115344091D01*
X127702516Y-115344091D01*
X127709444Y-115344835D01*
X127762127Y-115350500D01*
X129557872Y-115350499D01*
X129617483Y-115344091D01*
X129752331Y-115293796D01*
X129806291Y-115253400D01*
X129854486Y-115235424D01*
X129863636Y-115212767D01*
X129867542Y-115207548D01*
X129867546Y-115207546D01*
X129953796Y-115092331D01*
X130002810Y-114960916D01*
X130044681Y-114904984D01*
X130110145Y-114880566D01*
X130178418Y-114895417D01*
X130206673Y-114916569D01*
X130328597Y-115038493D01*
X130328604Y-115038499D01*
X130340357Y-115046729D01*
X130383981Y-115101307D01*
X130391172Y-115170806D01*
X130359648Y-115233160D01*
X130299417Y-115268572D01*
X130293424Y-115269919D01*
X130251091Y-115278339D01*
X130251089Y-115278340D01*
X130191675Y-115302951D01*
X130114508Y-115334914D01*
X130114505Y-115334915D01*
X130114505Y-115334916D01*
X130096022Y-115347266D01*
X130062136Y-115369908D01*
X130062134Y-115369909D01*
X130031790Y-115390183D01*
X129988542Y-115403723D01*
X129979870Y-115426977D01*
X129968282Y-115440349D01*
X128985450Y-116423181D01*
X128924127Y-116456666D01*
X128897769Y-116459500D01*
X127762129Y-116459500D01*
X127762123Y-116459501D01*
X127702516Y-116465908D01*
X127567671Y-116516202D01*
X127567664Y-116516206D01*
X127452455Y-116602452D01*
X127452452Y-116602455D01*
X127366206Y-116717664D01*
X127366202Y-116717671D01*
X127315908Y-116852517D01*
X127309501Y-116912116D01*
X127309500Y-116912135D01*
X127309500Y-118707870D01*
X127309501Y-118707876D01*
X127315908Y-118767483D01*
X127366202Y-118902328D01*
X127366206Y-118902335D01*
X127452452Y-119017544D01*
X127452455Y-119017547D01*
X127567664Y-119103793D01*
X127567671Y-119103797D01*
X127702517Y-119154091D01*
X127702516Y-119154091D01*
X127709444Y-119154835D01*
X127762127Y-119160500D01*
X129557872Y-119160499D01*
X129617483Y-119154091D01*
X129752331Y-119103796D01*
X129867546Y-119017546D01*
X129953796Y-118902331D01*
X130002810Y-118770916D01*
X130044681Y-118714984D01*
X130110145Y-118690566D01*
X130178418Y-118705417D01*
X130206670Y-118726566D01*
X130270104Y-118790000D01*
X130328600Y-118848496D01*
X130393403Y-118893871D01*
X130417942Y-118918946D01*
X130419001Y-118918078D01*
X130422860Y-118922781D01*
X130422861Y-118922782D01*
X130562218Y-119062139D01*
X130562219Y-119062139D01*
X130569286Y-119069206D01*
X130569285Y-119069206D01*
X130569288Y-119069208D01*
X132582860Y-121082781D01*
X132582861Y-121082782D01*
X132663415Y-121163336D01*
X132722219Y-121222140D01*
X132886079Y-121331628D01*
X132886092Y-121331635D01*
X133014833Y-121384961D01*
X133057744Y-121402735D01*
X133068164Y-121407051D01*
X133164812Y-121426275D01*
X133213135Y-121435887D01*
X133261458Y-121445500D01*
X133261459Y-121445500D01*
X139808542Y-121445500D01*
X139827870Y-121441655D01*
X139905188Y-121426275D01*
X140001836Y-121407051D01*
X140055165Y-121384961D01*
X140183914Y-121331632D01*
X140347782Y-121222139D01*
X140487139Y-121082782D01*
X140487140Y-121082779D01*
X140494206Y-121075714D01*
X140494208Y-121075710D01*
X141993101Y-119576819D01*
X142054424Y-119543334D01*
X142080782Y-119540500D01*
X150252412Y-119540500D01*
X150319451Y-119560185D01*
X150323523Y-119562917D01*
X150477266Y-119670568D01*
X150534681Y-119697341D01*
X150535275Y-119697618D01*
X150587714Y-119743791D01*
X150606866Y-119810984D01*
X150586650Y-119877865D01*
X150535275Y-119922382D01*
X150477267Y-119949431D01*
X150477265Y-119949432D01*
X150290858Y-120079954D01*
X150129954Y-120240858D01*
X149999432Y-120427265D01*
X149999431Y-120427267D01*
X149903261Y-120633502D01*
X149903258Y-120633511D01*
X149844366Y-120853302D01*
X149844364Y-120853313D01*
X149824532Y-121079998D01*
X149824532Y-121080001D01*
X149844364Y-121306686D01*
X149844366Y-121306697D01*
X149903258Y-121526488D01*
X149903261Y-121526497D01*
X149999431Y-121732732D01*
X149999432Y-121732734D01*
X150129954Y-121919141D01*
X150290858Y-122080045D01*
X150290861Y-122080047D01*
X150477266Y-122210568D01*
X150535865Y-122237893D01*
X150588305Y-122284065D01*
X150607457Y-122351258D01*
X150587242Y-122418139D01*
X150535867Y-122462657D01*
X150477515Y-122489867D01*
X150291179Y-122620342D01*
X150130342Y-122781179D01*
X149999865Y-122967517D01*
X149903734Y-123173673D01*
X149903730Y-123173682D01*
X149851127Y-123369999D01*
X149851128Y-123370000D01*
X150696988Y-123370000D01*
X150664075Y-123427007D01*
X150630000Y-123554174D01*
X150630000Y-123685826D01*
X150664075Y-123812993D01*
X150696988Y-123870000D01*
X149851128Y-123870000D01*
X149903730Y-124066317D01*
X149903734Y-124066326D01*
X149999865Y-124272482D01*
X150130342Y-124458820D01*
X150291179Y-124619657D01*
X150477518Y-124750134D01*
X150477520Y-124750135D01*
X150535865Y-124777342D01*
X150588305Y-124823514D01*
X150607457Y-124890707D01*
X150587242Y-124957589D01*
X150535867Y-125002105D01*
X150525451Y-125006963D01*
X150477264Y-125029433D01*
X150290858Y-125159954D01*
X150129954Y-125320858D01*
X149999432Y-125507265D01*
X149999431Y-125507267D01*
X149903261Y-125713502D01*
X149903258Y-125713511D01*
X149844366Y-125933302D01*
X149844364Y-125933313D01*
X149824532Y-126159998D01*
X149824532Y-126160001D01*
X149844364Y-126386686D01*
X149844366Y-126386697D01*
X149903258Y-126606488D01*
X149903261Y-126606497D01*
X149999431Y-126812732D01*
X149999432Y-126812734D01*
X150129954Y-126999141D01*
X150290858Y-127160045D01*
X150290861Y-127160047D01*
X150477266Y-127290568D01*
X150683504Y-127386739D01*
X150903308Y-127445635D01*
X151065230Y-127459801D01*
X151129998Y-127465468D01*
X151130000Y-127465468D01*
X151130002Y-127465468D01*
X151186796Y-127460499D01*
X151356692Y-127445635D01*
X151472050Y-127414724D01*
X151504143Y-127410500D01*
X158894743Y-127410500D01*
X158961782Y-127430185D01*
X158982424Y-127446819D01*
X163372252Y-131836647D01*
X163405737Y-131897970D01*
X163400753Y-131967662D01*
X163358881Y-132023595D01*
X163293417Y-132048012D01*
X163265173Y-132046801D01*
X163187500Y-132034499D01*
X163187495Y-132034499D01*
X158753726Y-132034499D01*
X158753721Y-132034499D01*
X158568011Y-132063913D01*
X158560305Y-132065133D01*
X158559310Y-132065291D01*
X158372112Y-132126116D01*
X158196737Y-132215475D01*
X158105884Y-132281484D01*
X158037497Y-132331171D01*
X158037495Y-132331173D01*
X158037494Y-132331173D01*
X156220486Y-134148180D01*
X156159163Y-134181665D01*
X156132806Y-134184499D01*
X156052142Y-134184499D01*
X156052123Y-134184500D01*
X155949346Y-134194999D01*
X155949343Y-134195000D01*
X155782811Y-134250184D01*
X155782806Y-134250186D01*
X155633485Y-134342288D01*
X155509432Y-134466341D01*
X155417330Y-134615662D01*
X155417328Y-134615667D01*
X155398417Y-134672738D01*
X155362144Y-134782202D01*
X155362144Y-134782203D01*
X155362143Y-134782203D01*
X155351643Y-134884982D01*
X155351643Y-136085000D01*
X155351644Y-136085017D01*
X155362143Y-136187795D01*
X155362144Y-136187798D01*
X155406819Y-136322615D01*
X155417329Y-136354333D01*
X155509431Y-136503655D01*
X155633487Y-136627711D01*
X155782809Y-136719813D01*
X155949346Y-136774998D01*
X156052134Y-136785499D01*
X157252151Y-136785498D01*
X157354940Y-136774998D01*
X157521477Y-136719813D01*
X157670799Y-136627711D01*
X157794855Y-136503655D01*
X157886957Y-136354333D01*
X157942142Y-136187796D01*
X157952643Y-136085008D01*
X157952642Y-136004333D01*
X157972326Y-135937296D01*
X157988956Y-135916658D01*
X159333798Y-134571818D01*
X159395121Y-134538333D01*
X159421479Y-134535499D01*
X160887225Y-134535499D01*
X160954264Y-134555184D01*
X161000019Y-134607988D01*
X161009963Y-134677146D01*
X161003407Y-134702832D01*
X160975551Y-134777516D01*
X160969144Y-134837115D01*
X160969143Y-134837134D01*
X160969143Y-136532869D01*
X160969144Y-136532875D01*
X160975551Y-136592482D01*
X161025845Y-136727327D01*
X161025849Y-136727334D01*
X161112095Y-136842543D01*
X161112098Y-136842546D01*
X161227307Y-136928792D01*
X161227314Y-136928796D01*
X161362160Y-136979090D01*
X161362159Y-136979090D01*
X161369087Y-136979834D01*
X161421770Y-136985499D01*
X163117515Y-136985498D01*
X163177126Y-136979090D01*
X163311974Y-136928795D01*
X163427189Y-136842545D01*
X163513439Y-136727330D01*
X163563734Y-136592482D01*
X163563735Y-136592471D01*
X163565008Y-136587087D01*
X163599576Y-136526368D01*
X163661484Y-136493977D01*
X163731076Y-136500198D01*
X163773368Y-136527911D01*
X163930501Y-136685044D01*
X163930504Y-136685046D01*
X164116909Y-136815567D01*
X164323147Y-136911738D01*
X164542951Y-136970634D01*
X164704873Y-136984800D01*
X164769641Y-136990467D01*
X164769643Y-136990467D01*
X164769645Y-136990467D01*
X164826450Y-136985497D01*
X164996335Y-136970634D01*
X165216139Y-136911738D01*
X165422377Y-136815567D01*
X165608782Y-136685046D01*
X165769690Y-136524138D01*
X165900211Y-136337733D01*
X165907261Y-136322613D01*
X165953432Y-136270175D01*
X166020625Y-136251022D01*
X166087507Y-136271237D01*
X166132024Y-136322613D01*
X166139075Y-136337732D01*
X166139075Y-136337733D01*
X166269597Y-136524140D01*
X166430501Y-136685044D01*
X166430504Y-136685046D01*
X166616909Y-136815567D01*
X166823147Y-136911738D01*
X167042951Y-136970634D01*
X167204873Y-136984800D01*
X167269641Y-136990467D01*
X167269643Y-136990467D01*
X167269645Y-136990467D01*
X167326450Y-136985497D01*
X167496335Y-136970634D01*
X167716139Y-136911738D01*
X167922377Y-136815567D01*
X168108782Y-136685046D01*
X168269690Y-136524138D01*
X168400211Y-136337733D01*
X168496382Y-136131495D01*
X168555278Y-135911691D01*
X168575111Y-135684999D01*
X168555278Y-135458307D01*
X168524368Y-135342948D01*
X168520143Y-135310855D01*
X168520143Y-133867142D01*
X168503969Y-133765025D01*
X168497423Y-133723694D01*
X168489352Y-133672737D01*
X168453397Y-133562081D01*
X168447425Y-133543700D01*
X168428528Y-133485541D01*
X168400011Y-133429573D01*
X168387115Y-133360904D01*
X168413391Y-133296163D01*
X168470498Y-133255906D01*
X168540303Y-133252914D01*
X168598177Y-133285597D01*
X174172235Y-138859655D01*
X174172264Y-138859686D01*
X174314714Y-139002136D01*
X174314718Y-139002139D01*
X174478579Y-139111628D01*
X174478592Y-139111635D01*
X174607333Y-139164961D01*
X174642060Y-139179345D01*
X174660664Y-139187051D01*
X174757312Y-139206275D01*
X174781181Y-139211023D01*
X174853958Y-139225500D01*
X174853959Y-139225500D01*
X174853960Y-139225500D01*
X175051040Y-139225500D01*
X184219759Y-139225500D01*
X184231912Y-139226096D01*
X184275003Y-139230341D01*
X184318093Y-139226096D01*
X184330247Y-139225500D01*
X184373545Y-139225500D01*
X184389457Y-139222334D01*
X184416008Y-139217053D01*
X184428040Y-139215268D01*
X184471135Y-139211024D01*
X184512583Y-139198450D01*
X184524356Y-139195500D01*
X184566838Y-139187051D01*
X184606850Y-139170476D01*
X184618283Y-139166386D01*
X184659730Y-139153814D01*
X184697921Y-139133399D01*
X184708909Y-139128202D01*
X184748917Y-139111632D01*
X184784941Y-139087560D01*
X184795354Y-139081320D01*
X184821594Y-139067295D01*
X184833538Y-139060912D01*
X184833542Y-139060909D01*
X184867008Y-139033444D01*
X184876785Y-139026193D01*
X184912784Y-139002140D01*
X184912786Y-139002138D01*
X184912788Y-139002136D01*
X184943411Y-138971512D01*
X184952405Y-138963359D01*
X184985886Y-138935883D01*
X185013362Y-138902402D01*
X185021515Y-138893408D01*
X185052142Y-138862782D01*
X185054232Y-138859655D01*
X185076196Y-138826782D01*
X185083447Y-138817005D01*
X185110912Y-138783539D01*
X185110915Y-138783535D01*
X185117298Y-138771591D01*
X185131323Y-138745351D01*
X185137563Y-138734938D01*
X185161635Y-138698914D01*
X185178205Y-138658906D01*
X185183402Y-138647918D01*
X185203817Y-138609727D01*
X185216389Y-138568280D01*
X185220479Y-138556847D01*
X185237054Y-138516835D01*
X185245503Y-138474353D01*
X185248453Y-138462580D01*
X185261027Y-138421132D01*
X185265271Y-138378037D01*
X185267057Y-138365999D01*
X185275503Y-138323541D01*
X185275503Y-138280244D01*
X185276100Y-138268090D01*
X185278139Y-138247385D01*
X185280344Y-138225000D01*
X185276100Y-138181908D01*
X185275503Y-138169754D01*
X185275503Y-138126458D01*
X185268371Y-138090606D01*
X185267055Y-138083990D01*
X185265271Y-138071961D01*
X185262700Y-138045860D01*
X185261027Y-138028868D01*
X185248451Y-137987414D01*
X185245502Y-137975640D01*
X185237054Y-137933165D01*
X185220483Y-137893160D01*
X185216385Y-137881706D01*
X185203817Y-137840273D01*
X185183407Y-137802091D01*
X185178204Y-137791090D01*
X185161635Y-137751086D01*
X185137575Y-137715078D01*
X185131319Y-137704640D01*
X185110914Y-137666464D01*
X185110913Y-137666462D01*
X185083441Y-137632988D01*
X185076197Y-137623219D01*
X185052143Y-137587219D01*
X185052139Y-137587214D01*
X185021523Y-137556599D01*
X185013349Y-137547581D01*
X184985887Y-137514118D01*
X184952419Y-137486651D01*
X184943404Y-137478479D01*
X184912790Y-137447865D01*
X184912786Y-137447862D01*
X184876775Y-137423799D01*
X184867005Y-137416552D01*
X184833546Y-137389094D01*
X184833538Y-137389088D01*
X184816439Y-137379948D01*
X184795353Y-137368678D01*
X184784921Y-137362425D01*
X184748921Y-137338370D01*
X184748917Y-137338368D01*
X184708918Y-137321800D01*
X184697916Y-137316597D01*
X184659732Y-137296187D01*
X184659731Y-137296186D01*
X184659730Y-137296186D01*
X184618280Y-137283612D01*
X184606837Y-137279517D01*
X184566837Y-137262948D01*
X184566830Y-137262946D01*
X184524381Y-137254503D01*
X184512578Y-137251547D01*
X184471137Y-137238976D01*
X184471133Y-137238975D01*
X184428038Y-137234730D01*
X184416009Y-137232945D01*
X184373547Y-137224500D01*
X184373544Y-137224500D01*
X184330247Y-137224500D01*
X184318093Y-137223903D01*
X184275003Y-137219659D01*
X184231913Y-137223903D01*
X184219759Y-137224500D01*
X175418282Y-137224500D01*
X175351243Y-137204815D01*
X175330601Y-137188181D01*
X165814600Y-127672180D01*
X165781115Y-127610857D01*
X165786099Y-127541165D01*
X165827971Y-127485232D01*
X165893435Y-127460815D01*
X165902281Y-127460499D01*
X166567769Y-127460499D01*
X166634808Y-127480184D01*
X166655450Y-127496818D01*
X175637048Y-136478415D01*
X175637049Y-136478416D01*
X175691502Y-136532869D01*
X175741585Y-136582952D01*
X175864498Y-136665080D01*
X175864511Y-136665087D01*
X175996628Y-136719811D01*
X176001087Y-136721658D01*
X176001091Y-136721658D01*
X176001092Y-136721659D01*
X176146079Y-136750500D01*
X176146082Y-136750500D01*
X192798923Y-136750500D01*
X192896465Y-136731096D01*
X192943916Y-136721658D01*
X193080498Y-136665084D01*
X193136431Y-136627711D01*
X193136431Y-136627710D01*
X193136433Y-136627710D01*
X193169925Y-136605331D01*
X193203419Y-136582952D01*
X194349551Y-135436817D01*
X194410874Y-135403333D01*
X194437232Y-135400499D01*
X195672874Y-135400499D01*
X195672875Y-135400499D01*
X195732486Y-135394091D01*
X195867334Y-135343796D01*
X195982549Y-135257546D01*
X196068799Y-135142331D01*
X196079560Y-135113480D01*
X196097458Y-135065493D01*
X196139329Y-135009559D01*
X196204793Y-134985141D01*
X196273066Y-134999992D01*
X196304869Y-135024843D01*
X196312305Y-135032920D01*
X196313218Y-135033912D01*
X196313225Y-135033918D01*
X196496368Y-135176464D01*
X196496374Y-135176468D01*
X196496377Y-135176470D01*
X196700500Y-135286936D01*
X196770174Y-135310855D01*
X196920018Y-135362297D01*
X196920020Y-135362297D01*
X196920022Y-135362298D01*
X197148954Y-135400500D01*
X197148955Y-135400500D01*
X197381051Y-135400500D01*
X197381052Y-135400500D01*
X197609984Y-135362298D01*
X197829506Y-135286936D01*
X198033629Y-135176470D01*
X198216787Y-135033913D01*
X198373982Y-134863153D01*
X198384394Y-134847217D01*
X198434721Y-134770185D01*
X198500927Y-134668849D01*
X198594160Y-134456300D01*
X198651137Y-134231305D01*
X198651219Y-134230315D01*
X198670303Y-134000006D01*
X198670303Y-133999993D01*
X198651138Y-133768708D01*
X198651137Y-133768695D01*
X198649549Y-133762424D01*
X198652169Y-133692607D01*
X198682069Y-133644300D01*
X201904771Y-130421597D01*
X201966092Y-130388114D01*
X201994589Y-130386308D01*
X201994589Y-130385468D01*
X202000005Y-130385468D01*
X202056676Y-130380509D01*
X202226695Y-130365635D01*
X202446499Y-130306739D01*
X202652737Y-130210568D01*
X202839142Y-130080047D01*
X203000050Y-129919139D01*
X203130571Y-129732734D01*
X203226742Y-129526496D01*
X203285638Y-129306692D01*
X203305471Y-129080000D01*
X203285638Y-128853308D01*
X203226742Y-128633504D01*
X203130571Y-128427266D01*
X203000050Y-128240861D01*
X203000048Y-128240858D01*
X202839144Y-128079954D01*
X202652737Y-127949432D01*
X202652735Y-127949431D01*
X202446500Y-127853261D01*
X202446491Y-127853258D01*
X202226700Y-127794366D01*
X202226696Y-127794365D01*
X202226695Y-127794365D01*
X202226694Y-127794364D01*
X202226689Y-127794364D01*
X202000005Y-127774532D01*
X202000001Y-127774532D01*
X201773316Y-127794364D01*
X201773305Y-127794366D01*
X201553514Y-127853258D01*
X201553505Y-127853261D01*
X201347270Y-127949431D01*
X201347268Y-127949432D01*
X201160861Y-128079954D01*
X200999957Y-128240858D01*
X200869435Y-128427265D01*
X200869434Y-128427267D01*
X200773264Y-128633502D01*
X200773261Y-128633511D01*
X200714369Y-128853302D01*
X200714367Y-128853313D01*
X200694535Y-129079998D01*
X200694535Y-129080001D01*
X200714367Y-129306686D01*
X200714369Y-129306697D01*
X200734421Y-129381533D01*
X200732758Y-129451383D01*
X200702327Y-129501307D01*
X200330475Y-129873159D01*
X200269152Y-129906644D01*
X200199460Y-129901660D01*
X200143527Y-129859788D01*
X200119110Y-129794324D01*
X200130412Y-129733073D01*
X200130568Y-129732737D01*
X200130571Y-129732734D01*
X200226742Y-129526496D01*
X200285638Y-129306692D01*
X200305471Y-129080000D01*
X200285638Y-128853308D01*
X200226742Y-128633504D01*
X200130571Y-128427266D01*
X200000050Y-128240861D01*
X200000048Y-128240858D01*
X199839144Y-128079954D01*
X199652737Y-127949432D01*
X199652735Y-127949431D01*
X199446500Y-127853261D01*
X199446491Y-127853258D01*
X199226700Y-127794366D01*
X199226696Y-127794365D01*
X199226695Y-127794365D01*
X199226694Y-127794364D01*
X199226689Y-127794364D01*
X199000005Y-127774532D01*
X199000001Y-127774532D01*
X198773316Y-127794364D01*
X198773305Y-127794366D01*
X198553514Y-127853258D01*
X198553505Y-127853261D01*
X198347270Y-127949431D01*
X198347268Y-127949432D01*
X198160861Y-128079954D01*
X197999957Y-128240858D01*
X197869435Y-128427265D01*
X197869434Y-128427267D01*
X197773264Y-128633502D01*
X197773261Y-128633511D01*
X197714369Y-128853302D01*
X197714367Y-128853313D01*
X197694535Y-129079998D01*
X197694535Y-129080003D01*
X197709132Y-129246861D01*
X197695365Y-129315360D01*
X197673285Y-129345348D01*
X197456830Y-129561803D01*
X197395507Y-129595288D01*
X197325815Y-129590304D01*
X197269882Y-129548432D01*
X197245465Y-129482968D01*
X197249373Y-129442033D01*
X197285638Y-129306692D01*
X197305471Y-129080000D01*
X197285638Y-128853308D01*
X197226742Y-128633504D01*
X197130571Y-128427266D01*
X197000050Y-128240861D01*
X197000048Y-128240858D01*
X196839144Y-128079954D01*
X196652737Y-127949432D01*
X196652735Y-127949431D01*
X196446500Y-127853261D01*
X196446491Y-127853258D01*
X196226700Y-127794366D01*
X196226696Y-127794365D01*
X196226695Y-127794365D01*
X196226694Y-127794364D01*
X196226689Y-127794364D01*
X196000005Y-127774532D01*
X196000001Y-127774532D01*
X195773316Y-127794364D01*
X195773305Y-127794366D01*
X195553514Y-127853258D01*
X195553505Y-127853261D01*
X195347270Y-127949431D01*
X195347268Y-127949432D01*
X195160861Y-128079954D01*
X194999957Y-128240858D01*
X194869435Y-128427265D01*
X194869434Y-128427267D01*
X194773264Y-128633502D01*
X194773261Y-128633511D01*
X194714369Y-128853302D01*
X194714367Y-128853313D01*
X194694535Y-129079998D01*
X194694535Y-129080003D01*
X194709132Y-129246861D01*
X194695365Y-129315360D01*
X194673285Y-129345348D01*
X193305454Y-130713181D01*
X193244131Y-130746666D01*
X193217773Y-130749500D01*
X184161083Y-130749500D01*
X184016095Y-130778340D01*
X184016085Y-130778343D01*
X183879514Y-130834912D01*
X183879507Y-130834916D01*
X183876890Y-130836665D01*
X183847156Y-130856533D01*
X183756582Y-130917051D01*
X182087365Y-132586268D01*
X182026042Y-132619753D01*
X181979275Y-132620896D01*
X181851052Y-132599500D01*
X181618954Y-132599500D01*
X181580553Y-132605908D01*
X181390018Y-132637702D01*
X181170507Y-132713061D01*
X181170498Y-132713064D01*
X180966374Y-132823531D01*
X180966368Y-132823535D01*
X180783225Y-132966081D01*
X180783222Y-132966084D01*
X180783219Y-132966086D01*
X180783219Y-132966087D01*
X180683419Y-133074500D01*
X180626018Y-133136854D01*
X180589126Y-133193322D01*
X180535980Y-133238678D01*
X180485318Y-133249500D01*
X177757229Y-133249500D01*
X177690190Y-133229815D01*
X177669548Y-133213181D01*
X172396076Y-127939708D01*
X172362591Y-127878385D01*
X172367575Y-127808693D01*
X172409447Y-127752760D01*
X172474911Y-127728343D01*
X172504167Y-127729718D01*
X172625710Y-127750000D01*
X172874296Y-127750000D01*
X173119496Y-127709083D01*
X173354606Y-127628369D01*
X173354617Y-127628364D01*
X173573231Y-127510057D01*
X173573234Y-127510055D01*
X173620059Y-127473609D01*
X172920237Y-126773787D01*
X172962295Y-126762518D01*
X173087711Y-126690110D01*
X173190113Y-126587708D01*
X173262521Y-126462292D01*
X173273790Y-126420235D01*
X173973437Y-127119882D01*
X174073734Y-126966369D01*
X174173590Y-126738717D01*
X174234615Y-126497738D01*
X174234617Y-126497729D01*
X174255144Y-126250005D01*
X174255144Y-126249994D01*
X174234617Y-126002270D01*
X174234615Y-126002261D01*
X174173590Y-125761282D01*
X174073734Y-125533630D01*
X173973437Y-125380116D01*
X173273790Y-126079764D01*
X173262521Y-126037708D01*
X173190113Y-125912292D01*
X173087711Y-125809890D01*
X172962295Y-125737482D01*
X172920238Y-125726212D01*
X173604631Y-125041819D01*
X173665954Y-125008334D01*
X173692312Y-125005500D01*
X178307694Y-125005500D01*
X178374733Y-125025185D01*
X178395375Y-125041819D01*
X179079768Y-125726212D01*
X179037711Y-125737482D01*
X178912295Y-125809890D01*
X178809893Y-125912292D01*
X178737485Y-126037708D01*
X178726215Y-126079764D01*
X178026567Y-125380116D01*
X177926270Y-125533632D01*
X177826415Y-125761282D01*
X177765390Y-126002261D01*
X177765388Y-126002270D01*
X177744862Y-126249994D01*
X177744862Y-126250005D01*
X177765388Y-126497729D01*
X177765390Y-126497738D01*
X177826415Y-126738717D01*
X177926269Y-126966364D01*
X178026567Y-127119882D01*
X178726215Y-126420234D01*
X178737485Y-126462292D01*
X178809893Y-126587708D01*
X178912295Y-126690110D01*
X179037711Y-126762518D01*
X179079768Y-126773787D01*
X178379945Y-127473609D01*
X178426771Y-127510055D01*
X178426773Y-127510056D01*
X178645388Y-127628364D01*
X178645399Y-127628369D01*
X178880509Y-127709083D01*
X179125710Y-127750000D01*
X179374296Y-127750000D01*
X179619496Y-127709083D01*
X179854606Y-127628369D01*
X179854617Y-127628364D01*
X180073231Y-127510057D01*
X180073234Y-127510055D01*
X180120059Y-127473609D01*
X179420237Y-126773787D01*
X179462295Y-126762518D01*
X179587711Y-126690110D01*
X179690113Y-126587708D01*
X179762521Y-126462292D01*
X179773790Y-126420234D01*
X180473437Y-127119882D01*
X180573734Y-126966369D01*
X180673590Y-126738717D01*
X180734615Y-126497738D01*
X180734617Y-126497729D01*
X180755144Y-126250005D01*
X180755144Y-126249994D01*
X180734617Y-126002270D01*
X180734615Y-126002261D01*
X180673590Y-125761282D01*
X180573734Y-125533630D01*
X180473437Y-125380116D01*
X179773790Y-126079764D01*
X179762521Y-126037708D01*
X179690113Y-125912292D01*
X179587711Y-125809890D01*
X179462295Y-125737482D01*
X179420238Y-125726212D01*
X180104631Y-125041819D01*
X180165954Y-125008334D01*
X180192312Y-125005500D01*
X188678920Y-125005500D01*
X188776462Y-124986096D01*
X188823913Y-124976658D01*
X188960495Y-124920084D01*
X189009729Y-124887186D01*
X189083416Y-124837952D01*
X191832954Y-122088413D01*
X191863932Y-122042051D01*
X191915087Y-121965492D01*
X191971661Y-121828910D01*
X191990792Y-121732734D01*
X192000503Y-121683917D01*
X192000503Y-120294136D01*
X192020188Y-120227097D01*
X192072992Y-120181342D01*
X192142150Y-120171398D01*
X192156585Y-120174358D01*
X192273311Y-120205635D01*
X192435233Y-120219801D01*
X192500001Y-120225468D01*
X192500003Y-120225468D01*
X192500005Y-120225468D01*
X192556676Y-120220509D01*
X192726695Y-120205635D01*
X192946499Y-120146739D01*
X193152737Y-120050568D01*
X193339142Y-119920047D01*
X193500050Y-119759139D01*
X193630571Y-119572734D01*
X193726742Y-119366496D01*
X193785638Y-119146692D01*
X193805471Y-118920000D01*
X193790872Y-118753137D01*
X193804638Y-118684639D01*
X193826716Y-118654653D01*
X197045473Y-115435895D01*
X197106794Y-115402412D01*
X197143722Y-115401505D01*
X197143841Y-115400076D01*
X197148949Y-115400499D01*
X197148954Y-115400500D01*
X197148959Y-115400500D01*
X197381051Y-115400500D01*
X197381052Y-115400500D01*
X197609984Y-115362298D01*
X197829506Y-115286936D01*
X198033629Y-115176470D01*
X198053688Y-115160858D01*
X198160939Y-115077381D01*
X198216787Y-115033913D01*
X198373982Y-114863153D01*
X198500927Y-114668849D01*
X198594160Y-114456300D01*
X198651137Y-114231305D01*
X198651230Y-114230185D01*
X198670303Y-114000006D01*
X198670303Y-113999993D01*
X198651138Y-113768702D01*
X198651136Y-113768691D01*
X198594160Y-113543699D01*
X198500927Y-113331151D01*
X198373986Y-113136852D01*
X198373983Y-113136849D01*
X198373982Y-113136847D01*
X198216787Y-112966087D01*
X198216782Y-112966083D01*
X198216780Y-112966081D01*
X198033637Y-112823535D01*
X198033631Y-112823531D01*
X197829507Y-112713064D01*
X197829498Y-112713061D01*
X197609987Y-112637702D01*
X197419453Y-112605908D01*
X197381052Y-112599500D01*
X197148954Y-112599500D01*
X197110553Y-112605908D01*
X196920018Y-112637702D01*
X196700507Y-112713061D01*
X196700498Y-112713064D01*
X196496374Y-112823531D01*
X196496368Y-112823535D01*
X196313225Y-112966081D01*
X196313221Y-112966085D01*
X196313219Y-112966086D01*
X196313219Y-112966087D01*
X196304873Y-112975154D01*
X196304869Y-112975158D01*
X196244982Y-113011148D01*
X196175144Y-113009047D01*
X196117528Y-112969522D01*
X196097458Y-112934507D01*
X196068800Y-112857671D01*
X196068796Y-112857664D01*
X195982550Y-112742455D01*
X195982547Y-112742452D01*
X195867338Y-112656206D01*
X195867331Y-112656202D01*
X195732485Y-112605908D01*
X195732486Y-112605908D01*
X195672886Y-112599501D01*
X195672884Y-112599500D01*
X195672876Y-112599500D01*
X195672867Y-112599500D01*
X193777132Y-112599500D01*
X193777126Y-112599501D01*
X193717519Y-112605908D01*
X193582674Y-112656202D01*
X193582667Y-112656206D01*
X193467458Y-112742452D01*
X193467455Y-112742455D01*
X193381209Y-112857664D01*
X193381205Y-112857671D01*
X193330911Y-112992517D01*
X193325681Y-113041166D01*
X193324504Y-113052123D01*
X193324503Y-113052135D01*
X193324503Y-114287770D01*
X193304818Y-114354809D01*
X193288184Y-114375451D01*
X190667051Y-116996583D01*
X190656672Y-117012118D01*
X190624879Y-117059701D01*
X190584917Y-117119507D01*
X190584916Y-117119509D01*
X190528346Y-117256082D01*
X190528343Y-117256092D01*
X190499503Y-117401079D01*
X190499503Y-117794037D01*
X190479818Y-117861076D01*
X190427014Y-117906831D01*
X190357856Y-117916775D01*
X190304380Y-117895612D01*
X190152737Y-117789432D01*
X190152735Y-117789431D01*
X189946500Y-117693261D01*
X189946491Y-117693258D01*
X189726700Y-117634366D01*
X189726696Y-117634365D01*
X189726695Y-117634365D01*
X189726694Y-117634364D01*
X189726689Y-117634364D01*
X189500005Y-117614532D01*
X189500000Y-117614532D01*
X189333140Y-117629129D01*
X189264640Y-117615362D01*
X189234653Y-117593282D01*
X189021822Y-117380451D01*
X188988337Y-117319128D01*
X188985503Y-117292770D01*
X188985503Y-115251198D01*
X189005188Y-115184159D01*
X189033341Y-115153344D01*
X189186787Y-115033913D01*
X189195514Y-115024432D01*
X189255397Y-114988441D01*
X189325235Y-114990538D01*
X189382853Y-115030060D01*
X189402927Y-115065080D01*
X189431648Y-115142086D01*
X189431652Y-115142093D01*
X189517812Y-115257187D01*
X189517815Y-115257190D01*
X189632909Y-115343350D01*
X189632916Y-115343354D01*
X189767623Y-115393596D01*
X189767630Y-115393598D01*
X189827158Y-115399999D01*
X189827175Y-115400000D01*
X190525003Y-115400000D01*
X190525003Y-114375277D01*
X190601309Y-114419333D01*
X190715759Y-114450000D01*
X190834247Y-114450000D01*
X190948697Y-114419333D01*
X191025003Y-114375277D01*
X191025003Y-115400000D01*
X191722831Y-115400000D01*
X191722847Y-115399999D01*
X191782375Y-115393598D01*
X191782382Y-115393596D01*
X191917089Y-115343354D01*
X191917096Y-115343350D01*
X192032190Y-115257190D01*
X192032193Y-115257187D01*
X192118353Y-115142093D01*
X192118357Y-115142086D01*
X192168599Y-115007379D01*
X192168601Y-115007372D01*
X192175002Y-114947844D01*
X192175003Y-114947827D01*
X192175003Y-114250000D01*
X191150281Y-114250000D01*
X191194336Y-114173694D01*
X191225003Y-114059244D01*
X191225003Y-113940756D01*
X191194336Y-113826306D01*
X191150281Y-113750000D01*
X192175003Y-113750000D01*
X192175003Y-113052172D01*
X192175002Y-113052155D01*
X192168601Y-112992627D01*
X192168599Y-112992620D01*
X192118357Y-112857913D01*
X192118353Y-112857906D01*
X192032193Y-112742812D01*
X192032190Y-112742809D01*
X191917096Y-112656649D01*
X191917089Y-112656645D01*
X191782382Y-112606403D01*
X191782375Y-112606401D01*
X191722847Y-112600000D01*
X191025003Y-112600000D01*
X191025003Y-113624722D01*
X190948697Y-113580667D01*
X190834247Y-113550000D01*
X190715759Y-113550000D01*
X190601309Y-113580667D01*
X190525003Y-113624722D01*
X190525003Y-112600000D01*
X189827158Y-112600000D01*
X189767630Y-112606401D01*
X189767623Y-112606403D01*
X189632916Y-112656645D01*
X189632909Y-112656649D01*
X189517815Y-112742809D01*
X189517812Y-112742812D01*
X189431652Y-112857906D01*
X189431649Y-112857911D01*
X189402927Y-112934920D01*
X189361055Y-112990853D01*
X189295591Y-113015270D01*
X189227318Y-113000418D01*
X189195517Y-112975571D01*
X189186787Y-112966087D01*
X189186782Y-112966083D01*
X189186780Y-112966081D01*
X189003637Y-112823535D01*
X189003631Y-112823531D01*
X188799507Y-112713064D01*
X188799498Y-112713061D01*
X188579987Y-112637702D01*
X188389453Y-112605908D01*
X188351052Y-112599500D01*
X188118954Y-112599500D01*
X188080553Y-112605908D01*
X187890018Y-112637702D01*
X187670507Y-112713061D01*
X187670498Y-112713064D01*
X187466374Y-112823531D01*
X187466368Y-112823535D01*
X187283225Y-112966081D01*
X187283222Y-112966084D01*
X187283219Y-112966086D01*
X187283219Y-112966087D01*
X187251615Y-113000418D01*
X187126019Y-113136852D01*
X186999078Y-113331151D01*
X186905845Y-113543699D01*
X186848869Y-113768691D01*
X186848867Y-113768702D01*
X186829703Y-113999993D01*
X186829703Y-114000006D01*
X186848867Y-114231297D01*
X186848869Y-114231308D01*
X186905845Y-114456300D01*
X186999078Y-114668848D01*
X187126019Y-114863147D01*
X187126022Y-114863151D01*
X187126024Y-114863153D01*
X187283219Y-115033913D01*
X187436665Y-115153344D01*
X187477478Y-115210055D01*
X187484503Y-115251198D01*
X187484503Y-117728922D01*
X187491919Y-117766204D01*
X187485692Y-117835795D01*
X187442829Y-117890973D01*
X187376939Y-117914217D01*
X187308942Y-117898149D01*
X187299180Y-117891971D01*
X187170293Y-117801725D01*
X187152737Y-117789432D01*
X187095756Y-117762861D01*
X186946500Y-117693261D01*
X186946491Y-117693258D01*
X186726700Y-117634366D01*
X186726696Y-117634365D01*
X186726695Y-117634365D01*
X186726694Y-117634364D01*
X186726689Y-117634364D01*
X186500005Y-117614532D01*
X186499998Y-117614532D01*
X186475669Y-117616660D01*
X186407169Y-117602892D01*
X186377183Y-117580813D01*
X184408551Y-115612180D01*
X184375066Y-115550857D01*
X184380050Y-115481165D01*
X184421922Y-115425232D01*
X184487386Y-115400815D01*
X184496232Y-115400499D01*
X185222874Y-115400499D01*
X185222875Y-115400499D01*
X185282486Y-115394091D01*
X185417334Y-115343796D01*
X185532549Y-115257546D01*
X185618799Y-115142331D01*
X185669094Y-115007483D01*
X185675503Y-114947873D01*
X185675502Y-113052128D01*
X185669899Y-113000006D01*
X185669094Y-112992516D01*
X185618800Y-112857671D01*
X185618796Y-112857664D01*
X185532550Y-112742455D01*
X185532547Y-112742452D01*
X185417338Y-112656206D01*
X185417331Y-112656202D01*
X185356170Y-112633391D01*
X185300236Y-112591520D01*
X185275819Y-112526056D01*
X185275503Y-112517209D01*
X185275503Y-110256456D01*
X185275502Y-110256454D01*
X185237056Y-110063175D01*
X185237055Y-110063174D01*
X185237054Y-110063165D01*
X185234392Y-110056739D01*
X185202644Y-109980092D01*
X185161635Y-109881086D01*
X185148259Y-109861067D01*
X185052143Y-109717219D01*
X184992062Y-109657138D01*
X184912785Y-109577861D01*
X184912784Y-109577860D01*
X184502604Y-109167680D01*
X184469119Y-109106357D01*
X184474103Y-109036665D01*
X184502604Y-108992318D01*
X184615108Y-108879815D01*
X184955227Y-108539696D01*
X185128105Y-108366819D01*
X185189428Y-108333334D01*
X185215786Y-108330500D01*
X185220468Y-108330500D01*
X185287507Y-108350185D01*
X185333262Y-108402989D01*
X185343206Y-108472147D01*
X185332850Y-108506905D01*
X185273737Y-108633673D01*
X185273733Y-108633682D01*
X185214863Y-108853389D01*
X185214861Y-108853400D01*
X185195037Y-109079997D01*
X185195037Y-109080002D01*
X185214861Y-109306599D01*
X185214863Y-109306610D01*
X185273733Y-109526317D01*
X185273738Y-109526331D01*
X185369866Y-109732478D01*
X185420977Y-109805472D01*
X186100003Y-109126446D01*
X186100003Y-109132661D01*
X186127262Y-109234394D01*
X186179923Y-109325606D01*
X186254397Y-109400080D01*
X186345609Y-109452741D01*
X186447342Y-109480000D01*
X186453556Y-109480000D01*
X185774529Y-110159025D01*
X185847516Y-110210132D01*
X185847524Y-110210136D01*
X186053671Y-110306264D01*
X186053685Y-110306269D01*
X186273392Y-110365139D01*
X186273403Y-110365141D01*
X186500001Y-110384966D01*
X186500005Y-110384966D01*
X186726602Y-110365141D01*
X186726613Y-110365139D01*
X186946320Y-110306269D01*
X186946334Y-110306264D01*
X187152481Y-110210136D01*
X187225474Y-110159024D01*
X186546450Y-109480000D01*
X186552664Y-109480000D01*
X186654397Y-109452741D01*
X186745609Y-109400080D01*
X186820083Y-109325606D01*
X186872744Y-109234394D01*
X186900003Y-109132661D01*
X186900003Y-109126447D01*
X187579027Y-109805471D01*
X187630139Y-109732478D01*
X187726267Y-109526331D01*
X187726272Y-109526317D01*
X187785142Y-109306610D01*
X187785144Y-109306599D01*
X187804327Y-109087328D01*
X187829779Y-109022259D01*
X187886370Y-108981281D01*
X187956132Y-108977402D01*
X188015536Y-109010454D01*
X188173114Y-109168032D01*
X188206599Y-109229355D01*
X188208961Y-109244903D01*
X188214367Y-109306688D01*
X188214369Y-109306697D01*
X188273261Y-109526488D01*
X188273264Y-109526497D01*
X188369434Y-109732732D01*
X188369435Y-109732734D01*
X188499957Y-109919141D01*
X188660861Y-110080045D01*
X188660864Y-110080047D01*
X188847269Y-110210568D01*
X189053507Y-110306739D01*
X189273311Y-110365635D01*
X189435233Y-110379801D01*
X189500001Y-110385468D01*
X189500003Y-110385468D01*
X189500005Y-110385468D01*
X189556787Y-110380500D01*
X189726695Y-110365635D01*
X189946499Y-110306739D01*
X190152737Y-110210568D01*
X190306468Y-110102924D01*
X190372674Y-110080598D01*
X190377591Y-110080500D01*
X191622415Y-110080500D01*
X191689454Y-110100185D01*
X191693526Y-110102917D01*
X191847269Y-110210568D01*
X192053507Y-110306739D01*
X192273311Y-110365635D01*
X192435233Y-110379801D01*
X192500001Y-110385468D01*
X192500003Y-110385468D01*
X192500005Y-110385468D01*
X192556787Y-110380500D01*
X192726695Y-110365635D01*
X192946499Y-110306739D01*
X193152737Y-110210568D01*
X193339142Y-110080047D01*
X193500050Y-109919139D01*
X193630571Y-109732734D01*
X193726742Y-109526496D01*
X193785638Y-109306692D01*
X193791043Y-109244905D01*
X193816495Y-109179838D01*
X193826882Y-109168040D01*
X194635846Y-108359077D01*
X194697168Y-108325593D01*
X194766860Y-108330577D01*
X194822793Y-108372449D01*
X194847210Y-108437913D01*
X194835908Y-108499164D01*
X194773265Y-108633502D01*
X194773261Y-108633511D01*
X194714369Y-108853302D01*
X194714367Y-108853313D01*
X194694535Y-109079998D01*
X194694535Y-109080001D01*
X194714367Y-109306686D01*
X194714369Y-109306697D01*
X194773261Y-109526488D01*
X194773264Y-109526497D01*
X194869434Y-109732732D01*
X194869435Y-109732734D01*
X194999957Y-109919141D01*
X195160861Y-110080045D01*
X195160864Y-110080047D01*
X195347269Y-110210568D01*
X195553507Y-110306739D01*
X195773311Y-110365635D01*
X195935233Y-110379801D01*
X196000001Y-110385468D01*
X196000003Y-110385468D01*
X196000004Y-110385468D01*
X196028292Y-110382993D01*
X196166864Y-110370869D01*
X196235362Y-110384635D01*
X196265351Y-110406716D01*
X199163184Y-113304548D01*
X199196669Y-113365871D01*
X199199503Y-113392229D01*
X199199503Y-113745136D01*
X199209585Y-113858548D01*
X199262765Y-114044405D01*
X199305367Y-114125962D01*
X199352269Y-114215751D01*
X199377602Y-114246819D01*
X199474431Y-114365571D01*
X199536854Y-114416470D01*
X199624252Y-114487734D01*
X199795597Y-114577237D01*
X199981451Y-114630417D01*
X200094865Y-114640500D01*
X200094873Y-114640500D01*
X200849205Y-114640500D01*
X200916244Y-114660185D01*
X200961999Y-114712989D01*
X200971998Y-114758953D01*
X200972781Y-114758889D01*
X200992364Y-114995218D01*
X201049320Y-115220135D01*
X201142518Y-115432606D01*
X201226815Y-115561632D01*
X201935864Y-114852583D01*
X201958670Y-114937694D01*
X202017913Y-115040306D01*
X202101697Y-115124090D01*
X202204309Y-115183333D01*
X202289417Y-115206138D01*
X201579204Y-115916351D01*
X201609652Y-115940050D01*
X201813700Y-116050476D01*
X201813709Y-116050479D01*
X202033142Y-116125811D01*
X202261996Y-116164000D01*
X202494010Y-116164000D01*
X202722863Y-116125811D01*
X202942296Y-116050479D01*
X202942304Y-116050476D01*
X203146358Y-115940047D01*
X203176800Y-115916351D01*
X203176801Y-115916350D01*
X202466588Y-115206137D01*
X202551697Y-115183333D01*
X202654309Y-115124090D01*
X202738093Y-115040306D01*
X202797336Y-114937694D01*
X202820141Y-114852585D01*
X203529189Y-115561633D01*
X203613485Y-115432611D01*
X203706685Y-115220135D01*
X203763640Y-114995224D01*
X203778174Y-114819822D01*
X203803328Y-114754637D01*
X203859730Y-114713398D01*
X203929473Y-114709200D01*
X203990415Y-114743373D01*
X204023207Y-114805070D01*
X204025327Y-114819821D01*
X204039867Y-114995296D01*
X204039869Y-114995308D01*
X204096845Y-115220300D01*
X204190078Y-115432848D01*
X204317019Y-115627147D01*
X204317022Y-115627151D01*
X204317024Y-115627153D01*
X204474219Y-115797913D01*
X204474222Y-115797915D01*
X204474225Y-115797918D01*
X204657368Y-115940464D01*
X204657374Y-115940468D01*
X204657377Y-115940470D01*
X204824863Y-116031109D01*
X204860655Y-116050479D01*
X204861500Y-116050936D01*
X204975490Y-116090068D01*
X205081018Y-116126297D01*
X205081020Y-116126297D01*
X205081022Y-116126298D01*
X205309954Y-116164500D01*
X205309955Y-116164500D01*
X205542051Y-116164500D01*
X205542052Y-116164500D01*
X205770984Y-116126298D01*
X205875435Y-116090440D01*
X205968462Y-116058504D01*
X206038261Y-116055354D01*
X206098682Y-116090440D01*
X206130543Y-116152623D01*
X206123727Y-116222159D01*
X206096406Y-116263466D01*
X204476692Y-117883181D01*
X204415369Y-117916666D01*
X204389011Y-117919500D01*
X202877591Y-117919500D01*
X202810552Y-117899815D01*
X202806468Y-117897075D01*
X202797753Y-117890973D01*
X202652737Y-117789432D01*
X202595756Y-117762861D01*
X202446500Y-117693261D01*
X202446491Y-117693258D01*
X202226700Y-117634366D01*
X202226696Y-117634365D01*
X202226695Y-117634365D01*
X202226694Y-117634364D01*
X202226689Y-117634364D01*
X202000005Y-117614532D01*
X202000001Y-117614532D01*
X201773316Y-117634364D01*
X201773305Y-117634366D01*
X201553514Y-117693258D01*
X201553505Y-117693261D01*
X201347270Y-117789431D01*
X201347268Y-117789432D01*
X201244950Y-117861076D01*
X201202253Y-117890973D01*
X201193538Y-117897075D01*
X201127332Y-117919402D01*
X201122415Y-117919500D01*
X199877591Y-117919500D01*
X199810552Y-117899815D01*
X199806468Y-117897075D01*
X199797753Y-117890973D01*
X199652737Y-117789432D01*
X199595756Y-117762861D01*
X199446500Y-117693261D01*
X199446491Y-117693258D01*
X199226700Y-117634366D01*
X199226696Y-117634365D01*
X199226695Y-117634365D01*
X199226694Y-117634364D01*
X199226689Y-117634364D01*
X199000005Y-117614532D01*
X199000001Y-117614532D01*
X198773316Y-117634364D01*
X198773305Y-117634366D01*
X198553514Y-117693258D01*
X198553505Y-117693261D01*
X198347270Y-117789431D01*
X198347268Y-117789432D01*
X198160861Y-117919954D01*
X197999957Y-118080858D01*
X197869435Y-118267265D01*
X197869434Y-118267267D01*
X197773264Y-118473502D01*
X197773261Y-118473511D01*
X197714369Y-118693302D01*
X197714367Y-118693311D01*
X197708961Y-118755095D01*
X197683507Y-118820163D01*
X197673114Y-118831966D01*
X197515536Y-118989544D01*
X197454213Y-119023029D01*
X197384521Y-119018045D01*
X197328588Y-118976173D01*
X197304327Y-118912670D01*
X197285144Y-118693400D01*
X197285142Y-118693389D01*
X197226272Y-118473682D01*
X197226267Y-118473668D01*
X197130139Y-118267521D01*
X197130135Y-118267513D01*
X197079028Y-118194526D01*
X196400003Y-118873552D01*
X196400003Y-118867339D01*
X196372744Y-118765606D01*
X196320083Y-118674394D01*
X196245609Y-118599920D01*
X196154397Y-118547259D01*
X196052664Y-118520000D01*
X196046451Y-118520000D01*
X196725475Y-117840974D01*
X196652481Y-117789863D01*
X196446334Y-117693735D01*
X196446320Y-117693730D01*
X196226613Y-117634860D01*
X196226602Y-117634858D01*
X196000005Y-117615034D01*
X196000001Y-117615034D01*
X195773403Y-117634858D01*
X195773392Y-117634860D01*
X195553685Y-117693730D01*
X195553676Y-117693734D01*
X195347519Y-117789866D01*
X195347515Y-117789868D01*
X195274529Y-117840973D01*
X195274529Y-117840974D01*
X195953556Y-118520000D01*
X195947342Y-118520000D01*
X195845609Y-118547259D01*
X195754397Y-118599920D01*
X195679923Y-118674394D01*
X195627262Y-118765606D01*
X195600003Y-118867339D01*
X195600003Y-118873552D01*
X194920977Y-118194526D01*
X194920976Y-118194526D01*
X194869871Y-118267512D01*
X194869869Y-118267516D01*
X194773737Y-118473673D01*
X194773733Y-118473682D01*
X194714863Y-118693389D01*
X194714861Y-118693400D01*
X194695037Y-118919997D01*
X194695037Y-118920002D01*
X194714861Y-119146599D01*
X194714863Y-119146610D01*
X194773733Y-119366317D01*
X194773738Y-119366331D01*
X194869866Y-119572478D01*
X194920977Y-119645472D01*
X195600003Y-118966446D01*
X195600003Y-118972661D01*
X195627262Y-119074394D01*
X195679923Y-119165606D01*
X195754397Y-119240080D01*
X195845609Y-119292741D01*
X195947342Y-119320000D01*
X195953556Y-119320000D01*
X195274529Y-119999025D01*
X195347516Y-120050132D01*
X195347524Y-120050136D01*
X195553671Y-120146264D01*
X195553685Y-120146269D01*
X195773392Y-120205139D01*
X195773403Y-120205141D01*
X195992673Y-120224324D01*
X196057742Y-120249776D01*
X196098720Y-120306367D01*
X196102599Y-120376129D01*
X196069547Y-120435533D01*
X192885084Y-123619998D01*
X191862224Y-124642858D01*
X191862221Y-124642861D01*
X191821157Y-124683925D01*
X191722862Y-124782219D01*
X191613374Y-124946079D01*
X191613369Y-124946089D01*
X191560041Y-125074831D01*
X191560042Y-125074832D01*
X191542300Y-125117669D01*
X191542298Y-125117673D01*
X191537953Y-125128161D01*
X191537949Y-125128175D01*
X191499503Y-125321454D01*
X191499503Y-127955500D01*
X191479818Y-128022539D01*
X191427014Y-128068294D01*
X191375503Y-128079500D01*
X190377591Y-128079500D01*
X190310552Y-128059815D01*
X190306468Y-128057075D01*
X190257145Y-128022539D01*
X190152737Y-127949432D01*
X190131884Y-127939708D01*
X189946500Y-127853261D01*
X189946491Y-127853258D01*
X189726700Y-127794366D01*
X189726691Y-127794364D01*
X189664906Y-127788958D01*
X189599838Y-127763504D01*
X189588035Y-127753111D01*
X188534212Y-126699289D01*
X188534209Y-126699285D01*
X188534209Y-126699286D01*
X188527142Y-126692219D01*
X188527142Y-126692218D01*
X188387785Y-126552861D01*
X188387784Y-126552860D01*
X188387783Y-126552859D01*
X188223923Y-126443371D01*
X188223910Y-126443364D01*
X188068309Y-126378913D01*
X188068308Y-126378913D01*
X188041837Y-126367948D01*
X188041832Y-126367946D01*
X187945191Y-126348724D01*
X187848547Y-126329500D01*
X187848544Y-126329500D01*
X184651462Y-126329500D01*
X184651458Y-126329500D01*
X184554815Y-126348724D01*
X184458173Y-126367946D01*
X184458168Y-126367948D01*
X184431698Y-126378913D01*
X184431697Y-126378913D01*
X184276095Y-126443364D01*
X184276082Y-126443371D01*
X184194365Y-126497974D01*
X184112219Y-126552861D01*
X182911969Y-127753111D01*
X182850646Y-127786596D01*
X182835098Y-127788958D01*
X182773310Y-127794365D01*
X182553514Y-127853258D01*
X182553505Y-127853261D01*
X182347270Y-127949431D01*
X182347268Y-127949432D01*
X182160861Y-128079954D01*
X181999957Y-128240858D01*
X181869435Y-128427265D01*
X181869434Y-128427267D01*
X181773264Y-128633502D01*
X181773261Y-128633511D01*
X181714369Y-128853302D01*
X181714367Y-128853313D01*
X181694535Y-129079998D01*
X181694535Y-129080001D01*
X181714367Y-129306686D01*
X181714369Y-129306697D01*
X181773261Y-129526488D01*
X181773264Y-129526497D01*
X181869434Y-129732732D01*
X181869435Y-129732734D01*
X181999957Y-129919141D01*
X182160861Y-130080045D01*
X182160864Y-130080047D01*
X182347269Y-130210568D01*
X182553507Y-130306739D01*
X182773311Y-130365635D01*
X182935233Y-130379801D01*
X183000001Y-130385468D01*
X183000003Y-130385468D01*
X183000005Y-130385468D01*
X183056676Y-130380509D01*
X183226695Y-130365635D01*
X183446499Y-130306739D01*
X183652737Y-130210568D01*
X183839142Y-130080047D01*
X184000050Y-129919139D01*
X184130571Y-129732734D01*
X184226742Y-129526496D01*
X184285638Y-129306692D01*
X184291043Y-129244905D01*
X184316495Y-129179838D01*
X184326882Y-129168040D01*
X185128105Y-128366819D01*
X185189428Y-128333334D01*
X185215786Y-128330500D01*
X185220468Y-128330500D01*
X185287507Y-128350185D01*
X185333262Y-128402989D01*
X185343206Y-128472147D01*
X185332850Y-128506905D01*
X185273737Y-128633673D01*
X185273733Y-128633682D01*
X185214863Y-128853389D01*
X185214861Y-128853400D01*
X185195037Y-129079997D01*
X185195037Y-129080002D01*
X185214861Y-129306599D01*
X185214863Y-129306610D01*
X185273733Y-129526317D01*
X185273738Y-129526331D01*
X185369866Y-129732478D01*
X185420977Y-129805472D01*
X186100003Y-129126446D01*
X186100003Y-129132661D01*
X186127262Y-129234394D01*
X186179923Y-129325606D01*
X186254397Y-129400080D01*
X186345609Y-129452741D01*
X186447342Y-129480000D01*
X186453556Y-129480000D01*
X185774529Y-130159025D01*
X185847516Y-130210132D01*
X185847524Y-130210136D01*
X186053671Y-130306264D01*
X186053685Y-130306269D01*
X186273392Y-130365139D01*
X186273403Y-130365141D01*
X186500001Y-130384966D01*
X186500005Y-130384966D01*
X186726602Y-130365141D01*
X186726613Y-130365139D01*
X186946320Y-130306269D01*
X186946334Y-130306264D01*
X187152481Y-130210136D01*
X187225474Y-130159024D01*
X186546450Y-129480000D01*
X186552664Y-129480000D01*
X186654397Y-129452741D01*
X186745609Y-129400080D01*
X186820083Y-129325606D01*
X186872744Y-129234394D01*
X186900003Y-129132661D01*
X186900003Y-129126447D01*
X187579027Y-129805471D01*
X187630139Y-129732478D01*
X187726267Y-129526331D01*
X187726272Y-129526317D01*
X187785142Y-129306610D01*
X187785144Y-129306599D01*
X187804327Y-129087328D01*
X187829779Y-129022259D01*
X187886370Y-128981281D01*
X187956132Y-128977402D01*
X188015536Y-129010454D01*
X188173114Y-129168032D01*
X188206599Y-129229355D01*
X188208961Y-129244903D01*
X188214367Y-129306688D01*
X188214369Y-129306697D01*
X188273261Y-129526488D01*
X188273264Y-129526497D01*
X188369434Y-129732732D01*
X188369435Y-129732734D01*
X188499957Y-129919141D01*
X188660861Y-130080045D01*
X188660864Y-130080047D01*
X188847269Y-130210568D01*
X189053507Y-130306739D01*
X189273311Y-130365635D01*
X189435233Y-130379801D01*
X189500001Y-130385468D01*
X189500003Y-130385468D01*
X189500005Y-130385468D01*
X189556676Y-130380509D01*
X189726695Y-130365635D01*
X189946499Y-130306739D01*
X190152737Y-130210568D01*
X190306468Y-130102924D01*
X190372674Y-130080598D01*
X190377591Y-130080500D01*
X191622415Y-130080500D01*
X191689454Y-130100185D01*
X191693526Y-130102917D01*
X191847269Y-130210568D01*
X192053507Y-130306739D01*
X192273311Y-130365635D01*
X192435233Y-130379801D01*
X192500001Y-130385468D01*
X192500003Y-130385468D01*
X192500005Y-130385468D01*
X192556676Y-130380509D01*
X192726695Y-130365635D01*
X192946499Y-130306739D01*
X193152737Y-130210568D01*
X193339142Y-130080047D01*
X193500050Y-129919139D01*
X193630571Y-129732734D01*
X193726742Y-129526496D01*
X193785638Y-129306692D01*
X193805471Y-129080000D01*
X193785638Y-128853308D01*
X193726742Y-128633504D01*
X193630571Y-128427266D01*
X193522927Y-128273532D01*
X193500600Y-128207326D01*
X193500503Y-128202410D01*
X193500503Y-125885781D01*
X193520188Y-125818742D01*
X193536817Y-125798105D01*
X199088036Y-120246885D01*
X199149357Y-120213402D01*
X199164901Y-120211041D01*
X199226695Y-120205635D01*
X199446499Y-120146739D01*
X199652737Y-120050568D01*
X199806468Y-119942924D01*
X199872674Y-119920598D01*
X199877591Y-119920500D01*
X201122415Y-119920500D01*
X201189454Y-119940185D01*
X201193526Y-119942917D01*
X201347269Y-120050568D01*
X201553507Y-120146739D01*
X201773311Y-120205635D01*
X201935233Y-120219801D01*
X202000001Y-120225468D01*
X202000003Y-120225468D01*
X202000005Y-120225468D01*
X202056676Y-120220509D01*
X202226695Y-120205635D01*
X202446499Y-120146739D01*
X202652737Y-120050568D01*
X202806468Y-119942924D01*
X202872674Y-119920598D01*
X202877591Y-119920500D01*
X204953335Y-119920500D01*
X204972663Y-119916655D01*
X205049981Y-119901275D01*
X205146629Y-119882051D01*
X205199958Y-119859961D01*
X205328707Y-119806632D01*
X205492575Y-119697139D01*
X205631932Y-119557782D01*
X205631932Y-119557780D01*
X205642140Y-119547573D01*
X205642141Y-119547570D01*
X208454283Y-116735431D01*
X208563775Y-116571564D01*
X208639195Y-116389485D01*
X208677643Y-116196190D01*
X208677643Y-115999109D01*
X208677643Y-111046818D01*
X208677644Y-111046797D01*
X208677644Y-110843600D01*
X208677643Y-110843598D01*
X208662888Y-110769420D01*
X208639195Y-110650308D01*
X208571444Y-110486743D01*
X208563776Y-110468231D01*
X208563771Y-110468222D01*
X208454283Y-110304362D01*
X208454280Y-110304358D01*
X204629209Y-106479289D01*
X204629206Y-106479285D01*
X204629206Y-106479286D01*
X204622139Y-106472219D01*
X204622139Y-106472218D01*
X204482782Y-106332861D01*
X204482781Y-106332860D01*
X204482780Y-106332859D01*
X204318920Y-106223371D01*
X204318911Y-106223366D01*
X204246315Y-106193296D01*
X204190165Y-106170038D01*
X204136836Y-106147949D01*
X204136832Y-106147948D01*
X204136828Y-106147946D01*
X204040188Y-106128724D01*
X203943544Y-106109500D01*
X203943541Y-106109500D01*
X194371462Y-106109500D01*
X194371457Y-106109500D01*
X194339394Y-106115876D01*
X194339395Y-106115877D01*
X194178173Y-106147946D01*
X194178167Y-106147948D01*
X194087128Y-106185658D01*
X193996087Y-106223368D01*
X193996086Y-106223368D01*
X193873048Y-106305579D01*
X193873049Y-106305580D01*
X193832221Y-106332859D01*
X192411969Y-107753111D01*
X192350646Y-107786596D01*
X192335098Y-107788958D01*
X192273310Y-107794365D01*
X192053514Y-107853258D01*
X192053505Y-107853261D01*
X191847270Y-107949431D01*
X191847268Y-107949432D01*
X191744598Y-108021322D01*
X191705499Y-108048700D01*
X191693538Y-108057075D01*
X191627332Y-108079402D01*
X191622415Y-108079500D01*
X190377591Y-108079500D01*
X190310552Y-108059815D01*
X190306468Y-108057075D01*
X190294507Y-108048700D01*
X190152737Y-107949432D01*
X190124123Y-107936089D01*
X189946500Y-107853261D01*
X189946491Y-107853258D01*
X189726700Y-107794366D01*
X189726691Y-107794364D01*
X189664906Y-107788958D01*
X189599838Y-107763504D01*
X189588035Y-107753111D01*
X188534212Y-106699289D01*
X188534209Y-106699285D01*
X188534209Y-106699286D01*
X188527142Y-106692219D01*
X188527142Y-106692218D01*
X188387785Y-106552861D01*
X188387784Y-106552860D01*
X188387783Y-106552859D01*
X188223923Y-106443371D01*
X188223914Y-106443366D01*
X188140686Y-106408892D01*
X188095168Y-106390038D01*
X188068503Y-106378993D01*
X188041840Y-106367949D01*
X188041836Y-106367947D01*
X187900717Y-106339878D01*
X187848546Y-106329500D01*
X187848544Y-106329500D01*
X184651462Y-106329500D01*
X184651460Y-106329500D01*
X184599289Y-106339878D01*
X184599288Y-106339878D01*
X184458170Y-106367947D01*
X184458162Y-106367950D01*
X184404837Y-106390037D01*
X184404837Y-106390038D01*
X184361921Y-106407814D01*
X184276087Y-106443368D01*
X184276086Y-106443368D01*
X184153048Y-106525579D01*
X184153049Y-106525580D01*
X184112221Y-106552859D01*
X182911969Y-107753111D01*
X182850646Y-107786596D01*
X182835098Y-107788958D01*
X182773310Y-107794365D01*
X182553514Y-107853258D01*
X182553505Y-107853261D01*
X182347270Y-107949431D01*
X182347268Y-107949432D01*
X182160861Y-108079954D01*
X181999957Y-108240858D01*
X181869435Y-108427265D01*
X181869434Y-108427267D01*
X181773264Y-108633502D01*
X181773261Y-108633511D01*
X181714369Y-108853302D01*
X181714367Y-108853313D01*
X181694535Y-109079998D01*
X181694535Y-109080001D01*
X181714367Y-109306686D01*
X181714369Y-109306697D01*
X181773261Y-109526488D01*
X181773264Y-109526497D01*
X181869434Y-109732732D01*
X181869435Y-109732734D01*
X181999957Y-109919141D01*
X182160861Y-110080045D01*
X182160864Y-110080047D01*
X182347269Y-110210568D01*
X182553507Y-110306739D01*
X182773311Y-110365635D01*
X182835096Y-110371040D01*
X182900164Y-110396492D01*
X182911969Y-110406887D01*
X183238184Y-110733101D01*
X183271669Y-110794424D01*
X183274503Y-110820782D01*
X183274503Y-112517209D01*
X183254818Y-112584248D01*
X183202014Y-112630003D01*
X183193836Y-112633391D01*
X183132674Y-112656202D01*
X183132667Y-112656206D01*
X183017458Y-112742452D01*
X183017455Y-112742455D01*
X182931209Y-112857664D01*
X182931206Y-112857670D01*
X182902547Y-112934508D01*
X182860675Y-112990441D01*
X182795211Y-113014858D01*
X182726938Y-113000006D01*
X182695138Y-112975158D01*
X182686787Y-112966087D01*
X182686781Y-112966082D01*
X182686780Y-112966081D01*
X182503637Y-112823535D01*
X182503631Y-112823531D01*
X182299507Y-112713064D01*
X182299498Y-112713061D01*
X182079987Y-112637702D01*
X181889453Y-112605908D01*
X181851052Y-112599500D01*
X181618954Y-112599500D01*
X181580553Y-112605908D01*
X181390018Y-112637702D01*
X181170507Y-112713061D01*
X181170498Y-112713064D01*
X180966374Y-112823531D01*
X180966368Y-112823535D01*
X180783225Y-112966081D01*
X180783222Y-112966084D01*
X180783219Y-112966086D01*
X180783219Y-112966087D01*
X180751615Y-113000418D01*
X180626019Y-113136852D01*
X180499078Y-113331151D01*
X180405845Y-113543699D01*
X180348869Y-113768691D01*
X180348867Y-113768702D01*
X180329703Y-113999993D01*
X180329703Y-114000006D01*
X180348867Y-114231297D01*
X180348869Y-114231308D01*
X180405845Y-114456300D01*
X180499078Y-114668848D01*
X180626019Y-114863147D01*
X180626022Y-114863151D01*
X180626024Y-114863153D01*
X180783219Y-115033913D01*
X180783222Y-115033915D01*
X180783225Y-115033918D01*
X180966368Y-115176464D01*
X180966374Y-115176468D01*
X180966377Y-115176470D01*
X181104462Y-115251198D01*
X181154621Y-115278343D01*
X181170500Y-115286936D01*
X181284490Y-115326068D01*
X181390018Y-115362297D01*
X181390020Y-115362297D01*
X181390022Y-115362298D01*
X181618954Y-115400500D01*
X181618955Y-115400500D01*
X181851050Y-115400500D01*
X181851052Y-115400500D01*
X181979277Y-115379102D01*
X182048638Y-115387483D01*
X182087365Y-115413730D01*
X185195987Y-118522352D01*
X185229472Y-118583675D01*
X185228082Y-118642123D01*
X185214369Y-118693304D01*
X185214367Y-118693313D01*
X185194535Y-118919999D01*
X185194535Y-118920003D01*
X185209132Y-119086861D01*
X185195365Y-119155360D01*
X185173285Y-119185348D01*
X183962184Y-120396450D01*
X183900861Y-120429935D01*
X183831169Y-120424951D01*
X183775236Y-120383079D01*
X183750819Y-120317615D01*
X183750503Y-120308769D01*
X183750503Y-120046662D01*
X183770188Y-119979623D01*
X183803382Y-119945086D01*
X183806468Y-119942925D01*
X183839142Y-119920047D01*
X184000050Y-119759139D01*
X184130571Y-119572734D01*
X184226742Y-119366496D01*
X184285638Y-119146692D01*
X184305471Y-118920000D01*
X184304352Y-118907214D01*
X184298180Y-118836666D01*
X184285638Y-118693308D01*
X184226742Y-118473504D01*
X184130571Y-118267266D01*
X184000050Y-118080861D01*
X184000048Y-118080858D01*
X183839144Y-117919954D01*
X183652737Y-117789432D01*
X183652735Y-117789431D01*
X183446500Y-117693261D01*
X183446491Y-117693258D01*
X183226700Y-117634366D01*
X183226696Y-117634365D01*
X183226695Y-117634365D01*
X183226694Y-117634364D01*
X183226689Y-117634364D01*
X183000005Y-117614532D01*
X183000001Y-117614532D01*
X182773316Y-117634364D01*
X182773305Y-117634366D01*
X182553514Y-117693258D01*
X182553505Y-117693261D01*
X182347270Y-117789431D01*
X182347268Y-117789432D01*
X182160861Y-117919954D01*
X181999957Y-118080858D01*
X181869435Y-118267265D01*
X181869434Y-118267267D01*
X181773264Y-118473502D01*
X181773261Y-118473511D01*
X181714369Y-118693302D01*
X181714367Y-118693313D01*
X181694535Y-118919998D01*
X181694535Y-118920001D01*
X181714367Y-119146686D01*
X181714369Y-119146697D01*
X181773261Y-119366488D01*
X181773264Y-119366497D01*
X181869434Y-119572732D01*
X181869435Y-119572734D01*
X181999957Y-119759141D01*
X182160862Y-119920046D01*
X182196624Y-119945086D01*
X182240250Y-119999662D01*
X182249503Y-120046662D01*
X182249503Y-120137770D01*
X182229818Y-120204809D01*
X182213184Y-120225451D01*
X181475454Y-120963181D01*
X181414131Y-120996666D01*
X181387773Y-120999500D01*
X180619139Y-120999500D01*
X180552100Y-120979815D01*
X180515330Y-120943322D01*
X180456524Y-120853313D01*
X180438167Y-120825215D01*
X180269747Y-120642262D01*
X180073512Y-120489526D01*
X180073510Y-120489525D01*
X180073509Y-120489524D01*
X179854814Y-120371172D01*
X179854805Y-120371169D01*
X179619619Y-120290429D01*
X179374338Y-120249500D01*
X179125668Y-120249500D01*
X178880386Y-120290429D01*
X178645200Y-120371169D01*
X178645191Y-120371172D01*
X178426496Y-120489524D01*
X178230260Y-120642261D01*
X178061839Y-120825215D01*
X177984676Y-120943322D01*
X177931529Y-120988678D01*
X177880867Y-120999500D01*
X174119139Y-120999500D01*
X174052100Y-120979815D01*
X174015330Y-120943322D01*
X173956524Y-120853313D01*
X173938167Y-120825215D01*
X173769747Y-120642262D01*
X173573512Y-120489526D01*
X173565480Y-120485179D01*
X173515894Y-120435961D01*
X173500503Y-120376128D01*
X173500503Y-114125962D01*
X174299500Y-114125962D01*
X174316028Y-114230315D01*
X174338910Y-114374785D01*
X174416760Y-114614383D01*
X174488224Y-114754637D01*
X174521437Y-114819822D01*
X174531132Y-114838848D01*
X174679201Y-115042649D01*
X174679205Y-115042654D01*
X174857345Y-115220794D01*
X174857350Y-115220798D01*
X175026645Y-115343797D01*
X175061155Y-115368870D01*
X175155706Y-115417046D01*
X175285616Y-115483239D01*
X175285618Y-115483239D01*
X175285621Y-115483241D01*
X175525215Y-115561090D01*
X175774038Y-115600500D01*
X175774039Y-115600500D01*
X176025961Y-115600500D01*
X176025962Y-115600500D01*
X176274785Y-115561090D01*
X176514379Y-115483241D01*
X176738845Y-115368870D01*
X176942656Y-115220793D01*
X177120793Y-115042656D01*
X177268870Y-114838845D01*
X177383241Y-114614379D01*
X177461090Y-114374785D01*
X177500500Y-114125962D01*
X177500500Y-113874038D01*
X177461090Y-113625215D01*
X177383241Y-113385621D01*
X177383239Y-113385618D01*
X177383239Y-113385616D01*
X177321284Y-113264023D01*
X177268870Y-113161155D01*
X177224365Y-113099899D01*
X177120798Y-112957350D01*
X177120794Y-112957345D01*
X176942654Y-112779205D01*
X176942649Y-112779201D01*
X176738848Y-112631132D01*
X176738847Y-112631131D01*
X176738845Y-112631130D01*
X176646834Y-112584248D01*
X176514383Y-112516760D01*
X176274785Y-112438910D01*
X176231662Y-112432080D01*
X176025962Y-112399500D01*
X175774038Y-112399500D01*
X175649626Y-112419205D01*
X175525214Y-112438910D01*
X175285616Y-112516760D01*
X175061151Y-112631132D01*
X174857350Y-112779201D01*
X174857345Y-112779205D01*
X174679205Y-112957345D01*
X174679201Y-112957350D01*
X174531132Y-113161151D01*
X174416760Y-113385616D01*
X174338910Y-113625214D01*
X174330774Y-113676584D01*
X174299500Y-113874038D01*
X174299500Y-114125962D01*
X173500503Y-114125962D01*
X173500503Y-114041084D01*
X173494766Y-114012245D01*
X173494766Y-114012243D01*
X173479237Y-113934174D01*
X173471662Y-113896091D01*
X173440529Y-113820930D01*
X173431676Y-113799557D01*
X173431666Y-113799536D01*
X173431654Y-113799505D01*
X173415087Y-113759508D01*
X173359679Y-113676584D01*
X173332955Y-113636588D01*
X173332953Y-113636585D01*
X170288549Y-110592181D01*
X170255064Y-110530858D01*
X170260048Y-110461166D01*
X170301920Y-110405233D01*
X170367384Y-110380816D01*
X170376230Y-110380500D01*
X178538920Y-110380500D01*
X178636462Y-110361096D01*
X178683913Y-110351658D01*
X178774967Y-110313942D01*
X178820493Y-110295085D01*
X178820493Y-110295084D01*
X178820495Y-110295084D01*
X178880611Y-110254916D01*
X178880611Y-110254915D01*
X178880613Y-110254915D01*
X178913483Y-110232952D01*
X178943416Y-110212952D01*
X187609548Y-101546818D01*
X187670871Y-101513334D01*
X187697229Y-101510500D01*
X189948920Y-101510500D01*
X190046462Y-101491096D01*
X190093913Y-101481658D01*
X190230495Y-101425084D01*
X190279729Y-101392186D01*
X190353416Y-101342952D01*
X191655199Y-100041167D01*
X191716522Y-100007683D01*
X191786214Y-100012667D01*
X191813999Y-100027272D01*
X191847269Y-100050568D01*
X191847270Y-100050568D01*
X191847270Y-100050569D01*
X191895269Y-100072951D01*
X192053507Y-100146739D01*
X192273311Y-100205635D01*
X192435233Y-100219801D01*
X192500001Y-100225468D01*
X192500003Y-100225468D01*
X192500005Y-100225468D01*
X192556676Y-100220509D01*
X192726695Y-100205635D01*
X192946499Y-100146739D01*
X193152737Y-100050568D01*
X193339142Y-99920047D01*
X193500050Y-99759139D01*
X193630571Y-99572734D01*
X193726742Y-99366496D01*
X193785638Y-99146692D01*
X193805471Y-98920000D01*
X193790872Y-98753137D01*
X193804638Y-98684639D01*
X193826716Y-98654653D01*
X197045473Y-95435895D01*
X197106794Y-95402412D01*
X197143722Y-95401505D01*
X197143841Y-95400076D01*
X197148949Y-95400499D01*
X197148954Y-95400500D01*
X197148959Y-95400500D01*
X197381051Y-95400500D01*
X197381052Y-95400500D01*
X197609984Y-95362298D01*
X197829506Y-95286936D01*
X197831478Y-95285868D01*
X197832375Y-95285677D01*
X197834204Y-95284875D01*
X197834368Y-95285251D01*
X197899805Y-95271271D01*
X197965178Y-95295930D01*
X198006842Y-95352019D01*
X198014500Y-95394921D01*
X198014500Y-95792772D01*
X197994815Y-95859811D01*
X197978181Y-95880453D01*
X196265351Y-97593282D01*
X196204028Y-97626767D01*
X196166864Y-97629129D01*
X196000006Y-97614532D01*
X196000001Y-97614532D01*
X195773316Y-97634364D01*
X195773305Y-97634366D01*
X195553514Y-97693258D01*
X195553505Y-97693261D01*
X195347270Y-97789431D01*
X195347268Y-97789432D01*
X195160861Y-97919954D01*
X194999957Y-98080858D01*
X194869435Y-98267265D01*
X194869434Y-98267267D01*
X194773264Y-98473502D01*
X194773261Y-98473511D01*
X194714369Y-98693302D01*
X194714367Y-98693313D01*
X194694535Y-98919998D01*
X194694535Y-98920001D01*
X194714367Y-99146686D01*
X194714369Y-99146697D01*
X194773261Y-99366488D01*
X194773264Y-99366497D01*
X194869434Y-99572732D01*
X194869435Y-99572734D01*
X194999957Y-99759141D01*
X195160861Y-99920045D01*
X195164600Y-99922663D01*
X195347269Y-100050568D01*
X195553507Y-100146739D01*
X195773311Y-100205635D01*
X195935233Y-100219801D01*
X196000001Y-100225468D01*
X196000003Y-100225468D01*
X196000005Y-100225468D01*
X196056676Y-100220509D01*
X196226695Y-100205635D01*
X196446499Y-100146739D01*
X196652737Y-100050568D01*
X196839142Y-99920047D01*
X197000050Y-99759139D01*
X197130571Y-99572734D01*
X197226742Y-99366496D01*
X197285638Y-99146692D01*
X197305471Y-98920000D01*
X197290872Y-98753137D01*
X197304638Y-98684639D01*
X197326716Y-98654653D01*
X197543177Y-98438192D01*
X197604498Y-98404709D01*
X197674190Y-98409693D01*
X197730123Y-98451565D01*
X197754540Y-98517029D01*
X197750631Y-98557967D01*
X197714370Y-98693299D01*
X197714367Y-98693313D01*
X197694535Y-98919998D01*
X197694535Y-98920001D01*
X197714367Y-99146686D01*
X197714369Y-99146697D01*
X197773261Y-99366488D01*
X197773264Y-99366497D01*
X197869434Y-99572732D01*
X197869435Y-99572734D01*
X197999957Y-99759141D01*
X198160861Y-99920045D01*
X198164600Y-99922663D01*
X198347269Y-100050568D01*
X198553507Y-100146739D01*
X198773311Y-100205635D01*
X198935233Y-100219801D01*
X199000001Y-100225468D01*
X199000003Y-100225468D01*
X199000005Y-100225468D01*
X199056676Y-100220509D01*
X199226695Y-100205635D01*
X199446499Y-100146739D01*
X199652737Y-100050568D01*
X199839142Y-99920047D01*
X200000050Y-99759139D01*
X200130571Y-99572734D01*
X200226742Y-99366496D01*
X200285638Y-99146692D01*
X200305471Y-98920000D01*
X200290872Y-98753137D01*
X200304638Y-98684639D01*
X200326716Y-98654653D01*
X200543177Y-98438192D01*
X200604498Y-98404709D01*
X200674190Y-98409693D01*
X200730123Y-98451565D01*
X200754540Y-98517029D01*
X200750631Y-98557967D01*
X200714370Y-98693299D01*
X200714367Y-98693313D01*
X200694535Y-98919998D01*
X200694535Y-98920001D01*
X200714367Y-99146686D01*
X200714369Y-99146697D01*
X200773261Y-99366488D01*
X200773264Y-99366497D01*
X200869434Y-99572732D01*
X200869435Y-99572734D01*
X200999957Y-99759141D01*
X201160861Y-99920045D01*
X201164600Y-99922663D01*
X201347269Y-100050568D01*
X201553507Y-100146739D01*
X201773311Y-100205635D01*
X201935233Y-100219801D01*
X202000001Y-100225468D01*
X202000003Y-100225468D01*
X202000005Y-100225468D01*
X202056676Y-100220509D01*
X202226695Y-100205635D01*
X202446499Y-100146739D01*
X202652737Y-100050568D01*
X202839142Y-99920047D01*
X203000050Y-99759139D01*
X203130571Y-99572734D01*
X203226742Y-99366496D01*
X203285638Y-99146692D01*
X203305471Y-98920000D01*
X203285638Y-98693308D01*
X203226742Y-98473504D01*
X203130571Y-98267266D01*
X203000050Y-98080861D01*
X202839142Y-97919953D01*
X202829274Y-97913043D01*
X202803378Y-97894910D01*
X202759754Y-97840332D01*
X202750503Y-97793336D01*
X202750503Y-93126084D01*
X202750502Y-93126083D01*
X202738568Y-93066083D01*
X202721662Y-92981091D01*
X202673610Y-92865084D01*
X202665087Y-92844508D01*
X202624995Y-92784506D01*
X202603023Y-92751622D01*
X202582147Y-92684946D01*
X202600632Y-92617566D01*
X202652611Y-92570877D01*
X202721581Y-92559701D01*
X202785645Y-92587587D01*
X202790547Y-92591909D01*
X202973183Y-92761666D01*
X202976444Y-92764810D01*
X203735192Y-93523557D01*
X203738336Y-93526818D01*
X204434972Y-94276306D01*
X204468855Y-94312759D01*
X204471873Y-94316127D01*
X205091756Y-95033915D01*
X205173227Y-95128253D01*
X205176124Y-95131735D01*
X205847337Y-95968919D01*
X205850105Y-95972504D01*
X206490275Y-96833617D01*
X206492911Y-96837300D01*
X207101241Y-97721271D01*
X207103740Y-97725049D01*
X207679347Y-98630597D01*
X207681707Y-98634463D01*
X208223875Y-99560461D01*
X208226091Y-99564411D01*
X208734075Y-100509584D01*
X208736147Y-100513613D01*
X209209282Y-101476728D01*
X209211204Y-101480829D01*
X209648825Y-102460530D01*
X209650597Y-102464699D01*
X210052158Y-103459763D01*
X210053776Y-103463993D01*
X210418734Y-104473072D01*
X210420196Y-104477359D01*
X210748045Y-105499059D01*
X210749350Y-105503396D01*
X210843951Y-105840001D01*
X211032521Y-106510968D01*
X211039671Y-106536407D01*
X211040816Y-106540786D01*
X211282845Y-107540861D01*
X211293216Y-107583712D01*
X211294201Y-107588133D01*
X211508347Y-108639602D01*
X211509169Y-108644056D01*
X211684761Y-109702590D01*
X211685421Y-109707071D01*
X211822244Y-110771367D01*
X211822739Y-110775869D01*
X211920596Y-111844410D01*
X211920927Y-111848928D01*
X211979695Y-112920368D01*
X211979860Y-112924894D01*
X211989636Y-113460001D01*
X211999406Y-113994875D01*
X211999459Y-113997734D01*
X211999459Y-114002244D01*
X211992384Y-114389551D01*
X211979860Y-115075105D01*
X211979695Y-115079631D01*
X211920927Y-116151071D01*
X211920596Y-116155589D01*
X211822739Y-117224130D01*
X211822244Y-117228632D01*
X211685421Y-118292928D01*
X211684761Y-118297409D01*
X211509169Y-119355943D01*
X211508347Y-119360397D01*
X211294201Y-120411866D01*
X211293216Y-120416287D01*
X211040817Y-121459209D01*
X211039671Y-121463592D01*
X210749350Y-122496603D01*
X210748045Y-122500940D01*
X210420196Y-123522640D01*
X210418734Y-123526927D01*
X210053776Y-124536006D01*
X210052158Y-124540236D01*
X209650597Y-125535300D01*
X209648825Y-125539469D01*
X209211204Y-126519170D01*
X209209282Y-126523271D01*
X208736147Y-127486386D01*
X208734075Y-127490415D01*
X208226091Y-128435588D01*
X208223875Y-128439538D01*
X207681707Y-129365536D01*
X207679347Y-129369402D01*
X207103740Y-130274950D01*
X207101241Y-130278728D01*
X206492911Y-131162699D01*
X206490275Y-131166382D01*
X205850105Y-132027495D01*
X205847337Y-132031080D01*
X205176133Y-132868253D01*
X205173236Y-132871735D01*
X204471878Y-133683867D01*
X204468855Y-133687240D01*
X203738336Y-134473181D01*
X203735192Y-134476442D01*
X202976444Y-135235189D01*
X202973183Y-135238333D01*
X202187242Y-135968853D01*
X202183869Y-135971876D01*
X201371738Y-136673234D01*
X201368256Y-136676131D01*
X200531082Y-137347336D01*
X200527497Y-137350104D01*
X199666385Y-137990274D01*
X199662702Y-137992910D01*
X198778730Y-138601240D01*
X198774952Y-138603739D01*
X197869404Y-139179345D01*
X197865538Y-139181705D01*
X196939541Y-139723874D01*
X196935591Y-139726091D01*
X195990407Y-140234080D01*
X195986378Y-140236151D01*
X195023284Y-140709275D01*
X195019183Y-140711197D01*
X194039482Y-141148819D01*
X194035314Y-141150591D01*
X193040230Y-141552161D01*
X193035999Y-141553779D01*
X192026930Y-141918733D01*
X192022643Y-141920195D01*
X191000943Y-142248044D01*
X190996606Y-142249349D01*
X189963595Y-142539671D01*
X189959212Y-142540817D01*
X188916290Y-142793216D01*
X188911869Y-142794201D01*
X187860400Y-143008346D01*
X187855946Y-143009168D01*
X186797412Y-143184760D01*
X186792931Y-143185420D01*
X185728635Y-143322243D01*
X185724133Y-143322738D01*
X184655592Y-143420595D01*
X184651074Y-143420926D01*
X183579634Y-143479695D01*
X183575108Y-143479860D01*
X182501153Y-143499479D01*
X182498888Y-143499500D01*
X107502564Y-143499500D01*
X107497440Y-143499394D01*
X107050985Y-143480929D01*
X107040771Y-143480083D01*
X106599902Y-143425128D01*
X106589793Y-143423441D01*
X106154969Y-143332268D01*
X106145035Y-143329752D01*
X105719232Y-143202986D01*
X105709538Y-143199658D01*
X105295662Y-143038162D01*
X105286277Y-143034046D01*
X104887138Y-142838920D01*
X104878124Y-142834042D01*
X104496456Y-142606617D01*
X104487877Y-142601011D01*
X104126313Y-142342860D01*
X104118225Y-142336565D01*
X103779204Y-142049429D01*
X103771664Y-142042488D01*
X103457513Y-141728337D01*
X103450572Y-141720797D01*
X103163435Y-141381776D01*
X103157140Y-141373688D01*
X102898990Y-141012124D01*
X102893384Y-141003545D01*
X102718629Y-140710269D01*
X102665947Y-140621857D01*
X102661091Y-140612884D01*
X102465953Y-140213724D01*
X102461840Y-140204345D01*
X102446107Y-140164024D01*
X155926669Y-140164024D01*
X155999656Y-140215131D01*
X155999664Y-140215135D01*
X156205811Y-140311263D01*
X156205825Y-140311268D01*
X156425532Y-140370138D01*
X156425543Y-140370140D01*
X156652141Y-140389965D01*
X156652145Y-140389965D01*
X156878742Y-140370140D01*
X156878753Y-140370138D01*
X157098460Y-140311268D01*
X157098474Y-140311263D01*
X157304621Y-140215135D01*
X157377614Y-140164023D01*
X156652143Y-139438552D01*
X155926669Y-140164024D01*
X102446107Y-140164024D01*
X102388178Y-140015566D01*
X102300338Y-139790454D01*
X102297019Y-139780786D01*
X102170242Y-139354951D01*
X102167733Y-139345043D01*
X102133870Y-139183542D01*
X149651642Y-139183542D01*
X149690090Y-139376828D01*
X149690093Y-139376838D01*
X149765507Y-139558906D01*
X149765514Y-139558919D01*
X149875003Y-139722780D01*
X149875006Y-139722784D01*
X150014357Y-139862135D01*
X150014361Y-139862138D01*
X150178222Y-139971627D01*
X150178235Y-139971634D01*
X150360303Y-140047048D01*
X150360308Y-140047050D01*
X150360312Y-140047050D01*
X150360313Y-140047051D01*
X150553599Y-140085499D01*
X150553602Y-140085499D01*
X150750686Y-140085499D01*
X150880725Y-140059631D01*
X150943978Y-140047050D01*
X151126057Y-139971631D01*
X151289925Y-139862138D01*
X151429282Y-139722781D01*
X151538775Y-139558913D01*
X151614194Y-139376834D01*
X151647176Y-139211024D01*
X151652643Y-139183542D01*
X151652643Y-139085001D01*
X155347177Y-139085001D01*
X155367001Y-139311598D01*
X155367003Y-139311609D01*
X155425873Y-139531316D01*
X155425878Y-139531330D01*
X155522006Y-139737477D01*
X155573117Y-139810471D01*
X156259094Y-139124495D01*
X156352143Y-139124495D01*
X156372587Y-139200795D01*
X156412083Y-139269204D01*
X156467938Y-139325059D01*
X156536347Y-139364555D01*
X156612647Y-139384999D01*
X156691639Y-139384999D01*
X156767939Y-139364555D01*
X156836348Y-139325059D01*
X156892203Y-139269204D01*
X156931699Y-139200795D01*
X156952143Y-139124495D01*
X156952143Y-139084999D01*
X157005696Y-139084999D01*
X157731167Y-139810470D01*
X157782279Y-139737477D01*
X157878407Y-139531330D01*
X157878412Y-139531316D01*
X157937282Y-139311609D01*
X157937284Y-139311598D01*
X157957109Y-139085001D01*
X157957109Y-139084996D01*
X157939611Y-138885000D01*
X160964175Y-138885000D01*
X160984007Y-139111685D01*
X160984009Y-139111696D01*
X161042901Y-139331487D01*
X161042904Y-139331496D01*
X161139074Y-139537731D01*
X161139075Y-139537733D01*
X161269597Y-139724140D01*
X161430501Y-139885044D01*
X161430504Y-139885046D01*
X161616909Y-140015567D01*
X161823147Y-140111738D01*
X162042951Y-140170634D01*
X162204873Y-140184800D01*
X162269641Y-140190467D01*
X162269643Y-140190467D01*
X162269645Y-140190467D01*
X162326316Y-140185508D01*
X162496335Y-140170634D01*
X162716139Y-140111738D01*
X162922377Y-140015567D01*
X163108782Y-139885046D01*
X163269690Y-139724138D01*
X163400211Y-139537733D01*
X163407261Y-139522613D01*
X163453432Y-139470175D01*
X163520625Y-139451022D01*
X163587507Y-139471237D01*
X163632024Y-139522613D01*
X163639075Y-139537732D01*
X163639075Y-139537733D01*
X163769597Y-139724140D01*
X163930501Y-139885044D01*
X163930504Y-139885046D01*
X164116909Y-140015567D01*
X164323147Y-140111738D01*
X164542951Y-140170634D01*
X164704873Y-140184800D01*
X164769641Y-140190467D01*
X164769643Y-140190467D01*
X164769645Y-140190467D01*
X164826316Y-140185508D01*
X164996335Y-140170634D01*
X165216139Y-140111738D01*
X165422377Y-140015567D01*
X165608782Y-139885046D01*
X165769690Y-139724138D01*
X165900211Y-139537733D01*
X165907261Y-139522613D01*
X165953432Y-139470175D01*
X166020625Y-139451022D01*
X166087507Y-139471237D01*
X166132024Y-139522613D01*
X166139075Y-139537732D01*
X166139075Y-139537733D01*
X166269597Y-139724140D01*
X166430501Y-139885044D01*
X166430504Y-139885046D01*
X166616909Y-140015567D01*
X166823147Y-140111738D01*
X167042951Y-140170634D01*
X167204873Y-140184800D01*
X167269641Y-140190467D01*
X167269643Y-140190467D01*
X167269645Y-140190467D01*
X167326316Y-140185508D01*
X167496335Y-140170634D01*
X167716139Y-140111738D01*
X167922377Y-140015567D01*
X168108782Y-139885046D01*
X168269690Y-139724138D01*
X168400211Y-139537733D01*
X168496382Y-139331495D01*
X168555278Y-139111691D01*
X168572277Y-138917383D01*
X168575111Y-138885000D01*
X168575111Y-138884997D01*
X168566234Y-138783535D01*
X168555278Y-138658307D01*
X168496382Y-138438503D01*
X168400211Y-138232265D01*
X168269690Y-138045860D01*
X168269688Y-138045857D01*
X168108784Y-137884953D01*
X167922377Y-137754431D01*
X167922375Y-137754430D01*
X167716140Y-137658260D01*
X167716131Y-137658257D01*
X167496340Y-137599365D01*
X167496336Y-137599364D01*
X167496335Y-137599364D01*
X167496334Y-137599363D01*
X167496329Y-137599363D01*
X167269645Y-137579531D01*
X167269641Y-137579531D01*
X167042956Y-137599363D01*
X167042945Y-137599365D01*
X166823154Y-137658257D01*
X166823145Y-137658260D01*
X166616910Y-137754430D01*
X166616908Y-137754431D01*
X166430501Y-137884953D01*
X166269597Y-138045857D01*
X166144162Y-138225000D01*
X166139075Y-138232265D01*
X166132023Y-138247386D01*
X166085852Y-138299824D01*
X166018658Y-138318975D01*
X165951777Y-138298759D01*
X165907262Y-138247386D01*
X165900211Y-138232265D01*
X165769690Y-138045860D01*
X165769688Y-138045857D01*
X165608784Y-137884953D01*
X165422377Y-137754431D01*
X165422375Y-137754430D01*
X165216140Y-137658260D01*
X165216131Y-137658257D01*
X164996340Y-137599365D01*
X164996336Y-137599364D01*
X164996335Y-137599364D01*
X164996334Y-137599363D01*
X164996329Y-137599363D01*
X164769645Y-137579531D01*
X164769641Y-137579531D01*
X164542956Y-137599363D01*
X164542945Y-137599365D01*
X164323154Y-137658257D01*
X164323145Y-137658260D01*
X164116910Y-137754430D01*
X164116908Y-137754431D01*
X163930501Y-137884953D01*
X163769597Y-138045857D01*
X163644162Y-138225000D01*
X163639075Y-138232265D01*
X163632023Y-138247386D01*
X163585852Y-138299824D01*
X163518658Y-138318975D01*
X163451777Y-138298759D01*
X163407262Y-138247386D01*
X163400211Y-138232265D01*
X163269690Y-138045860D01*
X163269688Y-138045857D01*
X163108784Y-137884953D01*
X162922377Y-137754431D01*
X162922375Y-137754430D01*
X162716140Y-137658260D01*
X162716131Y-137658257D01*
X162496340Y-137599365D01*
X162496336Y-137599364D01*
X162496335Y-137599364D01*
X162496334Y-137599363D01*
X162496329Y-137599363D01*
X162269645Y-137579531D01*
X162269641Y-137579531D01*
X162042956Y-137599363D01*
X162042945Y-137599365D01*
X161823154Y-137658257D01*
X161823145Y-137658260D01*
X161616910Y-137754430D01*
X161616908Y-137754431D01*
X161430501Y-137884953D01*
X161269597Y-138045857D01*
X161139075Y-138232264D01*
X161139074Y-138232266D01*
X161042904Y-138438501D01*
X161042901Y-138438510D01*
X160984009Y-138658301D01*
X160984007Y-138658312D01*
X160964175Y-138884997D01*
X160964175Y-138885000D01*
X157939611Y-138885000D01*
X157937284Y-138858399D01*
X157937282Y-138858388D01*
X157878412Y-138638681D01*
X157878407Y-138638667D01*
X157782279Y-138432520D01*
X157782275Y-138432512D01*
X157731168Y-138359525D01*
X157005696Y-139084998D01*
X157005696Y-139084999D01*
X156952143Y-139084999D01*
X156952143Y-139045503D01*
X156931699Y-138969203D01*
X156892203Y-138900794D01*
X156836348Y-138844939D01*
X156767939Y-138805443D01*
X156691639Y-138784999D01*
X156612647Y-138784999D01*
X156536347Y-138805443D01*
X156467938Y-138844939D01*
X156412083Y-138900794D01*
X156372587Y-138969203D01*
X156352143Y-139045503D01*
X156352143Y-139124495D01*
X156259094Y-139124495D01*
X156298590Y-139084999D01*
X156298590Y-139084998D01*
X155573117Y-138359525D01*
X155573116Y-138359525D01*
X155522011Y-138432511D01*
X155522009Y-138432515D01*
X155425877Y-138638672D01*
X155425873Y-138638681D01*
X155367003Y-138858388D01*
X155367001Y-138858399D01*
X155347177Y-139084996D01*
X155347177Y-139085001D01*
X151652643Y-139085001D01*
X151652643Y-138986455D01*
X151614195Y-138793169D01*
X151614194Y-138793168D01*
X151614194Y-138793164D01*
X151593502Y-138743208D01*
X151538778Y-138611091D01*
X151538771Y-138611078D01*
X151429282Y-138447217D01*
X151429279Y-138447213D01*
X151289928Y-138307862D01*
X151289924Y-138307859D01*
X151126063Y-138198370D01*
X151126050Y-138198363D01*
X150943982Y-138122949D01*
X150943972Y-138122946D01*
X150750686Y-138084499D01*
X150750684Y-138084499D01*
X150553602Y-138084499D01*
X150553600Y-138084499D01*
X150360313Y-138122946D01*
X150360303Y-138122949D01*
X150178235Y-138198363D01*
X150178222Y-138198370D01*
X150014361Y-138307859D01*
X150014357Y-138307862D01*
X149875006Y-138447213D01*
X149875003Y-138447217D01*
X149765514Y-138611078D01*
X149765507Y-138611091D01*
X149690093Y-138793159D01*
X149690090Y-138793169D01*
X149651643Y-138986455D01*
X149651643Y-138986458D01*
X149651643Y-139183540D01*
X149651643Y-139183542D01*
X149651642Y-139183542D01*
X102133870Y-139183542D01*
X102076555Y-138910194D01*
X102074873Y-138900114D01*
X102019915Y-138459209D01*
X102019072Y-138449036D01*
X102000747Y-138005973D01*
X155926669Y-138005973D01*
X156652143Y-138731446D01*
X156652144Y-138731446D01*
X157377615Y-138005973D01*
X157304621Y-137954862D01*
X157098474Y-137858734D01*
X157098460Y-137858729D01*
X156878753Y-137799859D01*
X156878742Y-137799857D01*
X156652145Y-137780033D01*
X156652141Y-137780033D01*
X156425543Y-137799857D01*
X156425532Y-137799859D01*
X156205825Y-137858729D01*
X156205816Y-137858733D01*
X155999659Y-137954865D01*
X155999655Y-137954867D01*
X155926669Y-138005972D01*
X155926669Y-138005973D01*
X102000747Y-138005973D01*
X102000711Y-138005101D01*
X102000711Y-137994898D01*
X102019072Y-137550961D01*
X102019915Y-137540792D01*
X102074874Y-137099881D01*
X102076554Y-137089809D01*
X102167734Y-136654950D01*
X102170241Y-136645054D01*
X102297021Y-136219205D01*
X102300336Y-136209553D01*
X102461842Y-135795649D01*
X102465949Y-135786283D01*
X102565063Y-135583542D01*
X149651642Y-135583542D01*
X149690090Y-135776828D01*
X149690093Y-135776838D01*
X149765507Y-135958906D01*
X149765514Y-135958919D01*
X149875003Y-136122780D01*
X149875006Y-136122784D01*
X150014357Y-136262135D01*
X150014361Y-136262138D01*
X150178222Y-136371627D01*
X150178235Y-136371634D01*
X150360303Y-136447048D01*
X150360308Y-136447050D01*
X150360312Y-136447050D01*
X150360313Y-136447051D01*
X150553599Y-136485499D01*
X150553602Y-136485499D01*
X150750686Y-136485499D01*
X150880725Y-136459631D01*
X150943978Y-136447050D01*
X151126057Y-136371631D01*
X151289925Y-136262138D01*
X151429282Y-136122781D01*
X151538775Y-135958913D01*
X151614194Y-135776834D01*
X151652643Y-135583540D01*
X151652643Y-135386458D01*
X151652643Y-135386455D01*
X151614195Y-135193169D01*
X151614194Y-135193168D01*
X151614194Y-135193164D01*
X151593140Y-135142335D01*
X151538778Y-135011091D01*
X151538771Y-135011078D01*
X151429282Y-134847217D01*
X151429279Y-134847213D01*
X151289928Y-134707862D01*
X151289924Y-134707859D01*
X151126063Y-134598370D01*
X151126050Y-134598363D01*
X150943982Y-134522949D01*
X150943972Y-134522946D01*
X150750686Y-134484499D01*
X150750684Y-134484499D01*
X150553602Y-134484499D01*
X150553600Y-134484499D01*
X150360313Y-134522946D01*
X150360303Y-134522949D01*
X150178235Y-134598363D01*
X150178222Y-134598370D01*
X150014361Y-134707859D01*
X150014357Y-134707862D01*
X149875006Y-134847213D01*
X149875003Y-134847217D01*
X149765514Y-135011078D01*
X149765507Y-135011091D01*
X149690093Y-135193159D01*
X149690090Y-135193169D01*
X149651643Y-135386455D01*
X149651643Y-135386458D01*
X149651643Y-135583540D01*
X149651643Y-135583542D01*
X149651642Y-135583542D01*
X102565063Y-135583542D01*
X102661096Y-135387104D01*
X102665941Y-135378152D01*
X102893390Y-134996444D01*
X102898983Y-134987884D01*
X103157153Y-134626293D01*
X103163421Y-134618239D01*
X103450582Y-134279190D01*
X103457501Y-134271674D01*
X103771676Y-133957499D01*
X103779192Y-133950580D01*
X103876580Y-133868097D01*
X115999500Y-133868097D01*
X116036446Y-134101368D01*
X116109433Y-134325996D01*
X116216181Y-134535499D01*
X116216657Y-134536433D01*
X116355483Y-134727510D01*
X116522490Y-134894517D01*
X116713567Y-135033343D01*
X116776665Y-135065493D01*
X116924003Y-135140566D01*
X116924005Y-135140566D01*
X116924008Y-135140568D01*
X117034503Y-135176470D01*
X117148631Y-135213553D01*
X117381903Y-135250500D01*
X117381908Y-135250500D01*
X117618097Y-135250500D01*
X117851368Y-135213553D01*
X117914103Y-135193169D01*
X118075992Y-135140568D01*
X118286433Y-135033343D01*
X118477510Y-134894517D01*
X118644517Y-134727510D01*
X118783343Y-134536433D01*
X118890568Y-134325992D01*
X118963553Y-134101368D01*
X118987437Y-133950570D01*
X119000500Y-133868097D01*
X143499500Y-133868097D01*
X143536446Y-134101368D01*
X143609433Y-134325996D01*
X143716181Y-134535499D01*
X143716657Y-134536433D01*
X143855483Y-134727510D01*
X144022490Y-134894517D01*
X144213567Y-135033343D01*
X144276665Y-135065493D01*
X144424003Y-135140566D01*
X144424005Y-135140566D01*
X144424008Y-135140568D01*
X144534503Y-135176470D01*
X144648631Y-135213553D01*
X144881903Y-135250500D01*
X144881908Y-135250500D01*
X145118097Y-135250500D01*
X145351368Y-135213553D01*
X145414103Y-135193169D01*
X145575992Y-135140568D01*
X145786433Y-135033343D01*
X145977510Y-134894517D01*
X146144517Y-134727510D01*
X146283343Y-134536433D01*
X146390568Y-134325992D01*
X146463553Y-134101368D01*
X146487437Y-133950570D01*
X146500500Y-133868097D01*
X146500500Y-131131902D01*
X146463553Y-130898631D01*
X146390566Y-130674003D01*
X146307490Y-130510958D01*
X146283343Y-130463567D01*
X146144517Y-130272490D01*
X145977510Y-130105483D01*
X145786433Y-129966657D01*
X145693178Y-129919141D01*
X145575996Y-129859433D01*
X145351368Y-129786446D01*
X145118097Y-129749500D01*
X145118092Y-129749500D01*
X144881908Y-129749500D01*
X144881903Y-129749500D01*
X144648631Y-129786446D01*
X144424003Y-129859433D01*
X144213566Y-129966657D01*
X144123961Y-130031760D01*
X144022490Y-130105483D01*
X144022488Y-130105485D01*
X144022487Y-130105485D01*
X143855485Y-130272487D01*
X143855485Y-130272488D01*
X143855483Y-130272490D01*
X143812948Y-130331034D01*
X143716657Y-130463566D01*
X143609433Y-130674003D01*
X143536446Y-130898631D01*
X143499500Y-131131902D01*
X143499500Y-133868097D01*
X119000500Y-133868097D01*
X119000500Y-131131902D01*
X118963553Y-130898631D01*
X118890566Y-130674003D01*
X118807490Y-130510958D01*
X118783343Y-130463567D01*
X118644517Y-130272490D01*
X118477510Y-130105483D01*
X118286433Y-129966657D01*
X118193178Y-129919141D01*
X118075996Y-129859433D01*
X117851368Y-129786446D01*
X117618097Y-129749500D01*
X117618092Y-129749500D01*
X117381908Y-129749500D01*
X117381903Y-129749500D01*
X117148631Y-129786446D01*
X116924003Y-129859433D01*
X116713566Y-129966657D01*
X116623961Y-130031760D01*
X116522490Y-130105483D01*
X116522488Y-130105485D01*
X116522487Y-130105485D01*
X116355485Y-130272487D01*
X116355485Y-130272488D01*
X116355483Y-130272490D01*
X116312948Y-130331034D01*
X116216657Y-130463566D01*
X116109433Y-130674003D01*
X116036446Y-130898631D01*
X115999500Y-131131902D01*
X115999500Y-133868097D01*
X103876580Y-133868097D01*
X104118241Y-133663421D01*
X104126295Y-133657152D01*
X104487886Y-133398981D01*
X104496446Y-133393388D01*
X104878138Y-133165948D01*
X104887122Y-133161087D01*
X105286282Y-132965950D01*
X105295656Y-132961839D01*
X105709554Y-132800335D01*
X105719215Y-132797018D01*
X106145051Y-132670242D01*
X106154953Y-132667734D01*
X106589811Y-132576554D01*
X106599883Y-132574874D01*
X107040794Y-132519914D01*
X107050963Y-132519071D01*
X107497440Y-132500605D01*
X107502564Y-132500500D01*
X107749173Y-132500500D01*
X108246050Y-132462352D01*
X108738549Y-132386281D01*
X109223780Y-132272733D01*
X109698894Y-132122373D01*
X110161105Y-131936085D01*
X110161116Y-131936079D01*
X110161126Y-131936075D01*
X110607690Y-131714967D01*
X110607690Y-131714966D01*
X110607700Y-131714962D01*
X111036057Y-131460301D01*
X111443663Y-131173597D01*
X111828127Y-130856533D01*
X112187191Y-130510968D01*
X112518749Y-130138931D01*
X112820855Y-129742605D01*
X113091736Y-129324316D01*
X113329802Y-128886519D01*
X113375031Y-128785627D01*
X113533650Y-128431799D01*
X113533651Y-128431795D01*
X113533657Y-128431783D01*
X113702105Y-127962776D01*
X113834155Y-127482250D01*
X113929035Y-126993027D01*
X113986186Y-126497975D01*
X114005274Y-126000002D01*
X113986186Y-125502028D01*
X113929035Y-125006977D01*
X113834156Y-124517753D01*
X113702106Y-124037227D01*
X113575898Y-123685826D01*
X113533661Y-123568225D01*
X113533652Y-123568203D01*
X113329817Y-123113512D01*
X113329808Y-123113493D01*
X113329804Y-123113484D01*
X113091737Y-122675686D01*
X113091736Y-122675684D01*
X113091732Y-122675677D01*
X112837055Y-122282410D01*
X112820857Y-122257397D01*
X112820854Y-122257393D01*
X112820850Y-122257387D01*
X112518754Y-121861075D01*
X112518747Y-121861066D01*
X112187201Y-121489043D01*
X112187193Y-121489034D01*
X111828129Y-121143470D01*
X111443666Y-120826405D01*
X111181872Y-120642262D01*
X111036063Y-120539701D01*
X110607710Y-120285043D01*
X110607693Y-120285033D01*
X110161129Y-120063925D01*
X110161098Y-120063911D01*
X109698921Y-119877637D01*
X109698914Y-119877634D01*
X109698898Y-119877628D01*
X109606633Y-119848429D01*
X109223782Y-119727267D01*
X108738567Y-119613722D01*
X108246054Y-119537648D01*
X108246037Y-119537646D01*
X107749181Y-119499500D01*
X107749176Y-119499500D01*
X107565898Y-119499500D01*
X107502561Y-119499500D01*
X107497437Y-119499394D01*
X107050983Y-119480928D01*
X107040769Y-119480082D01*
X106599900Y-119425128D01*
X106589791Y-119423441D01*
X106154970Y-119332269D01*
X106145035Y-119329753D01*
X105719226Y-119202984D01*
X105709533Y-119199656D01*
X105295660Y-119038161D01*
X105286275Y-119034045D01*
X104887136Y-118838919D01*
X104878122Y-118834041D01*
X104496460Y-118606620D01*
X104487880Y-118601014D01*
X104309301Y-118473511D01*
X104126303Y-118342852D01*
X104118218Y-118336559D01*
X104036699Y-118267516D01*
X103779203Y-118049427D01*
X103771663Y-118042486D01*
X103457512Y-117728335D01*
X103450571Y-117720795D01*
X103377368Y-117634365D01*
X103163434Y-117381774D01*
X103157144Y-117373693D01*
X103137612Y-117346337D01*
X102898980Y-117012112D01*
X102893378Y-117003537D01*
X102665953Y-116621866D01*
X102661076Y-116612853D01*
X102465958Y-116213733D01*
X102461841Y-116204348D01*
X102401800Y-116050476D01*
X102300338Y-115790453D01*
X102297019Y-115780785D01*
X102170242Y-115354949D01*
X102167733Y-115345041D01*
X102076555Y-114910193D01*
X102074873Y-114900113D01*
X102019914Y-114459208D01*
X102019071Y-114449035D01*
X102005710Y-114125962D01*
X116899500Y-114125962D01*
X116916028Y-114230315D01*
X116938910Y-114374785D01*
X117016760Y-114614383D01*
X117088224Y-114754637D01*
X117121437Y-114819822D01*
X117131132Y-114838848D01*
X117279201Y-115042649D01*
X117279205Y-115042654D01*
X117457345Y-115220794D01*
X117457350Y-115220798D01*
X117626645Y-115343797D01*
X117661155Y-115368870D01*
X117755706Y-115417046D01*
X117885616Y-115483239D01*
X117885618Y-115483239D01*
X117885621Y-115483241D01*
X118125215Y-115561090D01*
X118374038Y-115600500D01*
X118374039Y-115600500D01*
X118625961Y-115600500D01*
X118625962Y-115600500D01*
X118874785Y-115561090D01*
X119114379Y-115483241D01*
X119338845Y-115368870D01*
X119542656Y-115220793D01*
X119720793Y-115042656D01*
X119868870Y-114838845D01*
X119983241Y-114614379D01*
X120061090Y-114374785D01*
X120100500Y-114125962D01*
X120100500Y-113874038D01*
X120061090Y-113625215D01*
X119983241Y-113385621D01*
X119983239Y-113385618D01*
X119983239Y-113385616D01*
X119921284Y-113264023D01*
X119868870Y-113161155D01*
X119824365Y-113099899D01*
X119720798Y-112957350D01*
X119720794Y-112957345D01*
X119542654Y-112779205D01*
X119542649Y-112779201D01*
X119338848Y-112631132D01*
X119338847Y-112631131D01*
X119338845Y-112631130D01*
X119246834Y-112584248D01*
X119114383Y-112516760D01*
X118874785Y-112438910D01*
X118831662Y-112432080D01*
X118625962Y-112399500D01*
X118374038Y-112399500D01*
X118249626Y-112419205D01*
X118125214Y-112438910D01*
X117885616Y-112516760D01*
X117661151Y-112631132D01*
X117457350Y-112779201D01*
X117457345Y-112779205D01*
X117279205Y-112957345D01*
X117279201Y-112957350D01*
X117131132Y-113161151D01*
X117016760Y-113385616D01*
X116938910Y-113625214D01*
X116930774Y-113676584D01*
X116899500Y-113874038D01*
X116899500Y-114125962D01*
X102005710Y-114125962D01*
X102000711Y-114005100D01*
X102000711Y-113994897D01*
X102019072Y-113550959D01*
X102019915Y-113540790D01*
X102074874Y-113099880D01*
X102076554Y-113089808D01*
X102167735Y-112654949D01*
X102170242Y-112645053D01*
X102297022Y-112219204D01*
X102300337Y-112209551D01*
X102461845Y-111795639D01*
X102465957Y-111786267D01*
X102479368Y-111758834D01*
X102661087Y-111387123D01*
X102665941Y-111378151D01*
X102893391Y-110996442D01*
X102898974Y-110987896D01*
X103157159Y-110626286D01*
X103163427Y-110618234D01*
X103450583Y-110279190D01*
X103457502Y-110271674D01*
X103771677Y-109957499D01*
X103779193Y-109950580D01*
X104118242Y-109663419D01*
X104126296Y-109657151D01*
X104487886Y-109398981D01*
X104496446Y-109393388D01*
X104878138Y-109165948D01*
X104887122Y-109161087D01*
X105286282Y-108965950D01*
X105295656Y-108961839D01*
X105709556Y-108800335D01*
X105719215Y-108797018D01*
X106145051Y-108670242D01*
X106154953Y-108667734D01*
X106589812Y-108576554D01*
X106599884Y-108574874D01*
X107040795Y-108519914D01*
X107050964Y-108519071D01*
X107497440Y-108500605D01*
X107502564Y-108500500D01*
X107749173Y-108500500D01*
X108246050Y-108462352D01*
X108738549Y-108386281D01*
X108765399Y-108379998D01*
X109083229Y-108305623D01*
X109223780Y-108272733D01*
X109698894Y-108122373D01*
X110161105Y-107936085D01*
X110161116Y-107936079D01*
X110161126Y-107936075D01*
X110607690Y-107714967D01*
X110607690Y-107714966D01*
X110607700Y-107714962D01*
X111036057Y-107460301D01*
X111443663Y-107173597D01*
X111828127Y-106856533D01*
X112187191Y-106510968D01*
X112518749Y-106138931D01*
X112820855Y-105742605D01*
X113091736Y-105324316D01*
X113329802Y-104886519D01*
X113442014Y-104636210D01*
X113533650Y-104431799D01*
X113533651Y-104431795D01*
X113533657Y-104431783D01*
X113702105Y-103962776D01*
X113834155Y-103482250D01*
X113929035Y-102993027D01*
X113986186Y-102497975D01*
X114005274Y-102000002D01*
X113986186Y-101502028D01*
X113929035Y-101006977D01*
X113834156Y-100517753D01*
X113702106Y-100037227D01*
X113657388Y-99912719D01*
X113533661Y-99568225D01*
X113533652Y-99568203D01*
X113329817Y-99113512D01*
X113329808Y-99113493D01*
X113329804Y-99113484D01*
X113091737Y-98675686D01*
X113091736Y-98675684D01*
X113091732Y-98675677D01*
X112910487Y-98395802D01*
X112820857Y-98257397D01*
X112820854Y-98257393D01*
X112820850Y-98257387D01*
X112518754Y-97861075D01*
X112518747Y-97861066D01*
X112187201Y-97489043D01*
X112187193Y-97489034D01*
X111828129Y-97143470D01*
X111494220Y-96868097D01*
X115999500Y-96868097D01*
X116036446Y-97101368D01*
X116109433Y-97325996D01*
X116197249Y-97498343D01*
X116216657Y-97536433D01*
X116355483Y-97727510D01*
X116522490Y-97894517D01*
X116713567Y-98033343D01*
X116806826Y-98080861D01*
X116924003Y-98140566D01*
X116924005Y-98140566D01*
X116924008Y-98140568D01*
X117044412Y-98179689D01*
X117148631Y-98213553D01*
X117381903Y-98250500D01*
X117381908Y-98250500D01*
X117618097Y-98250500D01*
X117851368Y-98213553D01*
X118075992Y-98140568D01*
X118286433Y-98033343D01*
X118477510Y-97894517D01*
X118644517Y-97727510D01*
X118783343Y-97536433D01*
X118890568Y-97325992D01*
X118963553Y-97101368D01*
X119000500Y-96868097D01*
X119000500Y-94131902D01*
X118963553Y-93898631D01*
X118915259Y-93750000D01*
X118890568Y-93674008D01*
X118890566Y-93674005D01*
X118890566Y-93674003D01*
X118815571Y-93526818D01*
X118783343Y-93463567D01*
X118644517Y-93272490D01*
X118477510Y-93105483D01*
X118286433Y-92966657D01*
X118224146Y-92934920D01*
X118075996Y-92859433D01*
X117851368Y-92786446D01*
X117618097Y-92749500D01*
X117618092Y-92749500D01*
X117381908Y-92749500D01*
X117381903Y-92749500D01*
X117148631Y-92786446D01*
X116924003Y-92859433D01*
X116713566Y-92966657D01*
X116650995Y-93012118D01*
X116522490Y-93105483D01*
X116522488Y-93105485D01*
X116522487Y-93105485D01*
X116355485Y-93272487D01*
X116355485Y-93272488D01*
X116355483Y-93272490D01*
X116317829Y-93324316D01*
X116216657Y-93463566D01*
X116109433Y-93674003D01*
X116036446Y-93898631D01*
X115999500Y-94131902D01*
X115999500Y-96868097D01*
X111494220Y-96868097D01*
X111443666Y-96826405D01*
X111390365Y-96788914D01*
X111036063Y-96539701D01*
X110607710Y-96285043D01*
X110607693Y-96285033D01*
X110161129Y-96063925D01*
X110161098Y-96063911D01*
X109698921Y-95877637D01*
X109698914Y-95877634D01*
X109698898Y-95877628D01*
X109593065Y-95844135D01*
X109223782Y-95727267D01*
X108738567Y-95613722D01*
X108246054Y-95537648D01*
X108246037Y-95537646D01*
X107749181Y-95499500D01*
X107749176Y-95499500D01*
X107565898Y-95499500D01*
X107502561Y-95499500D01*
X107497437Y-95499394D01*
X107050983Y-95480928D01*
X107040769Y-95480082D01*
X106599900Y-95425128D01*
X106589791Y-95423441D01*
X106154970Y-95332269D01*
X106145035Y-95329753D01*
X105719226Y-95202984D01*
X105709533Y-95199656D01*
X105295660Y-95038161D01*
X105286275Y-95034045D01*
X104887136Y-94838919D01*
X104878122Y-94834041D01*
X104496460Y-94606620D01*
X104487880Y-94601014D01*
X104218972Y-94409017D01*
X104126303Y-94342852D01*
X104118218Y-94336559D01*
X104092090Y-94314430D01*
X103779203Y-94049427D01*
X103771663Y-94042486D01*
X103457512Y-93728335D01*
X103450571Y-93720795D01*
X103336825Y-93586496D01*
X103163434Y-93381774D01*
X103157144Y-93373693D01*
X103152145Y-93366692D01*
X102898980Y-93012112D01*
X102893378Y-93003537D01*
X102665953Y-92621866D01*
X102661076Y-92612853D01*
X102465958Y-92213733D01*
X102461841Y-92204348D01*
X102393652Y-92029594D01*
X102300338Y-91790453D01*
X102297019Y-91780785D01*
X102170242Y-91354949D01*
X102167733Y-91345041D01*
X102076555Y-90910193D01*
X102074873Y-90900113D01*
X102019914Y-90459208D01*
X102019071Y-90449035D01*
X102000711Y-90005100D01*
X102000711Y-89994897D01*
X102019072Y-89550959D01*
X102019915Y-89540790D01*
X102074874Y-89099880D01*
X102076554Y-89089808D01*
X102167735Y-88654949D01*
X102170242Y-88645053D01*
X102297022Y-88219204D01*
X102300337Y-88209551D01*
X102461845Y-87795639D01*
X102465957Y-87786267D01*
X102572556Y-87568216D01*
X102661087Y-87387123D01*
X102665941Y-87378151D01*
X102893391Y-86996442D01*
X102898974Y-86987896D01*
X103157159Y-86626286D01*
X103163427Y-86618234D01*
X103450583Y-86279190D01*
X103457502Y-86271674D01*
X103771677Y-85957499D01*
X103779193Y-85950580D01*
X104118242Y-85663419D01*
X104126296Y-85657151D01*
X104487886Y-85398981D01*
X104496446Y-85393388D01*
X104878138Y-85165948D01*
X104887122Y-85161087D01*
X105286282Y-84965950D01*
X105295656Y-84961839D01*
X105709556Y-84800335D01*
X105719215Y-84797018D01*
X106145051Y-84670242D01*
X106154953Y-84667734D01*
X106589812Y-84576554D01*
X106599884Y-84574874D01*
X107040795Y-84519914D01*
X107050964Y-84519071D01*
X107497440Y-84500605D01*
X107502564Y-84500500D01*
X107565895Y-84500500D01*
X182434111Y-84500500D01*
X182498888Y-84500500D01*
X182501152Y-84500520D01*
G37*
%TD.AperFunction*%
%TA.AperFunction,Conductor*%
G36*
X193267542Y-132970185D02*
G01*
X193313297Y-133022989D01*
X193324503Y-133074500D01*
X193324503Y-134287769D01*
X193304818Y-134354808D01*
X193288184Y-134375450D01*
X192450454Y-135213181D01*
X192389131Y-135246666D01*
X192362773Y-135249500D01*
X192256888Y-135249500D01*
X192189849Y-135229815D01*
X192144094Y-135177011D01*
X192134150Y-135107853D01*
X192140706Y-135082167D01*
X192168599Y-135007379D01*
X192168601Y-135007372D01*
X192175002Y-134947844D01*
X192175003Y-134947827D01*
X192175003Y-134250000D01*
X191150281Y-134250000D01*
X191194336Y-134173694D01*
X191225003Y-134059244D01*
X191225003Y-133940756D01*
X191194336Y-133826306D01*
X191150281Y-133750000D01*
X192175003Y-133750000D01*
X192175003Y-133074500D01*
X192194688Y-133007461D01*
X192247492Y-132961706D01*
X192299003Y-132950500D01*
X193200503Y-132950500D01*
X193267542Y-132970185D01*
G37*
%TD.AperFunction*%
%TA.AperFunction,Conductor*%
G36*
X171874733Y-125025185D02*
G01*
X171895375Y-125041819D01*
X172579768Y-125726212D01*
X172537711Y-125737482D01*
X172412295Y-125809890D01*
X172309893Y-125912292D01*
X172237485Y-126037708D01*
X172226215Y-126079765D01*
X171526567Y-125380116D01*
X171426270Y-125533632D01*
X171326415Y-125761282D01*
X171265390Y-126002261D01*
X171265388Y-126002270D01*
X171244862Y-126249994D01*
X171244862Y-126249995D01*
X171265580Y-126500034D01*
X171251498Y-126568470D01*
X171202653Y-126618429D01*
X171134551Y-126634049D01*
X171068816Y-126610371D01*
X171054322Y-126597954D01*
X169673549Y-125217181D01*
X169640064Y-125155858D01*
X169645048Y-125086166D01*
X169686920Y-125030233D01*
X169752384Y-125005816D01*
X169761230Y-125005500D01*
X171807694Y-125005500D01*
X171874733Y-125025185D01*
G37*
%TD.AperFunction*%
%TA.AperFunction,Conductor*%
G36*
X154868757Y-119560185D02*
G01*
X154889399Y-119576819D01*
X160144045Y-124831465D01*
X160177530Y-124892788D01*
X160172546Y-124962480D01*
X160130674Y-125018413D01*
X160065210Y-125042830D01*
X160000069Y-125029631D01*
X159944109Y-125001117D01*
X159756905Y-124940290D01*
X159562501Y-124909500D01*
X159562496Y-124909500D01*
X151948162Y-124909500D01*
X151881123Y-124889815D01*
X151835368Y-124837011D01*
X151825424Y-124767853D01*
X151854449Y-124704297D01*
X151877038Y-124683925D01*
X151968820Y-124619657D01*
X152129657Y-124458820D01*
X152260134Y-124272482D01*
X152356265Y-124066326D01*
X152356269Y-124066317D01*
X152408872Y-123870000D01*
X151563012Y-123870000D01*
X151595925Y-123812993D01*
X151630000Y-123685826D01*
X151630000Y-123554174D01*
X151595925Y-123427007D01*
X151563012Y-123370000D01*
X152408872Y-123370000D01*
X152408872Y-123369999D01*
X152356269Y-123173682D01*
X152356265Y-123173673D01*
X152260134Y-122967517D01*
X152129657Y-122781179D01*
X151968820Y-122620342D01*
X151782482Y-122489865D01*
X151724133Y-122462657D01*
X151671694Y-122416484D01*
X151652542Y-122349291D01*
X151672758Y-122282410D01*
X151724129Y-122237895D01*
X151782734Y-122210568D01*
X151969139Y-122080047D01*
X152130047Y-121919139D01*
X152260568Y-121732734D01*
X152356739Y-121526496D01*
X152415635Y-121306692D01*
X152435468Y-121080000D01*
X152415635Y-120853308D01*
X152359086Y-120642262D01*
X152356741Y-120633511D01*
X152356738Y-120633502D01*
X152328953Y-120573918D01*
X152260568Y-120427266D01*
X152130047Y-120240861D01*
X152130045Y-120240858D01*
X151969141Y-120079954D01*
X151782734Y-119949432D01*
X151782728Y-119949429D01*
X151724725Y-119922382D01*
X151672285Y-119876210D01*
X151653133Y-119809017D01*
X151673348Y-119742135D01*
X151724725Y-119697618D01*
X151725319Y-119697341D01*
X151782734Y-119670568D01*
X151936465Y-119562924D01*
X152002671Y-119540598D01*
X152007588Y-119540500D01*
X154801718Y-119540500D01*
X154868757Y-119560185D01*
G37*
%TD.AperFunction*%
%TA.AperFunction,Conductor*%
G36*
X169259809Y-111690185D02*
G01*
X169280451Y-111706819D01*
X171963184Y-114389551D01*
X171996669Y-114450874D01*
X171999503Y-114477232D01*
X171999503Y-120376128D01*
X171979818Y-120443167D01*
X171934525Y-120485179D01*
X171926494Y-120489526D01*
X171818067Y-120573918D01*
X171730260Y-120642261D01*
X171561836Y-120825217D01*
X171425829Y-121033393D01*
X171325939Y-121261118D01*
X171264895Y-121502175D01*
X171264893Y-121502187D01*
X171244360Y-121749994D01*
X171244360Y-121750005D01*
X171264893Y-121997812D01*
X171264895Y-121997824D01*
X171325939Y-122238881D01*
X171425829Y-122466606D01*
X171521263Y-122612679D01*
X171541450Y-122679568D01*
X171522270Y-122746754D01*
X171469812Y-122792904D01*
X171417454Y-122804500D01*
X171122229Y-122804500D01*
X171055190Y-122784815D01*
X171034548Y-122768181D01*
X170033421Y-121767052D01*
X170033418Y-121767049D01*
X169959683Y-121717782D01*
X169910495Y-121684916D01*
X169910492Y-121684914D01*
X169910491Y-121684914D01*
X169773917Y-121628343D01*
X169773907Y-121628340D01*
X169628920Y-121599500D01*
X169628918Y-121599500D01*
X167738778Y-121599500D01*
X167671739Y-121579815D01*
X167625984Y-121527011D01*
X167616040Y-121457853D01*
X167619003Y-121443407D01*
X167634664Y-121384959D01*
X167655635Y-121306692D01*
X167675468Y-121080000D01*
X167655635Y-120853308D01*
X167599086Y-120642262D01*
X167596741Y-120633511D01*
X167596738Y-120633502D01*
X167568953Y-120573918D01*
X167500568Y-120427266D01*
X167370047Y-120240861D01*
X167370045Y-120240858D01*
X167209141Y-120079954D01*
X167022734Y-119949432D01*
X167022732Y-119949431D01*
X167000513Y-119939070D01*
X166964132Y-119922105D01*
X166911694Y-119875934D01*
X166892542Y-119808740D01*
X166912758Y-119741859D01*
X166964134Y-119697341D01*
X167022484Y-119670132D01*
X167208820Y-119539657D01*
X167369657Y-119378820D01*
X167500134Y-119192482D01*
X167596265Y-118986326D01*
X167596269Y-118986317D01*
X167648872Y-118790000D01*
X166803012Y-118790000D01*
X166835925Y-118732993D01*
X166870000Y-118605826D01*
X166870000Y-118474174D01*
X166835925Y-118347007D01*
X166803012Y-118290000D01*
X167648872Y-118290000D01*
X167648872Y-118289999D01*
X167596269Y-118093682D01*
X167596265Y-118093673D01*
X167500134Y-117887517D01*
X167369657Y-117701179D01*
X167208820Y-117540342D01*
X167022482Y-117409865D01*
X166964133Y-117382657D01*
X166911694Y-117336484D01*
X166892542Y-117269291D01*
X166912758Y-117202410D01*
X166964129Y-117157895D01*
X167022734Y-117130568D01*
X167209139Y-117000047D01*
X167370047Y-116839139D01*
X167500568Y-116652734D01*
X167596739Y-116446496D01*
X167655635Y-116226692D01*
X167675468Y-116000000D01*
X167660869Y-115833137D01*
X167674635Y-115764639D01*
X167696713Y-115734653D01*
X168232951Y-115198416D01*
X168315084Y-115075495D01*
X168371658Y-114938913D01*
X168394667Y-114823244D01*
X168400500Y-114793920D01*
X168400500Y-112898314D01*
X168400499Y-112898313D01*
X168391901Y-112855084D01*
X168371659Y-112753321D01*
X168338463Y-112673181D01*
X168328654Y-112649499D01*
X168320578Y-112630003D01*
X168315084Y-112616738D01*
X168312707Y-112613181D01*
X168232954Y-112493821D01*
X168232953Y-112493820D01*
X168232951Y-112493817D01*
X168128416Y-112389282D01*
X167889639Y-112150505D01*
X167621316Y-111882181D01*
X167587831Y-111820858D01*
X167592815Y-111751166D01*
X167634687Y-111695233D01*
X167700151Y-111670816D01*
X167708997Y-111670500D01*
X169192770Y-111670500D01*
X169259809Y-111690185D01*
G37*
%TD.AperFunction*%
%TA.AperFunction,Conductor*%
G36*
X155944809Y-112980185D02*
G01*
X155965451Y-112996819D01*
X157011584Y-114042952D01*
X157011589Y-114042956D01*
X157068647Y-114081080D01*
X157068649Y-114081081D01*
X157068651Y-114081082D01*
X157134505Y-114125084D01*
X157134506Y-114125084D01*
X157134507Y-114125085D01*
X157136716Y-114126000D01*
X157271087Y-114181658D01*
X157271091Y-114181658D01*
X157271092Y-114181659D01*
X157416079Y-114210500D01*
X157416082Y-114210500D01*
X157416083Y-114210500D01*
X157563917Y-114210500D01*
X165243337Y-114210500D01*
X165310376Y-114230185D01*
X165344912Y-114263377D01*
X165369954Y-114299141D01*
X165530858Y-114460045D01*
X165530861Y-114460047D01*
X165717266Y-114590568D01*
X165775275Y-114617618D01*
X165827714Y-114663791D01*
X165846866Y-114730984D01*
X165826650Y-114797865D01*
X165775275Y-114842382D01*
X165717267Y-114869431D01*
X165717265Y-114869432D01*
X165530858Y-114999954D01*
X165369954Y-115160858D01*
X165239432Y-115347265D01*
X165239431Y-115347267D01*
X165143261Y-115553502D01*
X165143258Y-115553511D01*
X165084366Y-115773302D01*
X165084364Y-115773313D01*
X165064532Y-115999998D01*
X165064532Y-116000001D01*
X165084364Y-116226686D01*
X165084366Y-116226697D01*
X165143258Y-116446488D01*
X165143261Y-116446497D01*
X165239431Y-116652732D01*
X165239432Y-116652734D01*
X165369954Y-116839141D01*
X165530858Y-117000045D01*
X165530861Y-117000047D01*
X165717266Y-117130568D01*
X165775865Y-117157893D01*
X165828305Y-117204065D01*
X165847457Y-117271258D01*
X165827242Y-117338139D01*
X165775867Y-117382657D01*
X165717515Y-117409867D01*
X165531179Y-117540342D01*
X165370342Y-117701179D01*
X165239865Y-117887517D01*
X165143734Y-118093673D01*
X165143730Y-118093682D01*
X165091127Y-118289999D01*
X165091128Y-118290000D01*
X165936988Y-118290000D01*
X165904075Y-118347007D01*
X165870000Y-118474174D01*
X165870000Y-118605826D01*
X165904075Y-118732993D01*
X165936988Y-118790000D01*
X165091128Y-118790000D01*
X165143730Y-118986317D01*
X165143734Y-118986326D01*
X165239865Y-119192482D01*
X165370342Y-119378820D01*
X165531179Y-119539657D01*
X165717518Y-119670134D01*
X165717520Y-119670135D01*
X165775865Y-119697342D01*
X165828305Y-119743514D01*
X165847457Y-119810707D01*
X165827242Y-119877589D01*
X165775867Y-119922105D01*
X165717268Y-119949431D01*
X165717264Y-119949433D01*
X165530858Y-120079954D01*
X165369954Y-120240858D01*
X165239432Y-120427265D01*
X165239431Y-120427267D01*
X165143261Y-120633502D01*
X165143258Y-120633511D01*
X165084366Y-120853302D01*
X165084364Y-120853313D01*
X165064532Y-121079998D01*
X165064532Y-121080001D01*
X165084364Y-121306686D01*
X165084366Y-121306697D01*
X165120997Y-121443407D01*
X165119334Y-121513257D01*
X165080171Y-121571119D01*
X165015943Y-121598623D01*
X165001222Y-121599500D01*
X163567229Y-121599500D01*
X163500190Y-121579815D01*
X163479548Y-121563181D01*
X155088549Y-113172181D01*
X155055064Y-113110858D01*
X155060048Y-113041166D01*
X155101920Y-112985233D01*
X155167384Y-112960816D01*
X155176230Y-112960500D01*
X155877770Y-112960500D01*
X155944809Y-112980185D01*
G37*
%TD.AperFunction*%
%TA.AperFunction,Conductor*%
G36*
X149822902Y-112980185D02*
G01*
X149868657Y-113032989D01*
X149878601Y-113102147D01*
X149875638Y-113116593D01*
X149844366Y-113233302D01*
X149844364Y-113233313D01*
X149824532Y-113459998D01*
X149824532Y-113460001D01*
X149844364Y-113686686D01*
X149844366Y-113686697D01*
X149903258Y-113906488D01*
X149903261Y-113906497D01*
X149999431Y-114112732D01*
X149999432Y-114112734D01*
X150129954Y-114299141D01*
X150290858Y-114460045D01*
X150290861Y-114460047D01*
X150477266Y-114590568D01*
X150535275Y-114617618D01*
X150587714Y-114663791D01*
X150606866Y-114730984D01*
X150586650Y-114797865D01*
X150535275Y-114842382D01*
X150477267Y-114869431D01*
X150477265Y-114869432D01*
X150290858Y-114999954D01*
X150129954Y-115160858D01*
X149999432Y-115347265D01*
X149999431Y-115347267D01*
X149903261Y-115553502D01*
X149903258Y-115553511D01*
X149844366Y-115773302D01*
X149844364Y-115773313D01*
X149824532Y-115999998D01*
X149824532Y-116000001D01*
X149844364Y-116226686D01*
X149844366Y-116226697D01*
X149903258Y-116446488D01*
X149903261Y-116446497D01*
X149999431Y-116652732D01*
X149999432Y-116652734D01*
X150129954Y-116839141D01*
X150290858Y-117000045D01*
X150290861Y-117000047D01*
X150477266Y-117130568D01*
X150535275Y-117157618D01*
X150587714Y-117203791D01*
X150606866Y-117270984D01*
X150586650Y-117337865D01*
X150535275Y-117382382D01*
X150477267Y-117409431D01*
X150477265Y-117409432D01*
X150323535Y-117517075D01*
X150257329Y-117539402D01*
X150252412Y-117539500D01*
X141516455Y-117539500D01*
X141419812Y-117558724D01*
X141323171Y-117577947D01*
X141323163Y-117577949D01*
X141291444Y-117591088D01*
X141291443Y-117591088D01*
X141141092Y-117653364D01*
X141141079Y-117653371D01*
X140977219Y-117762859D01*
X140938354Y-117801725D01*
X140837861Y-117902218D01*
X140837858Y-117902221D01*
X139331899Y-119408181D01*
X139270576Y-119441666D01*
X139244218Y-119444500D01*
X133825783Y-119444500D01*
X133758744Y-119424815D01*
X133738102Y-119408181D01*
X133526319Y-119196398D01*
X133492834Y-119135075D01*
X133490000Y-119108717D01*
X133490000Y-118243012D01*
X133547007Y-118275925D01*
X133674174Y-118310000D01*
X133805826Y-118310000D01*
X133932993Y-118275925D01*
X133990000Y-118243012D01*
X133990000Y-119140633D01*
X134203483Y-119083433D01*
X134203492Y-119083429D01*
X134417578Y-118983600D01*
X134611082Y-118848105D01*
X134778105Y-118681082D01*
X134913600Y-118487578D01*
X135013429Y-118273492D01*
X135013432Y-118273486D01*
X135070636Y-118060000D01*
X134173012Y-118060000D01*
X134205925Y-118002993D01*
X134240000Y-117875826D01*
X134240000Y-117744174D01*
X134205925Y-117617007D01*
X134173012Y-117560000D01*
X135070636Y-117560000D01*
X135070635Y-117559999D01*
X135013432Y-117346513D01*
X135013429Y-117346507D01*
X134913601Y-117132424D01*
X134782802Y-116945624D01*
X134760475Y-116879417D01*
X134777485Y-116811650D01*
X134828433Y-116763837D01*
X134884377Y-116750500D01*
X141688920Y-116750500D01*
X141786462Y-116731096D01*
X141833913Y-116721658D01*
X141902204Y-116693371D01*
X141970491Y-116665086D01*
X141970492Y-116665085D01*
X141970495Y-116665084D01*
X142041752Y-116617472D01*
X142093416Y-116582952D01*
X145679548Y-112996818D01*
X145740871Y-112963334D01*
X145767229Y-112960500D01*
X149755863Y-112960500D01*
X149822902Y-112980185D01*
G37*
%TD.AperFunction*%
%TA.AperFunction,Conductor*%
G36*
X149828261Y-110420185D02*
G01*
X149874016Y-110472989D01*
X149883960Y-110542147D01*
X149880997Y-110556593D01*
X149844366Y-110693302D01*
X149844364Y-110693313D01*
X149824532Y-110919998D01*
X149824532Y-110920001D01*
X149844364Y-111146686D01*
X149844366Y-111146697D01*
X149886356Y-111303407D01*
X149884693Y-111373257D01*
X149845530Y-111431119D01*
X149781302Y-111458623D01*
X149766581Y-111459500D01*
X145331080Y-111459500D01*
X145186092Y-111488340D01*
X145186082Y-111488343D01*
X145049511Y-111544912D01*
X145049498Y-111544919D01*
X144926584Y-111627048D01*
X144926580Y-111627051D01*
X141340451Y-115213181D01*
X141279128Y-115246666D01*
X141252770Y-115249500D01*
X134699050Y-115249500D01*
X134632011Y-115229815D01*
X134586256Y-115177011D01*
X134576312Y-115107853D01*
X134605337Y-115044297D01*
X134611369Y-115037819D01*
X134778105Y-114871082D01*
X134913600Y-114677578D01*
X135013429Y-114463492D01*
X135013432Y-114463486D01*
X135070636Y-114250000D01*
X134173012Y-114250000D01*
X134205925Y-114192993D01*
X134240000Y-114065826D01*
X134240000Y-113934174D01*
X134205925Y-113807007D01*
X134173012Y-113750000D01*
X135070636Y-113750000D01*
X135070635Y-113749999D01*
X135013432Y-113536513D01*
X135013429Y-113536507D01*
X134913601Y-113322424D01*
X134782802Y-113135624D01*
X134760475Y-113069417D01*
X134777485Y-113001650D01*
X134828433Y-112953837D01*
X134884377Y-112940500D01*
X142958920Y-112940500D01*
X143060126Y-112920368D01*
X143103913Y-112911658D01*
X143240495Y-112855084D01*
X143312060Y-112807266D01*
X143363416Y-112772952D01*
X145699548Y-110436818D01*
X145760871Y-110403334D01*
X145787229Y-110400500D01*
X149761222Y-110400500D01*
X149828261Y-110420185D01*
G37*
%TD.AperFunction*%
%TA.AperFunction,Conductor*%
G36*
X149753583Y-93140298D02*
G01*
X149809516Y-93182170D01*
X149833777Y-93245672D01*
X149844364Y-93366687D01*
X149844366Y-93366697D01*
X149903258Y-93586488D01*
X149903261Y-93586497D01*
X149999431Y-93792732D01*
X149999432Y-93792734D01*
X150129954Y-93979141D01*
X150290858Y-94140045D01*
X150290861Y-94140047D01*
X150477266Y-94270568D01*
X150535275Y-94297618D01*
X150587714Y-94343791D01*
X150606866Y-94410984D01*
X150586650Y-94477865D01*
X150535275Y-94522382D01*
X150477267Y-94549431D01*
X150477265Y-94549432D01*
X150290858Y-94679954D01*
X150129954Y-94840858D01*
X149999432Y-95027265D01*
X149999431Y-95027267D01*
X149903261Y-95233502D01*
X149903258Y-95233511D01*
X149844366Y-95453302D01*
X149844364Y-95453313D01*
X149824532Y-95679998D01*
X149824532Y-95680001D01*
X149844364Y-95906686D01*
X149844366Y-95906697D01*
X149903258Y-96126488D01*
X149903261Y-96126497D01*
X149999431Y-96332732D01*
X149999432Y-96332734D01*
X150129954Y-96519141D01*
X150290858Y-96680045D01*
X150290861Y-96680047D01*
X150477266Y-96810568D01*
X150530411Y-96835350D01*
X150535275Y-96837618D01*
X150587714Y-96883791D01*
X150606866Y-96950984D01*
X150586650Y-97017865D01*
X150535275Y-97062382D01*
X150477267Y-97089431D01*
X150477265Y-97089432D01*
X150290858Y-97219954D01*
X150129954Y-97380858D01*
X149999432Y-97567265D01*
X149999431Y-97567267D01*
X149903261Y-97773502D01*
X149903258Y-97773511D01*
X149844366Y-97993302D01*
X149844364Y-97993313D01*
X149824532Y-98219998D01*
X149824532Y-98220001D01*
X149844364Y-98446686D01*
X149844366Y-98446697D01*
X149903258Y-98666488D01*
X149903261Y-98666497D01*
X149999431Y-98872732D01*
X149999432Y-98872734D01*
X150129954Y-99059141D01*
X150290858Y-99220045D01*
X150290861Y-99220047D01*
X150477266Y-99350568D01*
X150511426Y-99366497D01*
X150535275Y-99377618D01*
X150587714Y-99423791D01*
X150606866Y-99490984D01*
X150586650Y-99557865D01*
X150535275Y-99602382D01*
X150477267Y-99629431D01*
X150477265Y-99629432D01*
X150290858Y-99759954D01*
X150129954Y-99920858D01*
X149999435Y-100107262D01*
X149999432Y-100107266D01*
X149903261Y-100313502D01*
X149903258Y-100313511D01*
X149844366Y-100533302D01*
X149844364Y-100533313D01*
X149824532Y-100759998D01*
X149824532Y-100760001D01*
X149844364Y-100986686D01*
X149844366Y-100986697D01*
X149903258Y-101206488D01*
X149903261Y-101206497D01*
X149999431Y-101412732D01*
X149999432Y-101412734D01*
X150129954Y-101599141D01*
X150290858Y-101760045D01*
X150290861Y-101760047D01*
X150477266Y-101890568D01*
X150535275Y-101917618D01*
X150587714Y-101963791D01*
X150606866Y-102030984D01*
X150586650Y-102097865D01*
X150535275Y-102142382D01*
X150477267Y-102169431D01*
X150477265Y-102169432D01*
X150290858Y-102299954D01*
X150129954Y-102460858D01*
X149999432Y-102647265D01*
X149999431Y-102647267D01*
X149903261Y-102853502D01*
X149903258Y-102853511D01*
X149844366Y-103073302D01*
X149844364Y-103073313D01*
X149824532Y-103299998D01*
X149824532Y-103300001D01*
X149844364Y-103526686D01*
X149844366Y-103526697D01*
X149903258Y-103746488D01*
X149903261Y-103746497D01*
X149999431Y-103952732D01*
X149999432Y-103952734D01*
X150129954Y-104139141D01*
X150290858Y-104300045D01*
X150337693Y-104332839D01*
X150477266Y-104430568D01*
X150500399Y-104441355D01*
X150535275Y-104457618D01*
X150587714Y-104503791D01*
X150606866Y-104570984D01*
X150586650Y-104637865D01*
X150535275Y-104682382D01*
X150477267Y-104709431D01*
X150477265Y-104709432D01*
X150290858Y-104839954D01*
X150129954Y-105000858D01*
X149999432Y-105187265D01*
X149999431Y-105187267D01*
X149903261Y-105393502D01*
X149903258Y-105393511D01*
X149844366Y-105613302D01*
X149844364Y-105613313D01*
X149824532Y-105839998D01*
X149824532Y-105840001D01*
X149844364Y-106066686D01*
X149844366Y-106066697D01*
X149903258Y-106286488D01*
X149903261Y-106286497D01*
X149999431Y-106492732D01*
X149999432Y-106492734D01*
X150129954Y-106679141D01*
X150290858Y-106840045D01*
X150290861Y-106840047D01*
X150477266Y-106970568D01*
X150535275Y-106997618D01*
X150587714Y-107043791D01*
X150606866Y-107110984D01*
X150586650Y-107177865D01*
X150535275Y-107222382D01*
X150477267Y-107249431D01*
X150477265Y-107249432D01*
X150290858Y-107379954D01*
X150129954Y-107540858D01*
X150047692Y-107658343D01*
X150008080Y-107714916D01*
X149999435Y-107727262D01*
X149999432Y-107727266D01*
X149903261Y-107933502D01*
X149903258Y-107933511D01*
X149844366Y-108153302D01*
X149844364Y-108153313D01*
X149824532Y-108379998D01*
X149824532Y-108380001D01*
X149844364Y-108606686D01*
X149844366Y-108606697D01*
X149880997Y-108743407D01*
X149879334Y-108813257D01*
X149840171Y-108871119D01*
X149775943Y-108898623D01*
X149761222Y-108899500D01*
X145351080Y-108899500D01*
X145206092Y-108928340D01*
X145206082Y-108928343D01*
X145069511Y-108984912D01*
X145069498Y-108984919D01*
X144946584Y-109067048D01*
X144946580Y-109067051D01*
X142610451Y-111403181D01*
X142549128Y-111436666D01*
X142522770Y-111439500D01*
X137239050Y-111439500D01*
X137172011Y-111419815D01*
X137126256Y-111367011D01*
X137116312Y-111297853D01*
X137145337Y-111234297D01*
X137151369Y-111227819D01*
X137318105Y-111061082D01*
X137453600Y-110867578D01*
X137553429Y-110653492D01*
X137553432Y-110653486D01*
X137610636Y-110440000D01*
X136713012Y-110440000D01*
X136745925Y-110382993D01*
X136780000Y-110255826D01*
X136780000Y-110124174D01*
X136745925Y-109997007D01*
X136713012Y-109940000D01*
X137610636Y-109940000D01*
X137610635Y-109939999D01*
X137553432Y-109726513D01*
X137553429Y-109726507D01*
X137453600Y-109512422D01*
X137453599Y-109512420D01*
X137318113Y-109318926D01*
X137318108Y-109318920D01*
X137151082Y-109151894D01*
X136957578Y-109016399D01*
X136743492Y-108916570D01*
X136743483Y-108916566D01*
X136515326Y-108855432D01*
X136515316Y-108855430D01*
X136431363Y-108848085D01*
X136366294Y-108822632D01*
X136325316Y-108766041D01*
X136321438Y-108696279D01*
X136354487Y-108636879D01*
X137094549Y-107896819D01*
X137155872Y-107863334D01*
X137182230Y-107860500D01*
X141053920Y-107860500D01*
X141151462Y-107841096D01*
X141198913Y-107831658D01*
X141335495Y-107775084D01*
X141407060Y-107727266D01*
X141458416Y-107692952D01*
X148547952Y-100603416D01*
X148568133Y-100573211D01*
X148609305Y-100511594D01*
X148609307Y-100511589D01*
X148609313Y-100511581D01*
X148630084Y-100480495D01*
X148661560Y-100404505D01*
X148664838Y-100396593D01*
X148671662Y-100380116D01*
X148686659Y-100343912D01*
X148715500Y-100198917D01*
X148715500Y-100051082D01*
X148715500Y-94127229D01*
X148735185Y-94060190D01*
X148751814Y-94039552D01*
X149622568Y-93168798D01*
X149683891Y-93135314D01*
X149753583Y-93140298D01*
G37*
%TD.AperFunction*%
%TA.AperFunction,Conductor*%
G36*
X181493632Y-95379587D02*
G01*
X181556514Y-95410042D01*
X181592949Y-95469660D01*
X181591368Y-95539512D01*
X181552273Y-95597420D01*
X181551882Y-95597743D01*
X181544115Y-95604117D01*
X181516645Y-95637589D01*
X181508475Y-95646603D01*
X180926158Y-96228921D01*
X180347221Y-96807858D01*
X180347218Y-96807861D01*
X180286987Y-96868092D01*
X180207859Y-96947219D01*
X180098371Y-97111079D01*
X180098364Y-97111092D01*
X180051387Y-97224508D01*
X180051387Y-97224509D01*
X180022949Y-97293162D01*
X180022949Y-97293164D01*
X180005505Y-97380861D01*
X180005505Y-97380862D01*
X179984500Y-97486456D01*
X179984500Y-99742550D01*
X179964815Y-99809589D01*
X179912011Y-99855344D01*
X179842853Y-99865288D01*
X179820237Y-99859831D01*
X179619496Y-99790916D01*
X179374296Y-99750000D01*
X179125710Y-99750000D01*
X178880509Y-99790916D01*
X178645399Y-99871630D01*
X178645393Y-99871632D01*
X178426764Y-99989949D01*
X178379945Y-100026388D01*
X178379945Y-100026390D01*
X179079768Y-100726212D01*
X179037711Y-100737482D01*
X178912295Y-100809890D01*
X178809893Y-100912292D01*
X178737485Y-101037708D01*
X178726215Y-101079764D01*
X178026567Y-100380116D01*
X177926270Y-100533632D01*
X177826415Y-100761282D01*
X177765390Y-101002261D01*
X177765388Y-101002270D01*
X177744862Y-101249994D01*
X177744862Y-101250005D01*
X177765388Y-101497729D01*
X177765390Y-101497738D01*
X177826415Y-101738717D01*
X177926269Y-101966364D01*
X178026567Y-102119882D01*
X178726215Y-101420234D01*
X178737485Y-101462292D01*
X178809893Y-101587708D01*
X178912295Y-101690110D01*
X179037711Y-101762518D01*
X179079766Y-101773787D01*
X178379945Y-102473609D01*
X178426771Y-102510055D01*
X178426773Y-102510056D01*
X178645388Y-102628364D01*
X178645399Y-102628369D01*
X178880509Y-102709083D01*
X179125710Y-102750000D01*
X179374296Y-102750000D01*
X179619496Y-102709083D01*
X179820237Y-102640168D01*
X179890035Y-102637018D01*
X179950457Y-102672104D01*
X179982317Y-102734286D01*
X179984500Y-102757449D01*
X179984500Y-104242020D01*
X179964815Y-104309059D01*
X179912011Y-104354814D01*
X179842853Y-104364758D01*
X179820237Y-104359301D01*
X179619619Y-104290429D01*
X179374338Y-104249500D01*
X179125668Y-104249500D01*
X178880386Y-104290429D01*
X178645200Y-104371169D01*
X178645191Y-104371172D01*
X178426496Y-104489524D01*
X178235908Y-104637865D01*
X178230259Y-104642262D01*
X178168426Y-104709431D01*
X178061839Y-104825215D01*
X177984676Y-104943322D01*
X177931529Y-104988678D01*
X177880867Y-104999500D01*
X174119139Y-104999500D01*
X174052100Y-104979815D01*
X174015330Y-104943322D01*
X173938167Y-104825215D01*
X173769747Y-104642262D01*
X173573512Y-104489526D01*
X173573510Y-104489525D01*
X173573509Y-104489524D01*
X173354814Y-104371172D01*
X173354805Y-104371169D01*
X173119619Y-104290429D01*
X172874338Y-104249500D01*
X172625668Y-104249500D01*
X172380386Y-104290429D01*
X172145200Y-104371169D01*
X172145191Y-104371172D01*
X171926496Y-104489524D01*
X171730260Y-104642261D01*
X171561836Y-104825217D01*
X171425877Y-105033321D01*
X171372731Y-105078678D01*
X171322068Y-105089500D01*
X167496663Y-105089500D01*
X167429624Y-105069815D01*
X167395088Y-105036623D01*
X167370045Y-105000858D01*
X167209141Y-104839954D01*
X167022734Y-104709432D01*
X167022728Y-104709429D01*
X166964725Y-104682382D01*
X166912285Y-104636210D01*
X166893133Y-104569017D01*
X166913348Y-104502135D01*
X166964725Y-104457618D01*
X167022734Y-104430568D01*
X167209139Y-104300047D01*
X167370047Y-104139139D01*
X167500568Y-103952734D01*
X167596739Y-103746496D01*
X167655635Y-103526692D01*
X167675468Y-103300000D01*
X167655635Y-103073308D01*
X167596739Y-102853504D01*
X167500568Y-102647266D01*
X167370047Y-102460861D01*
X167370045Y-102460858D01*
X167209141Y-102299954D01*
X167022734Y-102169432D01*
X167022728Y-102169429D01*
X166964725Y-102142382D01*
X166912285Y-102096210D01*
X166893133Y-102029017D01*
X166913348Y-101962135D01*
X166964725Y-101917618D01*
X167022734Y-101890568D01*
X167209139Y-101760047D01*
X167370047Y-101599139D01*
X167500568Y-101412734D01*
X167596739Y-101206496D01*
X167655635Y-100986692D01*
X167675468Y-100760000D01*
X167655635Y-100533308D01*
X167639245Y-100472139D01*
X167619003Y-100396593D01*
X167620666Y-100326743D01*
X167659829Y-100268881D01*
X167724057Y-100241377D01*
X167738778Y-100240500D01*
X171388651Y-100240500D01*
X171455690Y-100260185D01*
X171501445Y-100312989D01*
X171511389Y-100382147D01*
X171492460Y-100432321D01*
X171426270Y-100533632D01*
X171326415Y-100761282D01*
X171265390Y-101002261D01*
X171265388Y-101002270D01*
X171244862Y-101249994D01*
X171244862Y-101250005D01*
X171265388Y-101497729D01*
X171265390Y-101497738D01*
X171326415Y-101738717D01*
X171426269Y-101966364D01*
X171526567Y-102119882D01*
X172226215Y-101420233D01*
X172237485Y-101462292D01*
X172309893Y-101587708D01*
X172412295Y-101690110D01*
X172537711Y-101762518D01*
X172579768Y-101773787D01*
X171879945Y-102473609D01*
X171926771Y-102510055D01*
X171926773Y-102510056D01*
X172145388Y-102628364D01*
X172145399Y-102628369D01*
X172380509Y-102709083D01*
X172625710Y-102750000D01*
X172874296Y-102750000D01*
X173119496Y-102709083D01*
X173354606Y-102628369D01*
X173354617Y-102628364D01*
X173573231Y-102510057D01*
X173573234Y-102510055D01*
X173620059Y-102473609D01*
X172920237Y-101773787D01*
X172962295Y-101762518D01*
X173087711Y-101690110D01*
X173190113Y-101587708D01*
X173262521Y-101462292D01*
X173273790Y-101420235D01*
X173973437Y-102119882D01*
X174073734Y-101966369D01*
X174173590Y-101738717D01*
X174234615Y-101497738D01*
X174234617Y-101497729D01*
X174255144Y-101250005D01*
X174255144Y-101249994D01*
X174234617Y-101002270D01*
X174234615Y-101002261D01*
X174173590Y-100761282D01*
X174073735Y-100533632D01*
X174007546Y-100432321D01*
X173987358Y-100365432D01*
X174006539Y-100298246D01*
X174058998Y-100252096D01*
X174111355Y-100240500D01*
X176318923Y-100240500D01*
X176416465Y-100221096D01*
X176463916Y-100211658D01*
X176600498Y-100155084D01*
X176672063Y-100107266D01*
X176723419Y-100072952D01*
X181382640Y-95413728D01*
X181443961Y-95380245D01*
X181490736Y-95379104D01*
X181493632Y-95379587D01*
G37*
%TD.AperFunction*%
%TA.AperFunction,Conductor*%
G36*
X193378068Y-92640185D02*
G01*
X193423823Y-92692989D01*
X193433767Y-92762147D01*
X193410296Y-92818811D01*
X193381207Y-92857668D01*
X193381205Y-92857671D01*
X193330911Y-92992517D01*
X193324504Y-93052116D01*
X193324504Y-93052123D01*
X193324503Y-93052135D01*
X193324503Y-94287769D01*
X193304818Y-94354808D01*
X193288184Y-94375450D01*
X190562052Y-97101581D01*
X190562049Y-97101584D01*
X190529091Y-97150909D01*
X190529092Y-97150910D01*
X190477606Y-97227965D01*
X190423994Y-97272771D01*
X190354669Y-97281478D01*
X190291641Y-97251324D01*
X190254921Y-97191881D01*
X190250503Y-97159075D01*
X190250503Y-95524000D01*
X190270188Y-95456961D01*
X190322992Y-95411206D01*
X190374503Y-95400000D01*
X190525003Y-95400000D01*
X190525003Y-94375277D01*
X190601309Y-94419333D01*
X190715759Y-94450000D01*
X190834247Y-94450000D01*
X190948697Y-94419333D01*
X191025003Y-94375277D01*
X191025003Y-95400000D01*
X191722831Y-95400000D01*
X191722847Y-95399999D01*
X191782375Y-95393598D01*
X191782382Y-95393596D01*
X191917089Y-95343354D01*
X191917096Y-95343350D01*
X192032190Y-95257190D01*
X192032193Y-95257187D01*
X192118353Y-95142093D01*
X192118357Y-95142086D01*
X192168599Y-95007379D01*
X192168601Y-95007372D01*
X192175002Y-94947844D01*
X192175003Y-94947827D01*
X192175003Y-94250000D01*
X191150281Y-94250000D01*
X191194336Y-94173694D01*
X191225003Y-94059244D01*
X191225003Y-93940756D01*
X191194336Y-93826306D01*
X191150281Y-93750000D01*
X192175003Y-93750000D01*
X192175003Y-93052172D01*
X192175002Y-93052155D01*
X192168601Y-92992627D01*
X192168599Y-92992620D01*
X192118357Y-92857913D01*
X192118355Y-92857910D01*
X192089086Y-92818812D01*
X192064668Y-92753348D01*
X192079519Y-92685075D01*
X192128923Y-92635669D01*
X192188352Y-92620500D01*
X193311029Y-92620500D01*
X193378068Y-92640185D01*
G37*
%TD.AperFunction*%
%TD*%
M02*
