M48
; DRILL file {KiCad 8.0.0} date 2024-04-12T21:26:12+1000
; FORMAT={-:-/ absolute / metric / decimal}
; #@! TF.CreationDate,2024-04-12T21:26:12+10:00
; #@! TF.GenerationSoftware,Kicad,Pcbnew,8.0.0
; #@! TF.FileFunction,Plated,1,2,PTH
FMAT,2
METRIC
; #@! TA.AperFunction,Plated,PTH,ViaDrill
T1C0.500
; #@! TA.AperFunction,Plated,PTH,ComponentDrill
T2C0.600
; #@! TA.AperFunction,Plated,PTH,ComponentDrill
T3C0.800
; #@! TA.AperFunction,Plated,PTH,ComponentDrill
T4C0.900
; #@! TA.AperFunction,Plated,PTH,ComponentDrill
T5C1.000
; #@! TA.AperFunction,Plated,PTH,ComponentDrill
T6C1.100
%
G90
G05
T1
X180.985Y-104.57
X182.255Y-96.315
X184.275Y-138.225
T2
X156.652Y-135.485
X156.652Y-139.085
T3
X162.27Y-135.685
X162.27Y-138.885
X164.77Y-135.685
X164.77Y-138.885
X167.27Y-135.685
X167.27Y-138.885
X183.0Y-98.92
X183.0Y-109.08
X183.0Y-118.92
X183.0Y-129.08
X186.5Y-98.92
X186.5Y-109.08
X186.5Y-118.92
X186.5Y-129.08
X189.5Y-98.92
X189.5Y-109.08
X189.5Y-118.92
X189.5Y-129.08
X192.5Y-98.92
X192.5Y-109.08
X192.5Y-118.92
X192.5Y-129.08
X196.0Y-98.92
X196.0Y-109.08
X196.0Y-118.92
X196.0Y-129.08
X199.0Y-98.92
X199.0Y-109.08
X199.0Y-118.92
X199.0Y-129.08
X202.0Y-98.92
X202.0Y-109.08
X202.0Y-118.92
X202.0Y-129.08
T4
X181.735Y-94.0
X181.735Y-114.0
X181.735Y-134.0
X184.275Y-94.0
X184.275Y-114.0
X184.275Y-134.0
X188.235Y-94.0
X188.235Y-114.0
X188.235Y-134.0
X190.775Y-94.0
X190.775Y-114.0
X190.775Y-134.0
X194.725Y-94.0
X194.725Y-114.0
X194.725Y-134.0
X197.265Y-94.0
X197.265Y-114.0
X197.265Y-134.0
X200.6Y-113.24
X202.378Y-114.764
X203.902Y-113.24
X205.426Y-114.764
T5
X128.66Y-110.19
X128.66Y-114.0
X128.66Y-117.81
X131.2Y-110.19
X131.2Y-114.0
X131.2Y-117.81
X133.74Y-110.19
X133.74Y-114.0
X133.74Y-117.81
X136.28Y-110.19
X151.13Y-90.6
X151.13Y-93.14
X151.13Y-95.68
X151.13Y-98.22
X151.13Y-100.76
X151.13Y-103.3
X151.13Y-105.84
X151.13Y-108.38
X151.13Y-110.92
X151.13Y-113.46
X151.13Y-116.0
X151.13Y-118.54
X151.13Y-121.08
X151.13Y-123.62
X151.13Y-126.16
X166.37Y-90.6
X166.37Y-93.14
X166.37Y-95.68
X166.37Y-98.22
X166.37Y-100.76
X166.37Y-103.3
X166.37Y-105.84
X166.37Y-108.38
X166.37Y-110.92
X166.37Y-113.46
X166.37Y-116.0
X166.37Y-118.54
X166.37Y-121.08
X166.37Y-123.62
X166.37Y-126.16
T6
X172.75Y-101.25
X172.75Y-105.75
X172.75Y-121.75
X172.75Y-126.25
X179.25Y-101.25
X179.25Y-105.75
X179.25Y-121.75
X179.25Y-126.25
M30
