%TF.GenerationSoftware,KiCad,Pcbnew,8.0.0*%
%TF.CreationDate,2024-04-12T21:26:35+10:00*%
%TF.ProjectId,ghost-bot,67686f73-742d-4626-9f74-2e6b69636164,rev?*%
%TF.SameCoordinates,Original*%
%TF.FileFunction,Drillmap*%
%TF.FilePolarity,Positive*%
%FSLAX45Y45*%
G04 Gerber Fmt 4.5, Leading zero omitted, Abs format (unit mm)*
G04 Created by KiCad (PCBNEW 8.0.0) date 2024-04-12 21:26:35*
%MOMM*%
%LPD*%
G01*
G04 APERTURE LIST*
%ADD10C,0.200000*%
%ADD11C,0.150000*%
%ADD12C,0.250000*%
%ADD13C,0.100000*%
%ADD14C,0.270000*%
G04 APERTURE END LIST*
D10*
X18250000Y-14400000D02*
X10750000Y-14400000D01*
X18250000Y-8400000D02*
X10750000Y-8400000D01*
X10750000Y-9600000D02*
G75*
G02*
X10750000Y-8400000I0J600000D01*
G01*
X10750001Y-9600000D02*
G75*
G02*
X10750000Y-10800000I-1J-600000D01*
G01*
X10750001Y-12000000D02*
G75*
G02*
X10750000Y-13200000I-1J-600000D01*
G01*
X10750000Y-12000000D02*
G75*
G02*
X10750000Y-10800000I0J600000D01*
G01*
X10750000Y-9600000D02*
X10750001Y-9600000D01*
X10750000Y-12000000D02*
X10750001Y-12000000D01*
X10750000Y-14400000D02*
G75*
G02*
X10750000Y-13200000I0J600000D01*
G01*
X18250000Y-8400000D02*
G75*
G02*
X18250000Y-14400000I0J-3000000D01*
G01*
D11*
X14990214Y-13473500D02*
X15140214Y-13623500D01*
X15140214Y-13473500D02*
X14990214Y-13623500D01*
X14990214Y-13833500D02*
X15140214Y-13983500D01*
X15140214Y-13833500D02*
X14990214Y-13983500D01*
D12*
X11875000Y-9550000D02*
G75*
G02*
X11625000Y-9550000I-125000J0D01*
G01*
X11625000Y-9550000D02*
G75*
G02*
X11875000Y-9550000I125000J0D01*
G01*
D13*
X11625000Y-9425000D02*
X11625000Y-9675000D01*
X11875000Y-9675000D02*
G75*
G02*
X11625000Y-9675000I-125000J0D01*
G01*
X11875000Y-9675000D02*
X11875000Y-9425000D01*
X11875000Y-9425000D02*
G75*
G03*
X11625000Y-9425000I-125000J0D01*
G01*
D12*
X11875000Y-13250000D02*
G75*
G02*
X11625000Y-13250000I-125000J0D01*
G01*
X11625000Y-13250000D02*
G75*
G02*
X11875000Y-13250000I125000J0D01*
G01*
D13*
X11625000Y-13125000D02*
X11625000Y-13375000D01*
X11875000Y-13375000D02*
G75*
G02*
X11625000Y-13375000I-125000J0D01*
G01*
X11875000Y-13375000D02*
X11875000Y-13125000D01*
X11875000Y-13125000D02*
G75*
G03*
X11625000Y-13125000I-125000J0D01*
G01*
D12*
X14625000Y-9550000D02*
G75*
G02*
X14375000Y-9550000I-125000J0D01*
G01*
X14375000Y-9550000D02*
G75*
G02*
X14625000Y-9550000I125000J0D01*
G01*
D13*
X14375000Y-9425000D02*
X14375000Y-9675000D01*
X14625000Y-9675000D02*
G75*
G02*
X14375000Y-9675000I-125000J0D01*
G01*
X14625000Y-9675000D02*
X14625000Y-9425000D01*
X14625000Y-9425000D02*
G75*
G03*
X14375000Y-9425000I-125000J0D01*
G01*
D12*
X14625000Y-13250000D02*
G75*
G02*
X14375000Y-13250000I-125000J0D01*
G01*
X14375000Y-13250000D02*
G75*
G02*
X14625000Y-13250000I125000J0D01*
G01*
D13*
X14375000Y-13125000D02*
X14375000Y-13375000D01*
X14625000Y-13375000D02*
G75*
G02*
X14375000Y-13375000I-125000J0D01*
G01*
X14625000Y-13375000D02*
X14625000Y-13125000D01*
X14625000Y-13125000D02*
G75*
G03*
X14375000Y-13125000I-125000J0D01*
G01*
D14*
X11850000Y-11265000D02*
X11850000Y-11535000D01*
X11715000Y-11400000D02*
X11985000Y-11400000D01*
X17590000Y-11265000D02*
X17590000Y-11535000D01*
X17455000Y-11400000D02*
X17725000Y-11400000D01*
D10*
X10400777Y-14721484D02*
X10400777Y-14521484D01*
X10400777Y-14521484D02*
X10448396Y-14521484D01*
X10448396Y-14521484D02*
X10476967Y-14531008D01*
X10476967Y-14531008D02*
X10496015Y-14550055D01*
X10496015Y-14550055D02*
X10505539Y-14569103D01*
X10505539Y-14569103D02*
X10515063Y-14607198D01*
X10515063Y-14607198D02*
X10515063Y-14635769D01*
X10515063Y-14635769D02*
X10505539Y-14673865D01*
X10505539Y-14673865D02*
X10496015Y-14692912D01*
X10496015Y-14692912D02*
X10476967Y-14711960D01*
X10476967Y-14711960D02*
X10448396Y-14721484D01*
X10448396Y-14721484D02*
X10400777Y-14721484D01*
X10600777Y-14721484D02*
X10600777Y-14588150D01*
X10600777Y-14626246D02*
X10610301Y-14607198D01*
X10610301Y-14607198D02*
X10619824Y-14597674D01*
X10619824Y-14597674D02*
X10638872Y-14588150D01*
X10638872Y-14588150D02*
X10657920Y-14588150D01*
X10724586Y-14721484D02*
X10724586Y-14588150D01*
X10724586Y-14521484D02*
X10715063Y-14531008D01*
X10715063Y-14531008D02*
X10724586Y-14540531D01*
X10724586Y-14540531D02*
X10734110Y-14531008D01*
X10734110Y-14531008D02*
X10724586Y-14521484D01*
X10724586Y-14521484D02*
X10724586Y-14540531D01*
X10848396Y-14721484D02*
X10829348Y-14711960D01*
X10829348Y-14711960D02*
X10819824Y-14692912D01*
X10819824Y-14692912D02*
X10819824Y-14521484D01*
X10953158Y-14721484D02*
X10934110Y-14711960D01*
X10934110Y-14711960D02*
X10924586Y-14692912D01*
X10924586Y-14692912D02*
X10924586Y-14521484D01*
X11181729Y-14721484D02*
X11181729Y-14521484D01*
X11181729Y-14521484D02*
X11248396Y-14664341D01*
X11248396Y-14664341D02*
X11315062Y-14521484D01*
X11315062Y-14521484D02*
X11315062Y-14721484D01*
X11496015Y-14721484D02*
X11496015Y-14616722D01*
X11496015Y-14616722D02*
X11486491Y-14597674D01*
X11486491Y-14597674D02*
X11467443Y-14588150D01*
X11467443Y-14588150D02*
X11429348Y-14588150D01*
X11429348Y-14588150D02*
X11410301Y-14597674D01*
X11496015Y-14711960D02*
X11476967Y-14721484D01*
X11476967Y-14721484D02*
X11429348Y-14721484D01*
X11429348Y-14721484D02*
X11410301Y-14711960D01*
X11410301Y-14711960D02*
X11400777Y-14692912D01*
X11400777Y-14692912D02*
X11400777Y-14673865D01*
X11400777Y-14673865D02*
X11410301Y-14654817D01*
X11410301Y-14654817D02*
X11429348Y-14645293D01*
X11429348Y-14645293D02*
X11476967Y-14645293D01*
X11476967Y-14645293D02*
X11496015Y-14635769D01*
X11591253Y-14588150D02*
X11591253Y-14788150D01*
X11591253Y-14597674D02*
X11610301Y-14588150D01*
X11610301Y-14588150D02*
X11648396Y-14588150D01*
X11648396Y-14588150D02*
X11667443Y-14597674D01*
X11667443Y-14597674D02*
X11676967Y-14607198D01*
X11676967Y-14607198D02*
X11686491Y-14626246D01*
X11686491Y-14626246D02*
X11686491Y-14683388D01*
X11686491Y-14683388D02*
X11676967Y-14702436D01*
X11676967Y-14702436D02*
X11667443Y-14711960D01*
X11667443Y-14711960D02*
X11648396Y-14721484D01*
X11648396Y-14721484D02*
X11610301Y-14721484D01*
X11610301Y-14721484D02*
X11591253Y-14711960D01*
X11772205Y-14702436D02*
X11781729Y-14711960D01*
X11781729Y-14711960D02*
X11772205Y-14721484D01*
X11772205Y-14721484D02*
X11762682Y-14711960D01*
X11762682Y-14711960D02*
X11772205Y-14702436D01*
X11772205Y-14702436D02*
X11772205Y-14721484D01*
X11772205Y-14597674D02*
X11781729Y-14607198D01*
X11781729Y-14607198D02*
X11772205Y-14616722D01*
X11772205Y-14616722D02*
X11762682Y-14607198D01*
X11762682Y-14607198D02*
X11772205Y-14597674D01*
X11772205Y-14597674D02*
X11772205Y-14616722D01*
D11*
X9990000Y-14975000D02*
X10140000Y-15125000D01*
X10140000Y-14975000D02*
X9990000Y-15125000D01*
D10*
X10505539Y-15141484D02*
X10391253Y-15141484D01*
X10448396Y-15141484D02*
X10448396Y-14941484D01*
X10448396Y-14941484D02*
X10429348Y-14970055D01*
X10429348Y-14970055D02*
X10410301Y-14989103D01*
X10410301Y-14989103D02*
X10391253Y-14998627D01*
X10591253Y-15122436D02*
X10600777Y-15131960D01*
X10600777Y-15131960D02*
X10591253Y-15141484D01*
X10591253Y-15141484D02*
X10581729Y-15131960D01*
X10581729Y-15131960D02*
X10591253Y-15122436D01*
X10591253Y-15122436D02*
X10591253Y-15141484D01*
X10781729Y-14941484D02*
X10686491Y-14941484D01*
X10686491Y-14941484D02*
X10676967Y-15036722D01*
X10676967Y-15036722D02*
X10686491Y-15027198D01*
X10686491Y-15027198D02*
X10705539Y-15017674D01*
X10705539Y-15017674D02*
X10753158Y-15017674D01*
X10753158Y-15017674D02*
X10772205Y-15027198D01*
X10772205Y-15027198D02*
X10781729Y-15036722D01*
X10781729Y-15036722D02*
X10791253Y-15055769D01*
X10791253Y-15055769D02*
X10791253Y-15103388D01*
X10791253Y-15103388D02*
X10781729Y-15122436D01*
X10781729Y-15122436D02*
X10772205Y-15131960D01*
X10772205Y-15131960D02*
X10753158Y-15141484D01*
X10753158Y-15141484D02*
X10705539Y-15141484D01*
X10705539Y-15141484D02*
X10686491Y-15131960D01*
X10686491Y-15131960D02*
X10676967Y-15122436D01*
X10915063Y-14941484D02*
X10934110Y-14941484D01*
X10934110Y-14941484D02*
X10953158Y-14951008D01*
X10953158Y-14951008D02*
X10962682Y-14960531D01*
X10962682Y-14960531D02*
X10972205Y-14979579D01*
X10972205Y-14979579D02*
X10981729Y-15017674D01*
X10981729Y-15017674D02*
X10981729Y-15065293D01*
X10981729Y-15065293D02*
X10972205Y-15103388D01*
X10972205Y-15103388D02*
X10962682Y-15122436D01*
X10962682Y-15122436D02*
X10953158Y-15131960D01*
X10953158Y-15131960D02*
X10934110Y-15141484D01*
X10934110Y-15141484D02*
X10915063Y-15141484D01*
X10915063Y-15141484D02*
X10896015Y-15131960D01*
X10896015Y-15131960D02*
X10886491Y-15122436D01*
X10886491Y-15122436D02*
X10876967Y-15103388D01*
X10876967Y-15103388D02*
X10867444Y-15065293D01*
X10867444Y-15065293D02*
X10867444Y-15017674D01*
X10867444Y-15017674D02*
X10876967Y-14979579D01*
X10876967Y-14979579D02*
X10886491Y-14960531D01*
X10886491Y-14960531D02*
X10896015Y-14951008D01*
X10896015Y-14951008D02*
X10915063Y-14941484D01*
X11105539Y-14941484D02*
X11124586Y-14941484D01*
X11124586Y-14941484D02*
X11143634Y-14951008D01*
X11143634Y-14951008D02*
X11153158Y-14960531D01*
X11153158Y-14960531D02*
X11162682Y-14979579D01*
X11162682Y-14979579D02*
X11172205Y-15017674D01*
X11172205Y-15017674D02*
X11172205Y-15065293D01*
X11172205Y-15065293D02*
X11162682Y-15103388D01*
X11162682Y-15103388D02*
X11153158Y-15122436D01*
X11153158Y-15122436D02*
X11143634Y-15131960D01*
X11143634Y-15131960D02*
X11124586Y-15141484D01*
X11124586Y-15141484D02*
X11105539Y-15141484D01*
X11105539Y-15141484D02*
X11086491Y-15131960D01*
X11086491Y-15131960D02*
X11076967Y-15122436D01*
X11076967Y-15122436D02*
X11067444Y-15103388D01*
X11067444Y-15103388D02*
X11057920Y-15065293D01*
X11057920Y-15065293D02*
X11057920Y-15017674D01*
X11057920Y-15017674D02*
X11067444Y-14979579D01*
X11067444Y-14979579D02*
X11076967Y-14960531D01*
X11076967Y-14960531D02*
X11086491Y-14951008D01*
X11086491Y-14951008D02*
X11105539Y-14941484D01*
X11257920Y-15141484D02*
X11257920Y-15008150D01*
X11257920Y-15027198D02*
X11267443Y-15017674D01*
X11267443Y-15017674D02*
X11286491Y-15008150D01*
X11286491Y-15008150D02*
X11315063Y-15008150D01*
X11315063Y-15008150D02*
X11334110Y-15017674D01*
X11334110Y-15017674D02*
X11343634Y-15036722D01*
X11343634Y-15036722D02*
X11343634Y-15141484D01*
X11343634Y-15036722D02*
X11353158Y-15017674D01*
X11353158Y-15017674D02*
X11372205Y-15008150D01*
X11372205Y-15008150D02*
X11400777Y-15008150D01*
X11400777Y-15008150D02*
X11419824Y-15017674D01*
X11419824Y-15017674D02*
X11429348Y-15036722D01*
X11429348Y-15036722D02*
X11429348Y-15141484D01*
X11524586Y-15141484D02*
X11524586Y-15008150D01*
X11524586Y-15027198D02*
X11534110Y-15017674D01*
X11534110Y-15017674D02*
X11553158Y-15008150D01*
X11553158Y-15008150D02*
X11581729Y-15008150D01*
X11581729Y-15008150D02*
X11600777Y-15017674D01*
X11600777Y-15017674D02*
X11610301Y-15036722D01*
X11610301Y-15036722D02*
X11610301Y-15141484D01*
X11610301Y-15036722D02*
X11619824Y-15017674D01*
X11619824Y-15017674D02*
X11638872Y-15008150D01*
X11638872Y-15008150D02*
X11667443Y-15008150D01*
X11667443Y-15008150D02*
X11686491Y-15017674D01*
X11686491Y-15017674D02*
X11696015Y-15036722D01*
X11696015Y-15036722D02*
X11696015Y-15141484D01*
X12086491Y-14931960D02*
X11915063Y-15189103D01*
X12343634Y-14941484D02*
X12362682Y-14941484D01*
X12362682Y-14941484D02*
X12381729Y-14951008D01*
X12381729Y-14951008D02*
X12391253Y-14960531D01*
X12391253Y-14960531D02*
X12400777Y-14979579D01*
X12400777Y-14979579D02*
X12410301Y-15017674D01*
X12410301Y-15017674D02*
X12410301Y-15065293D01*
X12410301Y-15065293D02*
X12400777Y-15103388D01*
X12400777Y-15103388D02*
X12391253Y-15122436D01*
X12391253Y-15122436D02*
X12381729Y-15131960D01*
X12381729Y-15131960D02*
X12362682Y-15141484D01*
X12362682Y-15141484D02*
X12343634Y-15141484D01*
X12343634Y-15141484D02*
X12324586Y-15131960D01*
X12324586Y-15131960D02*
X12315063Y-15122436D01*
X12315063Y-15122436D02*
X12305539Y-15103388D01*
X12305539Y-15103388D02*
X12296015Y-15065293D01*
X12296015Y-15065293D02*
X12296015Y-15017674D01*
X12296015Y-15017674D02*
X12305539Y-14979579D01*
X12305539Y-14979579D02*
X12315063Y-14960531D01*
X12315063Y-14960531D02*
X12324586Y-14951008D01*
X12324586Y-14951008D02*
X12343634Y-14941484D01*
X12496015Y-15122436D02*
X12505539Y-15131960D01*
X12505539Y-15131960D02*
X12496015Y-15141484D01*
X12496015Y-15141484D02*
X12486491Y-15131960D01*
X12486491Y-15131960D02*
X12496015Y-15122436D01*
X12496015Y-15122436D02*
X12496015Y-15141484D01*
X12629348Y-14941484D02*
X12648396Y-14941484D01*
X12648396Y-14941484D02*
X12667444Y-14951008D01*
X12667444Y-14951008D02*
X12676967Y-14960531D01*
X12676967Y-14960531D02*
X12686491Y-14979579D01*
X12686491Y-14979579D02*
X12696015Y-15017674D01*
X12696015Y-15017674D02*
X12696015Y-15065293D01*
X12696015Y-15065293D02*
X12686491Y-15103388D01*
X12686491Y-15103388D02*
X12676967Y-15122436D01*
X12676967Y-15122436D02*
X12667444Y-15131960D01*
X12667444Y-15131960D02*
X12648396Y-15141484D01*
X12648396Y-15141484D02*
X12629348Y-15141484D01*
X12629348Y-15141484D02*
X12610301Y-15131960D01*
X12610301Y-15131960D02*
X12600777Y-15122436D01*
X12600777Y-15122436D02*
X12591253Y-15103388D01*
X12591253Y-15103388D02*
X12581729Y-15065293D01*
X12581729Y-15065293D02*
X12581729Y-15017674D01*
X12581729Y-15017674D02*
X12591253Y-14979579D01*
X12591253Y-14979579D02*
X12600777Y-14960531D01*
X12600777Y-14960531D02*
X12610301Y-14951008D01*
X12610301Y-14951008D02*
X12629348Y-14941484D01*
X12876967Y-14941484D02*
X12781729Y-14941484D01*
X12781729Y-14941484D02*
X12772206Y-15036722D01*
X12772206Y-15036722D02*
X12781729Y-15027198D01*
X12781729Y-15027198D02*
X12800777Y-15017674D01*
X12800777Y-15017674D02*
X12848396Y-15017674D01*
X12848396Y-15017674D02*
X12867444Y-15027198D01*
X12867444Y-15027198D02*
X12876967Y-15036722D01*
X12876967Y-15036722D02*
X12886491Y-15055769D01*
X12886491Y-15055769D02*
X12886491Y-15103388D01*
X12886491Y-15103388D02*
X12876967Y-15122436D01*
X12876967Y-15122436D02*
X12867444Y-15131960D01*
X12867444Y-15131960D02*
X12848396Y-15141484D01*
X12848396Y-15141484D02*
X12800777Y-15141484D01*
X12800777Y-15141484D02*
X12781729Y-15131960D01*
X12781729Y-15131960D02*
X12772206Y-15122436D01*
X12981729Y-15141484D02*
X13019825Y-15141484D01*
X13019825Y-15141484D02*
X13038872Y-15131960D01*
X13038872Y-15131960D02*
X13048396Y-15122436D01*
X13048396Y-15122436D02*
X13067444Y-15093865D01*
X13067444Y-15093865D02*
X13076967Y-15055769D01*
X13076967Y-15055769D02*
X13076967Y-14979579D01*
X13076967Y-14979579D02*
X13067444Y-14960531D01*
X13067444Y-14960531D02*
X13057920Y-14951008D01*
X13057920Y-14951008D02*
X13038872Y-14941484D01*
X13038872Y-14941484D02*
X13000777Y-14941484D01*
X13000777Y-14941484D02*
X12981729Y-14951008D01*
X12981729Y-14951008D02*
X12972206Y-14960531D01*
X12972206Y-14960531D02*
X12962682Y-14979579D01*
X12962682Y-14979579D02*
X12962682Y-15027198D01*
X12962682Y-15027198D02*
X12972206Y-15046246D01*
X12972206Y-15046246D02*
X12981729Y-15055769D01*
X12981729Y-15055769D02*
X13000777Y-15065293D01*
X13000777Y-15065293D02*
X13038872Y-15065293D01*
X13038872Y-15065293D02*
X13057920Y-15055769D01*
X13057920Y-15055769D02*
X13067444Y-15046246D01*
X13067444Y-15046246D02*
X13076967Y-15027198D01*
X13267444Y-15141484D02*
X13153158Y-15141484D01*
X13210301Y-15141484D02*
X13210301Y-14941484D01*
X13210301Y-14941484D02*
X13191253Y-14970055D01*
X13191253Y-14970055D02*
X13172206Y-14989103D01*
X13172206Y-14989103D02*
X13153158Y-14998627D01*
X13343634Y-14941484D02*
X13343634Y-14979579D01*
X13419825Y-14941484D02*
X13419825Y-14979579D01*
X13715063Y-15217674D02*
X13705539Y-15208150D01*
X13705539Y-15208150D02*
X13686491Y-15179579D01*
X13686491Y-15179579D02*
X13676968Y-15160531D01*
X13676968Y-15160531D02*
X13667444Y-15131960D01*
X13667444Y-15131960D02*
X13657920Y-15084341D01*
X13657920Y-15084341D02*
X13657920Y-15046246D01*
X13657920Y-15046246D02*
X13667444Y-14998627D01*
X13667444Y-14998627D02*
X13676968Y-14970055D01*
X13676968Y-14970055D02*
X13686491Y-14951008D01*
X13686491Y-14951008D02*
X13705539Y-14922436D01*
X13705539Y-14922436D02*
X13715063Y-14912912D01*
X13781729Y-14960531D02*
X13791253Y-14951008D01*
X13791253Y-14951008D02*
X13810301Y-14941484D01*
X13810301Y-14941484D02*
X13857920Y-14941484D01*
X13857920Y-14941484D02*
X13876968Y-14951008D01*
X13876968Y-14951008D02*
X13886491Y-14960531D01*
X13886491Y-14960531D02*
X13896015Y-14979579D01*
X13896015Y-14979579D02*
X13896015Y-14998627D01*
X13896015Y-14998627D02*
X13886491Y-15027198D01*
X13886491Y-15027198D02*
X13772206Y-15141484D01*
X13772206Y-15141484D02*
X13896015Y-15141484D01*
X14134110Y-15141484D02*
X14134110Y-14941484D01*
X14219825Y-15141484D02*
X14219825Y-15036722D01*
X14219825Y-15036722D02*
X14210301Y-15017674D01*
X14210301Y-15017674D02*
X14191253Y-15008150D01*
X14191253Y-15008150D02*
X14162682Y-15008150D01*
X14162682Y-15008150D02*
X14143634Y-15017674D01*
X14143634Y-15017674D02*
X14134110Y-15027198D01*
X14343634Y-15141484D02*
X14324587Y-15131960D01*
X14324587Y-15131960D02*
X14315063Y-15122436D01*
X14315063Y-15122436D02*
X14305539Y-15103388D01*
X14305539Y-15103388D02*
X14305539Y-15046246D01*
X14305539Y-15046246D02*
X14315063Y-15027198D01*
X14315063Y-15027198D02*
X14324587Y-15017674D01*
X14324587Y-15017674D02*
X14343634Y-15008150D01*
X14343634Y-15008150D02*
X14372206Y-15008150D01*
X14372206Y-15008150D02*
X14391253Y-15017674D01*
X14391253Y-15017674D02*
X14400777Y-15027198D01*
X14400777Y-15027198D02*
X14410301Y-15046246D01*
X14410301Y-15046246D02*
X14410301Y-15103388D01*
X14410301Y-15103388D02*
X14400777Y-15122436D01*
X14400777Y-15122436D02*
X14391253Y-15131960D01*
X14391253Y-15131960D02*
X14372206Y-15141484D01*
X14372206Y-15141484D02*
X14343634Y-15141484D01*
X14524587Y-15141484D02*
X14505539Y-15131960D01*
X14505539Y-15131960D02*
X14496015Y-15112912D01*
X14496015Y-15112912D02*
X14496015Y-14941484D01*
X14676968Y-15131960D02*
X14657920Y-15141484D01*
X14657920Y-15141484D02*
X14619825Y-15141484D01*
X14619825Y-15141484D02*
X14600777Y-15131960D01*
X14600777Y-15131960D02*
X14591253Y-15112912D01*
X14591253Y-15112912D02*
X14591253Y-15036722D01*
X14591253Y-15036722D02*
X14600777Y-15017674D01*
X14600777Y-15017674D02*
X14619825Y-15008150D01*
X14619825Y-15008150D02*
X14657920Y-15008150D01*
X14657920Y-15008150D02*
X14676968Y-15017674D01*
X14676968Y-15017674D02*
X14686491Y-15036722D01*
X14686491Y-15036722D02*
X14686491Y-15055769D01*
X14686491Y-15055769D02*
X14591253Y-15074817D01*
X14762682Y-15131960D02*
X14781730Y-15141484D01*
X14781730Y-15141484D02*
X14819825Y-15141484D01*
X14819825Y-15141484D02*
X14838872Y-15131960D01*
X14838872Y-15131960D02*
X14848396Y-15112912D01*
X14848396Y-15112912D02*
X14848396Y-15103388D01*
X14848396Y-15103388D02*
X14838872Y-15084341D01*
X14838872Y-15084341D02*
X14819825Y-15074817D01*
X14819825Y-15074817D02*
X14791253Y-15074817D01*
X14791253Y-15074817D02*
X14772206Y-15065293D01*
X14772206Y-15065293D02*
X14762682Y-15046246D01*
X14762682Y-15046246D02*
X14762682Y-15036722D01*
X14762682Y-15036722D02*
X14772206Y-15017674D01*
X14772206Y-15017674D02*
X14791253Y-15008150D01*
X14791253Y-15008150D02*
X14819825Y-15008150D01*
X14819825Y-15008150D02*
X14838872Y-15017674D01*
X14915063Y-15217674D02*
X14924587Y-15208150D01*
X14924587Y-15208150D02*
X14943634Y-15179579D01*
X14943634Y-15179579D02*
X14953158Y-15160531D01*
X14953158Y-15160531D02*
X14962682Y-15131960D01*
X14962682Y-15131960D02*
X14972206Y-15084341D01*
X14972206Y-15084341D02*
X14972206Y-15046246D01*
X14972206Y-15046246D02*
X14962682Y-14998627D01*
X14962682Y-14998627D02*
X14953158Y-14970055D01*
X14953158Y-14970055D02*
X14943634Y-14951008D01*
X14943634Y-14951008D02*
X14924587Y-14922436D01*
X14924587Y-14922436D02*
X14915063Y-14912912D01*
X15276968Y-15217674D02*
X15267444Y-15208150D01*
X15267444Y-15208150D02*
X15248396Y-15179579D01*
X15248396Y-15179579D02*
X15238872Y-15160531D01*
X15238872Y-15160531D02*
X15229349Y-15131960D01*
X15229349Y-15131960D02*
X15219825Y-15084341D01*
X15219825Y-15084341D02*
X15219825Y-15046246D01*
X15219825Y-15046246D02*
X15229349Y-14998627D01*
X15229349Y-14998627D02*
X15238872Y-14970055D01*
X15238872Y-14970055D02*
X15248396Y-14951008D01*
X15248396Y-14951008D02*
X15267444Y-14922436D01*
X15267444Y-14922436D02*
X15276968Y-14912912D01*
X15353158Y-15008150D02*
X15353158Y-15141484D01*
X15353158Y-15027198D02*
X15362682Y-15017674D01*
X15362682Y-15017674D02*
X15381730Y-15008150D01*
X15381730Y-15008150D02*
X15410301Y-15008150D01*
X15410301Y-15008150D02*
X15429349Y-15017674D01*
X15429349Y-15017674D02*
X15438872Y-15036722D01*
X15438872Y-15036722D02*
X15438872Y-15141484D01*
X15562682Y-15141484D02*
X15543634Y-15131960D01*
X15543634Y-15131960D02*
X15534111Y-15122436D01*
X15534111Y-15122436D02*
X15524587Y-15103388D01*
X15524587Y-15103388D02*
X15524587Y-15046246D01*
X15524587Y-15046246D02*
X15534111Y-15027198D01*
X15534111Y-15027198D02*
X15543634Y-15017674D01*
X15543634Y-15017674D02*
X15562682Y-15008150D01*
X15562682Y-15008150D02*
X15591253Y-15008150D01*
X15591253Y-15008150D02*
X15610301Y-15017674D01*
X15610301Y-15017674D02*
X15619825Y-15027198D01*
X15619825Y-15027198D02*
X15629349Y-15046246D01*
X15629349Y-15046246D02*
X15629349Y-15103388D01*
X15629349Y-15103388D02*
X15619825Y-15122436D01*
X15619825Y-15122436D02*
X15610301Y-15131960D01*
X15610301Y-15131960D02*
X15591253Y-15141484D01*
X15591253Y-15141484D02*
X15562682Y-15141484D01*
X15686492Y-15008150D02*
X15762682Y-15008150D01*
X15715063Y-14941484D02*
X15715063Y-15112912D01*
X15715063Y-15112912D02*
X15724587Y-15131960D01*
X15724587Y-15131960D02*
X15743634Y-15141484D01*
X15743634Y-15141484D02*
X15762682Y-15141484D01*
X15981730Y-15008150D02*
X15981730Y-15208150D01*
X15981730Y-15017674D02*
X16000777Y-15008150D01*
X16000777Y-15008150D02*
X16038873Y-15008150D01*
X16038873Y-15008150D02*
X16057920Y-15017674D01*
X16057920Y-15017674D02*
X16067444Y-15027198D01*
X16067444Y-15027198D02*
X16076968Y-15046246D01*
X16076968Y-15046246D02*
X16076968Y-15103388D01*
X16076968Y-15103388D02*
X16067444Y-15122436D01*
X16067444Y-15122436D02*
X16057920Y-15131960D01*
X16057920Y-15131960D02*
X16038873Y-15141484D01*
X16038873Y-15141484D02*
X16000777Y-15141484D01*
X16000777Y-15141484D02*
X15981730Y-15131960D01*
X16191253Y-15141484D02*
X16172206Y-15131960D01*
X16172206Y-15131960D02*
X16162682Y-15112912D01*
X16162682Y-15112912D02*
X16162682Y-14941484D01*
X16353158Y-15141484D02*
X16353158Y-15036722D01*
X16353158Y-15036722D02*
X16343634Y-15017674D01*
X16343634Y-15017674D02*
X16324587Y-15008150D01*
X16324587Y-15008150D02*
X16286492Y-15008150D01*
X16286492Y-15008150D02*
X16267444Y-15017674D01*
X16353158Y-15131960D02*
X16334111Y-15141484D01*
X16334111Y-15141484D02*
X16286492Y-15141484D01*
X16286492Y-15141484D02*
X16267444Y-15131960D01*
X16267444Y-15131960D02*
X16257920Y-15112912D01*
X16257920Y-15112912D02*
X16257920Y-15093865D01*
X16257920Y-15093865D02*
X16267444Y-15074817D01*
X16267444Y-15074817D02*
X16286492Y-15065293D01*
X16286492Y-15065293D02*
X16334111Y-15065293D01*
X16334111Y-15065293D02*
X16353158Y-15055769D01*
X16419825Y-15008150D02*
X16496015Y-15008150D01*
X16448396Y-14941484D02*
X16448396Y-15112912D01*
X16448396Y-15112912D02*
X16457920Y-15131960D01*
X16457920Y-15131960D02*
X16476968Y-15141484D01*
X16476968Y-15141484D02*
X16496015Y-15141484D01*
X16638873Y-15131960D02*
X16619825Y-15141484D01*
X16619825Y-15141484D02*
X16581730Y-15141484D01*
X16581730Y-15141484D02*
X16562682Y-15131960D01*
X16562682Y-15131960D02*
X16553158Y-15112912D01*
X16553158Y-15112912D02*
X16553158Y-15036722D01*
X16553158Y-15036722D02*
X16562682Y-15017674D01*
X16562682Y-15017674D02*
X16581730Y-15008150D01*
X16581730Y-15008150D02*
X16619825Y-15008150D01*
X16619825Y-15008150D02*
X16638873Y-15017674D01*
X16638873Y-15017674D02*
X16648396Y-15036722D01*
X16648396Y-15036722D02*
X16648396Y-15055769D01*
X16648396Y-15055769D02*
X16553158Y-15074817D01*
X16819825Y-15141484D02*
X16819825Y-14941484D01*
X16819825Y-15131960D02*
X16800777Y-15141484D01*
X16800777Y-15141484D02*
X16762682Y-15141484D01*
X16762682Y-15141484D02*
X16743634Y-15131960D01*
X16743634Y-15131960D02*
X16734111Y-15122436D01*
X16734111Y-15122436D02*
X16724587Y-15103388D01*
X16724587Y-15103388D02*
X16724587Y-15046246D01*
X16724587Y-15046246D02*
X16734111Y-15027198D01*
X16734111Y-15027198D02*
X16743634Y-15017674D01*
X16743634Y-15017674D02*
X16762682Y-15008150D01*
X16762682Y-15008150D02*
X16800777Y-15008150D01*
X16800777Y-15008150D02*
X16819825Y-15017674D01*
X16896016Y-15217674D02*
X16905539Y-15208150D01*
X16905539Y-15208150D02*
X16924587Y-15179579D01*
X16924587Y-15179579D02*
X16934111Y-15160531D01*
X16934111Y-15160531D02*
X16943635Y-15131960D01*
X16943635Y-15131960D02*
X16953158Y-15084341D01*
X16953158Y-15084341D02*
X16953158Y-15046246D01*
X16953158Y-15046246D02*
X16943635Y-14998627D01*
X16943635Y-14998627D02*
X16934111Y-14970055D01*
X16934111Y-14970055D02*
X16924587Y-14951008D01*
X16924587Y-14951008D02*
X16905539Y-14922436D01*
X16905539Y-14922436D02*
X16896016Y-14912912D01*
X10140000Y-15320000D02*
G75*
G02*
X9940000Y-15320000I-100000J0D01*
G01*
X9940000Y-15320000D02*
G75*
G02*
X10140000Y-15320000I100000J0D01*
G01*
X10391253Y-15230531D02*
X10400777Y-15221008D01*
X10400777Y-15221008D02*
X10419824Y-15211484D01*
X10419824Y-15211484D02*
X10467444Y-15211484D01*
X10467444Y-15211484D02*
X10486491Y-15221008D01*
X10486491Y-15221008D02*
X10496015Y-15230531D01*
X10496015Y-15230531D02*
X10505539Y-15249579D01*
X10505539Y-15249579D02*
X10505539Y-15268627D01*
X10505539Y-15268627D02*
X10496015Y-15297198D01*
X10496015Y-15297198D02*
X10381729Y-15411484D01*
X10381729Y-15411484D02*
X10505539Y-15411484D01*
X10591253Y-15392436D02*
X10600777Y-15401960D01*
X10600777Y-15401960D02*
X10591253Y-15411484D01*
X10591253Y-15411484D02*
X10581729Y-15401960D01*
X10581729Y-15401960D02*
X10591253Y-15392436D01*
X10591253Y-15392436D02*
X10591253Y-15411484D01*
X10781729Y-15211484D02*
X10686491Y-15211484D01*
X10686491Y-15211484D02*
X10676967Y-15306722D01*
X10676967Y-15306722D02*
X10686491Y-15297198D01*
X10686491Y-15297198D02*
X10705539Y-15287674D01*
X10705539Y-15287674D02*
X10753158Y-15287674D01*
X10753158Y-15287674D02*
X10772205Y-15297198D01*
X10772205Y-15297198D02*
X10781729Y-15306722D01*
X10781729Y-15306722D02*
X10791253Y-15325769D01*
X10791253Y-15325769D02*
X10791253Y-15373388D01*
X10791253Y-15373388D02*
X10781729Y-15392436D01*
X10781729Y-15392436D02*
X10772205Y-15401960D01*
X10772205Y-15401960D02*
X10753158Y-15411484D01*
X10753158Y-15411484D02*
X10705539Y-15411484D01*
X10705539Y-15411484D02*
X10686491Y-15401960D01*
X10686491Y-15401960D02*
X10676967Y-15392436D01*
X10915063Y-15211484D02*
X10934110Y-15211484D01*
X10934110Y-15211484D02*
X10953158Y-15221008D01*
X10953158Y-15221008D02*
X10962682Y-15230531D01*
X10962682Y-15230531D02*
X10972205Y-15249579D01*
X10972205Y-15249579D02*
X10981729Y-15287674D01*
X10981729Y-15287674D02*
X10981729Y-15335293D01*
X10981729Y-15335293D02*
X10972205Y-15373388D01*
X10972205Y-15373388D02*
X10962682Y-15392436D01*
X10962682Y-15392436D02*
X10953158Y-15401960D01*
X10953158Y-15401960D02*
X10934110Y-15411484D01*
X10934110Y-15411484D02*
X10915063Y-15411484D01*
X10915063Y-15411484D02*
X10896015Y-15401960D01*
X10896015Y-15401960D02*
X10886491Y-15392436D01*
X10886491Y-15392436D02*
X10876967Y-15373388D01*
X10876967Y-15373388D02*
X10867444Y-15335293D01*
X10867444Y-15335293D02*
X10867444Y-15287674D01*
X10867444Y-15287674D02*
X10876967Y-15249579D01*
X10876967Y-15249579D02*
X10886491Y-15230531D01*
X10886491Y-15230531D02*
X10896015Y-15221008D01*
X10896015Y-15221008D02*
X10915063Y-15211484D01*
X11105539Y-15211484D02*
X11124586Y-15211484D01*
X11124586Y-15211484D02*
X11143634Y-15221008D01*
X11143634Y-15221008D02*
X11153158Y-15230531D01*
X11153158Y-15230531D02*
X11162682Y-15249579D01*
X11162682Y-15249579D02*
X11172205Y-15287674D01*
X11172205Y-15287674D02*
X11172205Y-15335293D01*
X11172205Y-15335293D02*
X11162682Y-15373388D01*
X11162682Y-15373388D02*
X11153158Y-15392436D01*
X11153158Y-15392436D02*
X11143634Y-15401960D01*
X11143634Y-15401960D02*
X11124586Y-15411484D01*
X11124586Y-15411484D02*
X11105539Y-15411484D01*
X11105539Y-15411484D02*
X11086491Y-15401960D01*
X11086491Y-15401960D02*
X11076967Y-15392436D01*
X11076967Y-15392436D02*
X11067444Y-15373388D01*
X11067444Y-15373388D02*
X11057920Y-15335293D01*
X11057920Y-15335293D02*
X11057920Y-15287674D01*
X11057920Y-15287674D02*
X11067444Y-15249579D01*
X11067444Y-15249579D02*
X11076967Y-15230531D01*
X11076967Y-15230531D02*
X11086491Y-15221008D01*
X11086491Y-15221008D02*
X11105539Y-15211484D01*
X11257920Y-15411484D02*
X11257920Y-15278150D01*
X11257920Y-15297198D02*
X11267443Y-15287674D01*
X11267443Y-15287674D02*
X11286491Y-15278150D01*
X11286491Y-15278150D02*
X11315063Y-15278150D01*
X11315063Y-15278150D02*
X11334110Y-15287674D01*
X11334110Y-15287674D02*
X11343634Y-15306722D01*
X11343634Y-15306722D02*
X11343634Y-15411484D01*
X11343634Y-15306722D02*
X11353158Y-15287674D01*
X11353158Y-15287674D02*
X11372205Y-15278150D01*
X11372205Y-15278150D02*
X11400777Y-15278150D01*
X11400777Y-15278150D02*
X11419824Y-15287674D01*
X11419824Y-15287674D02*
X11429348Y-15306722D01*
X11429348Y-15306722D02*
X11429348Y-15411484D01*
X11524586Y-15411484D02*
X11524586Y-15278150D01*
X11524586Y-15297198D02*
X11534110Y-15287674D01*
X11534110Y-15287674D02*
X11553158Y-15278150D01*
X11553158Y-15278150D02*
X11581729Y-15278150D01*
X11581729Y-15278150D02*
X11600777Y-15287674D01*
X11600777Y-15287674D02*
X11610301Y-15306722D01*
X11610301Y-15306722D02*
X11610301Y-15411484D01*
X11610301Y-15306722D02*
X11619824Y-15287674D01*
X11619824Y-15287674D02*
X11638872Y-15278150D01*
X11638872Y-15278150D02*
X11667443Y-15278150D01*
X11667443Y-15278150D02*
X11686491Y-15287674D01*
X11686491Y-15287674D02*
X11696015Y-15306722D01*
X11696015Y-15306722D02*
X11696015Y-15411484D01*
X12086491Y-15201960D02*
X11915063Y-15459103D01*
X12343634Y-15211484D02*
X12362682Y-15211484D01*
X12362682Y-15211484D02*
X12381729Y-15221008D01*
X12381729Y-15221008D02*
X12391253Y-15230531D01*
X12391253Y-15230531D02*
X12400777Y-15249579D01*
X12400777Y-15249579D02*
X12410301Y-15287674D01*
X12410301Y-15287674D02*
X12410301Y-15335293D01*
X12410301Y-15335293D02*
X12400777Y-15373388D01*
X12400777Y-15373388D02*
X12391253Y-15392436D01*
X12391253Y-15392436D02*
X12381729Y-15401960D01*
X12381729Y-15401960D02*
X12362682Y-15411484D01*
X12362682Y-15411484D02*
X12343634Y-15411484D01*
X12343634Y-15411484D02*
X12324586Y-15401960D01*
X12324586Y-15401960D02*
X12315063Y-15392436D01*
X12315063Y-15392436D02*
X12305539Y-15373388D01*
X12305539Y-15373388D02*
X12296015Y-15335293D01*
X12296015Y-15335293D02*
X12296015Y-15287674D01*
X12296015Y-15287674D02*
X12305539Y-15249579D01*
X12305539Y-15249579D02*
X12315063Y-15230531D01*
X12315063Y-15230531D02*
X12324586Y-15221008D01*
X12324586Y-15221008D02*
X12343634Y-15211484D01*
X12496015Y-15392436D02*
X12505539Y-15401960D01*
X12505539Y-15401960D02*
X12496015Y-15411484D01*
X12496015Y-15411484D02*
X12486491Y-15401960D01*
X12486491Y-15401960D02*
X12496015Y-15392436D01*
X12496015Y-15392436D02*
X12496015Y-15411484D01*
X12629348Y-15211484D02*
X12648396Y-15211484D01*
X12648396Y-15211484D02*
X12667444Y-15221008D01*
X12667444Y-15221008D02*
X12676967Y-15230531D01*
X12676967Y-15230531D02*
X12686491Y-15249579D01*
X12686491Y-15249579D02*
X12696015Y-15287674D01*
X12696015Y-15287674D02*
X12696015Y-15335293D01*
X12696015Y-15335293D02*
X12686491Y-15373388D01*
X12686491Y-15373388D02*
X12676967Y-15392436D01*
X12676967Y-15392436D02*
X12667444Y-15401960D01*
X12667444Y-15401960D02*
X12648396Y-15411484D01*
X12648396Y-15411484D02*
X12629348Y-15411484D01*
X12629348Y-15411484D02*
X12610301Y-15401960D01*
X12610301Y-15401960D02*
X12600777Y-15392436D01*
X12600777Y-15392436D02*
X12591253Y-15373388D01*
X12591253Y-15373388D02*
X12581729Y-15335293D01*
X12581729Y-15335293D02*
X12581729Y-15287674D01*
X12581729Y-15287674D02*
X12591253Y-15249579D01*
X12591253Y-15249579D02*
X12600777Y-15230531D01*
X12600777Y-15230531D02*
X12610301Y-15221008D01*
X12610301Y-15221008D02*
X12629348Y-15211484D01*
X12791253Y-15411484D02*
X12829348Y-15411484D01*
X12829348Y-15411484D02*
X12848396Y-15401960D01*
X12848396Y-15401960D02*
X12857920Y-15392436D01*
X12857920Y-15392436D02*
X12876967Y-15363865D01*
X12876967Y-15363865D02*
X12886491Y-15325769D01*
X12886491Y-15325769D02*
X12886491Y-15249579D01*
X12886491Y-15249579D02*
X12876967Y-15230531D01*
X12876967Y-15230531D02*
X12867444Y-15221008D01*
X12867444Y-15221008D02*
X12848396Y-15211484D01*
X12848396Y-15211484D02*
X12810301Y-15211484D01*
X12810301Y-15211484D02*
X12791253Y-15221008D01*
X12791253Y-15221008D02*
X12781729Y-15230531D01*
X12781729Y-15230531D02*
X12772206Y-15249579D01*
X12772206Y-15249579D02*
X12772206Y-15297198D01*
X12772206Y-15297198D02*
X12781729Y-15316246D01*
X12781729Y-15316246D02*
X12791253Y-15325769D01*
X12791253Y-15325769D02*
X12810301Y-15335293D01*
X12810301Y-15335293D02*
X12848396Y-15335293D01*
X12848396Y-15335293D02*
X12867444Y-15325769D01*
X12867444Y-15325769D02*
X12876967Y-15316246D01*
X12876967Y-15316246D02*
X12886491Y-15297198D01*
X13000777Y-15297198D02*
X12981729Y-15287674D01*
X12981729Y-15287674D02*
X12972206Y-15278150D01*
X12972206Y-15278150D02*
X12962682Y-15259103D01*
X12962682Y-15259103D02*
X12962682Y-15249579D01*
X12962682Y-15249579D02*
X12972206Y-15230531D01*
X12972206Y-15230531D02*
X12981729Y-15221008D01*
X12981729Y-15221008D02*
X13000777Y-15211484D01*
X13000777Y-15211484D02*
X13038872Y-15211484D01*
X13038872Y-15211484D02*
X13057920Y-15221008D01*
X13057920Y-15221008D02*
X13067444Y-15230531D01*
X13067444Y-15230531D02*
X13076967Y-15249579D01*
X13076967Y-15249579D02*
X13076967Y-15259103D01*
X13076967Y-15259103D02*
X13067444Y-15278150D01*
X13067444Y-15278150D02*
X13057920Y-15287674D01*
X13057920Y-15287674D02*
X13038872Y-15297198D01*
X13038872Y-15297198D02*
X13000777Y-15297198D01*
X13000777Y-15297198D02*
X12981729Y-15306722D01*
X12981729Y-15306722D02*
X12972206Y-15316246D01*
X12972206Y-15316246D02*
X12962682Y-15335293D01*
X12962682Y-15335293D02*
X12962682Y-15373388D01*
X12962682Y-15373388D02*
X12972206Y-15392436D01*
X12972206Y-15392436D02*
X12981729Y-15401960D01*
X12981729Y-15401960D02*
X13000777Y-15411484D01*
X13000777Y-15411484D02*
X13038872Y-15411484D01*
X13038872Y-15411484D02*
X13057920Y-15401960D01*
X13057920Y-15401960D02*
X13067444Y-15392436D01*
X13067444Y-15392436D02*
X13076967Y-15373388D01*
X13076967Y-15373388D02*
X13076967Y-15335293D01*
X13076967Y-15335293D02*
X13067444Y-15316246D01*
X13067444Y-15316246D02*
X13057920Y-15306722D01*
X13057920Y-15306722D02*
X13038872Y-15297198D01*
X13248396Y-15278150D02*
X13248396Y-15411484D01*
X13200777Y-15201960D02*
X13153158Y-15344817D01*
X13153158Y-15344817D02*
X13276967Y-15344817D01*
X13343634Y-15211484D02*
X13343634Y-15249579D01*
X13419825Y-15211484D02*
X13419825Y-15249579D01*
X13715063Y-15487674D02*
X13705539Y-15478150D01*
X13705539Y-15478150D02*
X13686491Y-15449579D01*
X13686491Y-15449579D02*
X13676968Y-15430531D01*
X13676968Y-15430531D02*
X13667444Y-15401960D01*
X13667444Y-15401960D02*
X13657920Y-15354341D01*
X13657920Y-15354341D02*
X13657920Y-15316246D01*
X13657920Y-15316246D02*
X13667444Y-15268627D01*
X13667444Y-15268627D02*
X13676968Y-15240055D01*
X13676968Y-15240055D02*
X13686491Y-15221008D01*
X13686491Y-15221008D02*
X13705539Y-15192436D01*
X13705539Y-15192436D02*
X13715063Y-15182912D01*
X13829348Y-15211484D02*
X13848396Y-15211484D01*
X13848396Y-15211484D02*
X13867444Y-15221008D01*
X13867444Y-15221008D02*
X13876968Y-15230531D01*
X13876968Y-15230531D02*
X13886491Y-15249579D01*
X13886491Y-15249579D02*
X13896015Y-15287674D01*
X13896015Y-15287674D02*
X13896015Y-15335293D01*
X13896015Y-15335293D02*
X13886491Y-15373388D01*
X13886491Y-15373388D02*
X13876968Y-15392436D01*
X13876968Y-15392436D02*
X13867444Y-15401960D01*
X13867444Y-15401960D02*
X13848396Y-15411484D01*
X13848396Y-15411484D02*
X13829348Y-15411484D01*
X13829348Y-15411484D02*
X13810301Y-15401960D01*
X13810301Y-15401960D02*
X13800777Y-15392436D01*
X13800777Y-15392436D02*
X13791253Y-15373388D01*
X13791253Y-15373388D02*
X13781729Y-15335293D01*
X13781729Y-15335293D02*
X13781729Y-15287674D01*
X13781729Y-15287674D02*
X13791253Y-15249579D01*
X13791253Y-15249579D02*
X13800777Y-15230531D01*
X13800777Y-15230531D02*
X13810301Y-15221008D01*
X13810301Y-15221008D02*
X13829348Y-15211484D01*
X14134110Y-15411484D02*
X14134110Y-15211484D01*
X14219825Y-15411484D02*
X14219825Y-15306722D01*
X14219825Y-15306722D02*
X14210301Y-15287674D01*
X14210301Y-15287674D02*
X14191253Y-15278150D01*
X14191253Y-15278150D02*
X14162682Y-15278150D01*
X14162682Y-15278150D02*
X14143634Y-15287674D01*
X14143634Y-15287674D02*
X14134110Y-15297198D01*
X14343634Y-15411484D02*
X14324587Y-15401960D01*
X14324587Y-15401960D02*
X14315063Y-15392436D01*
X14315063Y-15392436D02*
X14305539Y-15373388D01*
X14305539Y-15373388D02*
X14305539Y-15316246D01*
X14305539Y-15316246D02*
X14315063Y-15297198D01*
X14315063Y-15297198D02*
X14324587Y-15287674D01*
X14324587Y-15287674D02*
X14343634Y-15278150D01*
X14343634Y-15278150D02*
X14372206Y-15278150D01*
X14372206Y-15278150D02*
X14391253Y-15287674D01*
X14391253Y-15287674D02*
X14400777Y-15297198D01*
X14400777Y-15297198D02*
X14410301Y-15316246D01*
X14410301Y-15316246D02*
X14410301Y-15373388D01*
X14410301Y-15373388D02*
X14400777Y-15392436D01*
X14400777Y-15392436D02*
X14391253Y-15401960D01*
X14391253Y-15401960D02*
X14372206Y-15411484D01*
X14372206Y-15411484D02*
X14343634Y-15411484D01*
X14524587Y-15411484D02*
X14505539Y-15401960D01*
X14505539Y-15401960D02*
X14496015Y-15382912D01*
X14496015Y-15382912D02*
X14496015Y-15211484D01*
X14676968Y-15401960D02*
X14657920Y-15411484D01*
X14657920Y-15411484D02*
X14619825Y-15411484D01*
X14619825Y-15411484D02*
X14600777Y-15401960D01*
X14600777Y-15401960D02*
X14591253Y-15382912D01*
X14591253Y-15382912D02*
X14591253Y-15306722D01*
X14591253Y-15306722D02*
X14600777Y-15287674D01*
X14600777Y-15287674D02*
X14619825Y-15278150D01*
X14619825Y-15278150D02*
X14657920Y-15278150D01*
X14657920Y-15278150D02*
X14676968Y-15287674D01*
X14676968Y-15287674D02*
X14686491Y-15306722D01*
X14686491Y-15306722D02*
X14686491Y-15325769D01*
X14686491Y-15325769D02*
X14591253Y-15344817D01*
X14762682Y-15401960D02*
X14781730Y-15411484D01*
X14781730Y-15411484D02*
X14819825Y-15411484D01*
X14819825Y-15411484D02*
X14838872Y-15401960D01*
X14838872Y-15401960D02*
X14848396Y-15382912D01*
X14848396Y-15382912D02*
X14848396Y-15373388D01*
X14848396Y-15373388D02*
X14838872Y-15354341D01*
X14838872Y-15354341D02*
X14819825Y-15344817D01*
X14819825Y-15344817D02*
X14791253Y-15344817D01*
X14791253Y-15344817D02*
X14772206Y-15335293D01*
X14772206Y-15335293D02*
X14762682Y-15316246D01*
X14762682Y-15316246D02*
X14762682Y-15306722D01*
X14762682Y-15306722D02*
X14772206Y-15287674D01*
X14772206Y-15287674D02*
X14791253Y-15278150D01*
X14791253Y-15278150D02*
X14819825Y-15278150D01*
X14819825Y-15278150D02*
X14838872Y-15287674D01*
X15086492Y-15335293D02*
X15238873Y-15335293D01*
X15162682Y-15411484D02*
X15162682Y-15259103D01*
X15572206Y-15278150D02*
X15572206Y-15411484D01*
X15524587Y-15201960D02*
X15476968Y-15344817D01*
X15476968Y-15344817D02*
X15600777Y-15344817D01*
X15819825Y-15401960D02*
X15838873Y-15411484D01*
X15838873Y-15411484D02*
X15876968Y-15411484D01*
X15876968Y-15411484D02*
X15896015Y-15401960D01*
X15896015Y-15401960D02*
X15905539Y-15382912D01*
X15905539Y-15382912D02*
X15905539Y-15373388D01*
X15905539Y-15373388D02*
X15896015Y-15354341D01*
X15896015Y-15354341D02*
X15876968Y-15344817D01*
X15876968Y-15344817D02*
X15848396Y-15344817D01*
X15848396Y-15344817D02*
X15829349Y-15335293D01*
X15829349Y-15335293D02*
X15819825Y-15316246D01*
X15819825Y-15316246D02*
X15819825Y-15306722D01*
X15819825Y-15306722D02*
X15829349Y-15287674D01*
X15829349Y-15287674D02*
X15848396Y-15278150D01*
X15848396Y-15278150D02*
X15876968Y-15278150D01*
X15876968Y-15278150D02*
X15896015Y-15287674D01*
X16019825Y-15411484D02*
X16000777Y-15401960D01*
X16000777Y-15401960D02*
X15991254Y-15382912D01*
X15991254Y-15382912D02*
X15991254Y-15211484D01*
X16124587Y-15411484D02*
X16105539Y-15401960D01*
X16105539Y-15401960D02*
X16096015Y-15392436D01*
X16096015Y-15392436D02*
X16086492Y-15373388D01*
X16086492Y-15373388D02*
X16086492Y-15316246D01*
X16086492Y-15316246D02*
X16096015Y-15297198D01*
X16096015Y-15297198D02*
X16105539Y-15287674D01*
X16105539Y-15287674D02*
X16124587Y-15278150D01*
X16124587Y-15278150D02*
X16153158Y-15278150D01*
X16153158Y-15278150D02*
X16172206Y-15287674D01*
X16172206Y-15287674D02*
X16181730Y-15297198D01*
X16181730Y-15297198D02*
X16191254Y-15316246D01*
X16191254Y-15316246D02*
X16191254Y-15373388D01*
X16191254Y-15373388D02*
X16181730Y-15392436D01*
X16181730Y-15392436D02*
X16172206Y-15401960D01*
X16172206Y-15401960D02*
X16153158Y-15411484D01*
X16153158Y-15411484D02*
X16124587Y-15411484D01*
X16248396Y-15278150D02*
X16324587Y-15278150D01*
X16276968Y-15211484D02*
X16276968Y-15382912D01*
X16276968Y-15382912D02*
X16286492Y-15401960D01*
X16286492Y-15401960D02*
X16305539Y-15411484D01*
X16305539Y-15411484D02*
X16324587Y-15411484D01*
X16381730Y-15401960D02*
X16400777Y-15411484D01*
X16400777Y-15411484D02*
X16438873Y-15411484D01*
X16438873Y-15411484D02*
X16457920Y-15401960D01*
X16457920Y-15401960D02*
X16467444Y-15382912D01*
X16467444Y-15382912D02*
X16467444Y-15373388D01*
X16467444Y-15373388D02*
X16457920Y-15354341D01*
X16457920Y-15354341D02*
X16438873Y-15344817D01*
X16438873Y-15344817D02*
X16410301Y-15344817D01*
X16410301Y-15344817D02*
X16391254Y-15335293D01*
X16391254Y-15335293D02*
X16381730Y-15316246D01*
X16381730Y-15316246D02*
X16381730Y-15306722D01*
X16381730Y-15306722D02*
X16391254Y-15287674D01*
X16391254Y-15287674D02*
X16410301Y-15278150D01*
X16410301Y-15278150D02*
X16438873Y-15278150D01*
X16438873Y-15278150D02*
X16457920Y-15287674D01*
X16534111Y-15487674D02*
X16543635Y-15478150D01*
X16543635Y-15478150D02*
X16562682Y-15449579D01*
X16562682Y-15449579D02*
X16572206Y-15430531D01*
X16572206Y-15430531D02*
X16581730Y-15401960D01*
X16581730Y-15401960D02*
X16591254Y-15354341D01*
X16591254Y-15354341D02*
X16591254Y-15316246D01*
X16591254Y-15316246D02*
X16581730Y-15268627D01*
X16581730Y-15268627D02*
X16572206Y-15240055D01*
X16572206Y-15240055D02*
X16562682Y-15221008D01*
X16562682Y-15221008D02*
X16543635Y-15192436D01*
X16543635Y-15192436D02*
X16534111Y-15182912D01*
X16896016Y-15487674D02*
X16886492Y-15478150D01*
X16886492Y-15478150D02*
X16867444Y-15449579D01*
X16867444Y-15449579D02*
X16857920Y-15430531D01*
X16857920Y-15430531D02*
X16848397Y-15401960D01*
X16848397Y-15401960D02*
X16838873Y-15354341D01*
X16838873Y-15354341D02*
X16838873Y-15316246D01*
X16838873Y-15316246D02*
X16848397Y-15268627D01*
X16848397Y-15268627D02*
X16857920Y-15240055D01*
X16857920Y-15240055D02*
X16867444Y-15221008D01*
X16867444Y-15221008D02*
X16886492Y-15192436D01*
X16886492Y-15192436D02*
X16896016Y-15182912D01*
X16972206Y-15278150D02*
X16972206Y-15411484D01*
X16972206Y-15297198D02*
X16981730Y-15287674D01*
X16981730Y-15287674D02*
X17000777Y-15278150D01*
X17000777Y-15278150D02*
X17029349Y-15278150D01*
X17029349Y-15278150D02*
X17048397Y-15287674D01*
X17048397Y-15287674D02*
X17057920Y-15306722D01*
X17057920Y-15306722D02*
X17057920Y-15411484D01*
X17181730Y-15411484D02*
X17162682Y-15401960D01*
X17162682Y-15401960D02*
X17153158Y-15392436D01*
X17153158Y-15392436D02*
X17143635Y-15373388D01*
X17143635Y-15373388D02*
X17143635Y-15316246D01*
X17143635Y-15316246D02*
X17153158Y-15297198D01*
X17153158Y-15297198D02*
X17162682Y-15287674D01*
X17162682Y-15287674D02*
X17181730Y-15278150D01*
X17181730Y-15278150D02*
X17210301Y-15278150D01*
X17210301Y-15278150D02*
X17229349Y-15287674D01*
X17229349Y-15287674D02*
X17238873Y-15297198D01*
X17238873Y-15297198D02*
X17248397Y-15316246D01*
X17248397Y-15316246D02*
X17248397Y-15373388D01*
X17248397Y-15373388D02*
X17238873Y-15392436D01*
X17238873Y-15392436D02*
X17229349Y-15401960D01*
X17229349Y-15401960D02*
X17210301Y-15411484D01*
X17210301Y-15411484D02*
X17181730Y-15411484D01*
X17305539Y-15278150D02*
X17381730Y-15278150D01*
X17334111Y-15211484D02*
X17334111Y-15382912D01*
X17334111Y-15382912D02*
X17343635Y-15401960D01*
X17343635Y-15401960D02*
X17362682Y-15411484D01*
X17362682Y-15411484D02*
X17381730Y-15411484D01*
X17600778Y-15278150D02*
X17600778Y-15478150D01*
X17600778Y-15287674D02*
X17619825Y-15278150D01*
X17619825Y-15278150D02*
X17657920Y-15278150D01*
X17657920Y-15278150D02*
X17676968Y-15287674D01*
X17676968Y-15287674D02*
X17686492Y-15297198D01*
X17686492Y-15297198D02*
X17696016Y-15316246D01*
X17696016Y-15316246D02*
X17696016Y-15373388D01*
X17696016Y-15373388D02*
X17686492Y-15392436D01*
X17686492Y-15392436D02*
X17676968Y-15401960D01*
X17676968Y-15401960D02*
X17657920Y-15411484D01*
X17657920Y-15411484D02*
X17619825Y-15411484D01*
X17619825Y-15411484D02*
X17600778Y-15401960D01*
X17810301Y-15411484D02*
X17791254Y-15401960D01*
X17791254Y-15401960D02*
X17781730Y-15382912D01*
X17781730Y-15382912D02*
X17781730Y-15211484D01*
X17972206Y-15411484D02*
X17972206Y-15306722D01*
X17972206Y-15306722D02*
X17962682Y-15287674D01*
X17962682Y-15287674D02*
X17943635Y-15278150D01*
X17943635Y-15278150D02*
X17905539Y-15278150D01*
X17905539Y-15278150D02*
X17886492Y-15287674D01*
X17972206Y-15401960D02*
X17953159Y-15411484D01*
X17953159Y-15411484D02*
X17905539Y-15411484D01*
X17905539Y-15411484D02*
X17886492Y-15401960D01*
X17886492Y-15401960D02*
X17876968Y-15382912D01*
X17876968Y-15382912D02*
X17876968Y-15363865D01*
X17876968Y-15363865D02*
X17886492Y-15344817D01*
X17886492Y-15344817D02*
X17905539Y-15335293D01*
X17905539Y-15335293D02*
X17953159Y-15335293D01*
X17953159Y-15335293D02*
X17972206Y-15325769D01*
X18038873Y-15278150D02*
X18115063Y-15278150D01*
X18067444Y-15211484D02*
X18067444Y-15382912D01*
X18067444Y-15382912D02*
X18076968Y-15401960D01*
X18076968Y-15401960D02*
X18096016Y-15411484D01*
X18096016Y-15411484D02*
X18115063Y-15411484D01*
X18257920Y-15401960D02*
X18238873Y-15411484D01*
X18238873Y-15411484D02*
X18200778Y-15411484D01*
X18200778Y-15411484D02*
X18181730Y-15401960D01*
X18181730Y-15401960D02*
X18172206Y-15382912D01*
X18172206Y-15382912D02*
X18172206Y-15306722D01*
X18172206Y-15306722D02*
X18181730Y-15287674D01*
X18181730Y-15287674D02*
X18200778Y-15278150D01*
X18200778Y-15278150D02*
X18238873Y-15278150D01*
X18238873Y-15278150D02*
X18257920Y-15287674D01*
X18257920Y-15287674D02*
X18267444Y-15306722D01*
X18267444Y-15306722D02*
X18267444Y-15325769D01*
X18267444Y-15325769D02*
X18172206Y-15344817D01*
X18438873Y-15411484D02*
X18438873Y-15211484D01*
X18438873Y-15401960D02*
X18419825Y-15411484D01*
X18419825Y-15411484D02*
X18381730Y-15411484D01*
X18381730Y-15411484D02*
X18362682Y-15401960D01*
X18362682Y-15401960D02*
X18353159Y-15392436D01*
X18353159Y-15392436D02*
X18343635Y-15373388D01*
X18343635Y-15373388D02*
X18343635Y-15316246D01*
X18343635Y-15316246D02*
X18353159Y-15297198D01*
X18353159Y-15297198D02*
X18362682Y-15287674D01*
X18362682Y-15287674D02*
X18381730Y-15278150D01*
X18381730Y-15278150D02*
X18419825Y-15278150D01*
X18419825Y-15278150D02*
X18438873Y-15287674D01*
X18515063Y-15487674D02*
X18524587Y-15478150D01*
X18524587Y-15478150D02*
X18543635Y-15449579D01*
X18543635Y-15449579D02*
X18553159Y-15430531D01*
X18553159Y-15430531D02*
X18562682Y-15401960D01*
X18562682Y-15401960D02*
X18572206Y-15354341D01*
X18572206Y-15354341D02*
X18572206Y-15316246D01*
X18572206Y-15316246D02*
X18562682Y-15268627D01*
X18562682Y-15268627D02*
X18553159Y-15240055D01*
X18553159Y-15240055D02*
X18543635Y-15221008D01*
X18543635Y-15221008D02*
X18524587Y-15192436D01*
X18524587Y-15192436D02*
X18515063Y-15182912D01*
X10040000Y-15540000D02*
X10040000Y-15740000D01*
X9940000Y-15640000D02*
X10140000Y-15640000D01*
X10391253Y-15550531D02*
X10400777Y-15541008D01*
X10400777Y-15541008D02*
X10419824Y-15531484D01*
X10419824Y-15531484D02*
X10467444Y-15531484D01*
X10467444Y-15531484D02*
X10486491Y-15541008D01*
X10486491Y-15541008D02*
X10496015Y-15550531D01*
X10496015Y-15550531D02*
X10505539Y-15569579D01*
X10505539Y-15569579D02*
X10505539Y-15588627D01*
X10505539Y-15588627D02*
X10496015Y-15617198D01*
X10496015Y-15617198D02*
X10381729Y-15731484D01*
X10381729Y-15731484D02*
X10505539Y-15731484D01*
X10591253Y-15712436D02*
X10600777Y-15721960D01*
X10600777Y-15721960D02*
X10591253Y-15731484D01*
X10591253Y-15731484D02*
X10581729Y-15721960D01*
X10581729Y-15721960D02*
X10591253Y-15712436D01*
X10591253Y-15712436D02*
X10591253Y-15731484D01*
X10667444Y-15531484D02*
X10800777Y-15531484D01*
X10800777Y-15531484D02*
X10715063Y-15731484D01*
X10915063Y-15531484D02*
X10934110Y-15531484D01*
X10934110Y-15531484D02*
X10953158Y-15541008D01*
X10953158Y-15541008D02*
X10962682Y-15550531D01*
X10962682Y-15550531D02*
X10972205Y-15569579D01*
X10972205Y-15569579D02*
X10981729Y-15607674D01*
X10981729Y-15607674D02*
X10981729Y-15655293D01*
X10981729Y-15655293D02*
X10972205Y-15693388D01*
X10972205Y-15693388D02*
X10962682Y-15712436D01*
X10962682Y-15712436D02*
X10953158Y-15721960D01*
X10953158Y-15721960D02*
X10934110Y-15731484D01*
X10934110Y-15731484D02*
X10915063Y-15731484D01*
X10915063Y-15731484D02*
X10896015Y-15721960D01*
X10896015Y-15721960D02*
X10886491Y-15712436D01*
X10886491Y-15712436D02*
X10876967Y-15693388D01*
X10876967Y-15693388D02*
X10867444Y-15655293D01*
X10867444Y-15655293D02*
X10867444Y-15607674D01*
X10867444Y-15607674D02*
X10876967Y-15569579D01*
X10876967Y-15569579D02*
X10886491Y-15550531D01*
X10886491Y-15550531D02*
X10896015Y-15541008D01*
X10896015Y-15541008D02*
X10915063Y-15531484D01*
X11105539Y-15531484D02*
X11124586Y-15531484D01*
X11124586Y-15531484D02*
X11143634Y-15541008D01*
X11143634Y-15541008D02*
X11153158Y-15550531D01*
X11153158Y-15550531D02*
X11162682Y-15569579D01*
X11162682Y-15569579D02*
X11172205Y-15607674D01*
X11172205Y-15607674D02*
X11172205Y-15655293D01*
X11172205Y-15655293D02*
X11162682Y-15693388D01*
X11162682Y-15693388D02*
X11153158Y-15712436D01*
X11153158Y-15712436D02*
X11143634Y-15721960D01*
X11143634Y-15721960D02*
X11124586Y-15731484D01*
X11124586Y-15731484D02*
X11105539Y-15731484D01*
X11105539Y-15731484D02*
X11086491Y-15721960D01*
X11086491Y-15721960D02*
X11076967Y-15712436D01*
X11076967Y-15712436D02*
X11067444Y-15693388D01*
X11067444Y-15693388D02*
X11057920Y-15655293D01*
X11057920Y-15655293D02*
X11057920Y-15607674D01*
X11057920Y-15607674D02*
X11067444Y-15569579D01*
X11067444Y-15569579D02*
X11076967Y-15550531D01*
X11076967Y-15550531D02*
X11086491Y-15541008D01*
X11086491Y-15541008D02*
X11105539Y-15531484D01*
X11257920Y-15731484D02*
X11257920Y-15598150D01*
X11257920Y-15617198D02*
X11267443Y-15607674D01*
X11267443Y-15607674D02*
X11286491Y-15598150D01*
X11286491Y-15598150D02*
X11315063Y-15598150D01*
X11315063Y-15598150D02*
X11334110Y-15607674D01*
X11334110Y-15607674D02*
X11343634Y-15626722D01*
X11343634Y-15626722D02*
X11343634Y-15731484D01*
X11343634Y-15626722D02*
X11353158Y-15607674D01*
X11353158Y-15607674D02*
X11372205Y-15598150D01*
X11372205Y-15598150D02*
X11400777Y-15598150D01*
X11400777Y-15598150D02*
X11419824Y-15607674D01*
X11419824Y-15607674D02*
X11429348Y-15626722D01*
X11429348Y-15626722D02*
X11429348Y-15731484D01*
X11524586Y-15731484D02*
X11524586Y-15598150D01*
X11524586Y-15617198D02*
X11534110Y-15607674D01*
X11534110Y-15607674D02*
X11553158Y-15598150D01*
X11553158Y-15598150D02*
X11581729Y-15598150D01*
X11581729Y-15598150D02*
X11600777Y-15607674D01*
X11600777Y-15607674D02*
X11610301Y-15626722D01*
X11610301Y-15626722D02*
X11610301Y-15731484D01*
X11610301Y-15626722D02*
X11619824Y-15607674D01*
X11619824Y-15607674D02*
X11638872Y-15598150D01*
X11638872Y-15598150D02*
X11667443Y-15598150D01*
X11667443Y-15598150D02*
X11686491Y-15607674D01*
X11686491Y-15607674D02*
X11696015Y-15626722D01*
X11696015Y-15626722D02*
X11696015Y-15731484D01*
X12086491Y-15521960D02*
X11915063Y-15779103D01*
X12343634Y-15531484D02*
X12362682Y-15531484D01*
X12362682Y-15531484D02*
X12381729Y-15541008D01*
X12381729Y-15541008D02*
X12391253Y-15550531D01*
X12391253Y-15550531D02*
X12400777Y-15569579D01*
X12400777Y-15569579D02*
X12410301Y-15607674D01*
X12410301Y-15607674D02*
X12410301Y-15655293D01*
X12410301Y-15655293D02*
X12400777Y-15693388D01*
X12400777Y-15693388D02*
X12391253Y-15712436D01*
X12391253Y-15712436D02*
X12381729Y-15721960D01*
X12381729Y-15721960D02*
X12362682Y-15731484D01*
X12362682Y-15731484D02*
X12343634Y-15731484D01*
X12343634Y-15731484D02*
X12324586Y-15721960D01*
X12324586Y-15721960D02*
X12315063Y-15712436D01*
X12315063Y-15712436D02*
X12305539Y-15693388D01*
X12305539Y-15693388D02*
X12296015Y-15655293D01*
X12296015Y-15655293D02*
X12296015Y-15607674D01*
X12296015Y-15607674D02*
X12305539Y-15569579D01*
X12305539Y-15569579D02*
X12315063Y-15550531D01*
X12315063Y-15550531D02*
X12324586Y-15541008D01*
X12324586Y-15541008D02*
X12343634Y-15531484D01*
X12496015Y-15712436D02*
X12505539Y-15721960D01*
X12505539Y-15721960D02*
X12496015Y-15731484D01*
X12496015Y-15731484D02*
X12486491Y-15721960D01*
X12486491Y-15721960D02*
X12496015Y-15712436D01*
X12496015Y-15712436D02*
X12496015Y-15731484D01*
X12696015Y-15731484D02*
X12581729Y-15731484D01*
X12638872Y-15731484D02*
X12638872Y-15531484D01*
X12638872Y-15531484D02*
X12619825Y-15560055D01*
X12619825Y-15560055D02*
X12600777Y-15579103D01*
X12600777Y-15579103D02*
X12581729Y-15588627D01*
X12819825Y-15531484D02*
X12838872Y-15531484D01*
X12838872Y-15531484D02*
X12857920Y-15541008D01*
X12857920Y-15541008D02*
X12867444Y-15550531D01*
X12867444Y-15550531D02*
X12876967Y-15569579D01*
X12876967Y-15569579D02*
X12886491Y-15607674D01*
X12886491Y-15607674D02*
X12886491Y-15655293D01*
X12886491Y-15655293D02*
X12876967Y-15693388D01*
X12876967Y-15693388D02*
X12867444Y-15712436D01*
X12867444Y-15712436D02*
X12857920Y-15721960D01*
X12857920Y-15721960D02*
X12838872Y-15731484D01*
X12838872Y-15731484D02*
X12819825Y-15731484D01*
X12819825Y-15731484D02*
X12800777Y-15721960D01*
X12800777Y-15721960D02*
X12791253Y-15712436D01*
X12791253Y-15712436D02*
X12781729Y-15693388D01*
X12781729Y-15693388D02*
X12772206Y-15655293D01*
X12772206Y-15655293D02*
X12772206Y-15607674D01*
X12772206Y-15607674D02*
X12781729Y-15569579D01*
X12781729Y-15569579D02*
X12791253Y-15550531D01*
X12791253Y-15550531D02*
X12800777Y-15541008D01*
X12800777Y-15541008D02*
X12819825Y-15531484D01*
X13057920Y-15531484D02*
X13019825Y-15531484D01*
X13019825Y-15531484D02*
X13000777Y-15541008D01*
X13000777Y-15541008D02*
X12991253Y-15550531D01*
X12991253Y-15550531D02*
X12972206Y-15579103D01*
X12972206Y-15579103D02*
X12962682Y-15617198D01*
X12962682Y-15617198D02*
X12962682Y-15693388D01*
X12962682Y-15693388D02*
X12972206Y-15712436D01*
X12972206Y-15712436D02*
X12981729Y-15721960D01*
X12981729Y-15721960D02*
X13000777Y-15731484D01*
X13000777Y-15731484D02*
X13038872Y-15731484D01*
X13038872Y-15731484D02*
X13057920Y-15721960D01*
X13057920Y-15721960D02*
X13067444Y-15712436D01*
X13067444Y-15712436D02*
X13076967Y-15693388D01*
X13076967Y-15693388D02*
X13076967Y-15645769D01*
X13076967Y-15645769D02*
X13067444Y-15626722D01*
X13067444Y-15626722D02*
X13057920Y-15617198D01*
X13057920Y-15617198D02*
X13038872Y-15607674D01*
X13038872Y-15607674D02*
X13000777Y-15607674D01*
X13000777Y-15607674D02*
X12981729Y-15617198D01*
X12981729Y-15617198D02*
X12972206Y-15626722D01*
X12972206Y-15626722D02*
X12962682Y-15645769D01*
X13143634Y-15531484D02*
X13267444Y-15531484D01*
X13267444Y-15531484D02*
X13200777Y-15607674D01*
X13200777Y-15607674D02*
X13229348Y-15607674D01*
X13229348Y-15607674D02*
X13248396Y-15617198D01*
X13248396Y-15617198D02*
X13257920Y-15626722D01*
X13257920Y-15626722D02*
X13267444Y-15645769D01*
X13267444Y-15645769D02*
X13267444Y-15693388D01*
X13267444Y-15693388D02*
X13257920Y-15712436D01*
X13257920Y-15712436D02*
X13248396Y-15721960D01*
X13248396Y-15721960D02*
X13229348Y-15731484D01*
X13229348Y-15731484D02*
X13172206Y-15731484D01*
X13172206Y-15731484D02*
X13153158Y-15721960D01*
X13153158Y-15721960D02*
X13143634Y-15712436D01*
X13343634Y-15531484D02*
X13343634Y-15569579D01*
X13419825Y-15531484D02*
X13419825Y-15569579D01*
X13715063Y-15807674D02*
X13705539Y-15798150D01*
X13705539Y-15798150D02*
X13686491Y-15769579D01*
X13686491Y-15769579D02*
X13676968Y-15750531D01*
X13676968Y-15750531D02*
X13667444Y-15721960D01*
X13667444Y-15721960D02*
X13657920Y-15674341D01*
X13657920Y-15674341D02*
X13657920Y-15636246D01*
X13657920Y-15636246D02*
X13667444Y-15588627D01*
X13667444Y-15588627D02*
X13676968Y-15560055D01*
X13676968Y-15560055D02*
X13686491Y-15541008D01*
X13686491Y-15541008D02*
X13705539Y-15512436D01*
X13705539Y-15512436D02*
X13715063Y-15502912D01*
X13781729Y-15550531D02*
X13791253Y-15541008D01*
X13791253Y-15541008D02*
X13810301Y-15531484D01*
X13810301Y-15531484D02*
X13857920Y-15531484D01*
X13857920Y-15531484D02*
X13876968Y-15541008D01*
X13876968Y-15541008D02*
X13886491Y-15550531D01*
X13886491Y-15550531D02*
X13896015Y-15569579D01*
X13896015Y-15569579D02*
X13896015Y-15588627D01*
X13896015Y-15588627D02*
X13886491Y-15617198D01*
X13886491Y-15617198D02*
X13772206Y-15731484D01*
X13772206Y-15731484D02*
X13896015Y-15731484D01*
X14134110Y-15731484D02*
X14134110Y-15531484D01*
X14219825Y-15731484D02*
X14219825Y-15626722D01*
X14219825Y-15626722D02*
X14210301Y-15607674D01*
X14210301Y-15607674D02*
X14191253Y-15598150D01*
X14191253Y-15598150D02*
X14162682Y-15598150D01*
X14162682Y-15598150D02*
X14143634Y-15607674D01*
X14143634Y-15607674D02*
X14134110Y-15617198D01*
X14343634Y-15731484D02*
X14324587Y-15721960D01*
X14324587Y-15721960D02*
X14315063Y-15712436D01*
X14315063Y-15712436D02*
X14305539Y-15693388D01*
X14305539Y-15693388D02*
X14305539Y-15636246D01*
X14305539Y-15636246D02*
X14315063Y-15617198D01*
X14315063Y-15617198D02*
X14324587Y-15607674D01*
X14324587Y-15607674D02*
X14343634Y-15598150D01*
X14343634Y-15598150D02*
X14372206Y-15598150D01*
X14372206Y-15598150D02*
X14391253Y-15607674D01*
X14391253Y-15607674D02*
X14400777Y-15617198D01*
X14400777Y-15617198D02*
X14410301Y-15636246D01*
X14410301Y-15636246D02*
X14410301Y-15693388D01*
X14410301Y-15693388D02*
X14400777Y-15712436D01*
X14400777Y-15712436D02*
X14391253Y-15721960D01*
X14391253Y-15721960D02*
X14372206Y-15731484D01*
X14372206Y-15731484D02*
X14343634Y-15731484D01*
X14524587Y-15731484D02*
X14505539Y-15721960D01*
X14505539Y-15721960D02*
X14496015Y-15702912D01*
X14496015Y-15702912D02*
X14496015Y-15531484D01*
X14676968Y-15721960D02*
X14657920Y-15731484D01*
X14657920Y-15731484D02*
X14619825Y-15731484D01*
X14619825Y-15731484D02*
X14600777Y-15721960D01*
X14600777Y-15721960D02*
X14591253Y-15702912D01*
X14591253Y-15702912D02*
X14591253Y-15626722D01*
X14591253Y-15626722D02*
X14600777Y-15607674D01*
X14600777Y-15607674D02*
X14619825Y-15598150D01*
X14619825Y-15598150D02*
X14657920Y-15598150D01*
X14657920Y-15598150D02*
X14676968Y-15607674D01*
X14676968Y-15607674D02*
X14686491Y-15626722D01*
X14686491Y-15626722D02*
X14686491Y-15645769D01*
X14686491Y-15645769D02*
X14591253Y-15664817D01*
X14762682Y-15721960D02*
X14781730Y-15731484D01*
X14781730Y-15731484D02*
X14819825Y-15731484D01*
X14819825Y-15731484D02*
X14838872Y-15721960D01*
X14838872Y-15721960D02*
X14848396Y-15702912D01*
X14848396Y-15702912D02*
X14848396Y-15693388D01*
X14848396Y-15693388D02*
X14838872Y-15674341D01*
X14838872Y-15674341D02*
X14819825Y-15664817D01*
X14819825Y-15664817D02*
X14791253Y-15664817D01*
X14791253Y-15664817D02*
X14772206Y-15655293D01*
X14772206Y-15655293D02*
X14762682Y-15636246D01*
X14762682Y-15636246D02*
X14762682Y-15626722D01*
X14762682Y-15626722D02*
X14772206Y-15607674D01*
X14772206Y-15607674D02*
X14791253Y-15598150D01*
X14791253Y-15598150D02*
X14819825Y-15598150D01*
X14819825Y-15598150D02*
X14838872Y-15607674D01*
X14915063Y-15807674D02*
X14924587Y-15798150D01*
X14924587Y-15798150D02*
X14943634Y-15769579D01*
X14943634Y-15769579D02*
X14953158Y-15750531D01*
X14953158Y-15750531D02*
X14962682Y-15721960D01*
X14962682Y-15721960D02*
X14972206Y-15674341D01*
X14972206Y-15674341D02*
X14972206Y-15636246D01*
X14972206Y-15636246D02*
X14962682Y-15588627D01*
X14962682Y-15588627D02*
X14953158Y-15560055D01*
X14953158Y-15560055D02*
X14943634Y-15541008D01*
X14943634Y-15541008D02*
X14924587Y-15512436D01*
X14924587Y-15512436D02*
X14915063Y-15502912D01*
X15276968Y-15807674D02*
X15267444Y-15798150D01*
X15267444Y-15798150D02*
X15248396Y-15769579D01*
X15248396Y-15769579D02*
X15238872Y-15750531D01*
X15238872Y-15750531D02*
X15229349Y-15721960D01*
X15229349Y-15721960D02*
X15219825Y-15674341D01*
X15219825Y-15674341D02*
X15219825Y-15636246D01*
X15219825Y-15636246D02*
X15229349Y-15588627D01*
X15229349Y-15588627D02*
X15238872Y-15560055D01*
X15238872Y-15560055D02*
X15248396Y-15541008D01*
X15248396Y-15541008D02*
X15267444Y-15512436D01*
X15267444Y-15512436D02*
X15276968Y-15502912D01*
X15353158Y-15598150D02*
X15353158Y-15731484D01*
X15353158Y-15617198D02*
X15362682Y-15607674D01*
X15362682Y-15607674D02*
X15381730Y-15598150D01*
X15381730Y-15598150D02*
X15410301Y-15598150D01*
X15410301Y-15598150D02*
X15429349Y-15607674D01*
X15429349Y-15607674D02*
X15438872Y-15626722D01*
X15438872Y-15626722D02*
X15438872Y-15731484D01*
X15562682Y-15731484D02*
X15543634Y-15721960D01*
X15543634Y-15721960D02*
X15534111Y-15712436D01*
X15534111Y-15712436D02*
X15524587Y-15693388D01*
X15524587Y-15693388D02*
X15524587Y-15636246D01*
X15524587Y-15636246D02*
X15534111Y-15617198D01*
X15534111Y-15617198D02*
X15543634Y-15607674D01*
X15543634Y-15607674D02*
X15562682Y-15598150D01*
X15562682Y-15598150D02*
X15591253Y-15598150D01*
X15591253Y-15598150D02*
X15610301Y-15607674D01*
X15610301Y-15607674D02*
X15619825Y-15617198D01*
X15619825Y-15617198D02*
X15629349Y-15636246D01*
X15629349Y-15636246D02*
X15629349Y-15693388D01*
X15629349Y-15693388D02*
X15619825Y-15712436D01*
X15619825Y-15712436D02*
X15610301Y-15721960D01*
X15610301Y-15721960D02*
X15591253Y-15731484D01*
X15591253Y-15731484D02*
X15562682Y-15731484D01*
X15686492Y-15598150D02*
X15762682Y-15598150D01*
X15715063Y-15531484D02*
X15715063Y-15702912D01*
X15715063Y-15702912D02*
X15724587Y-15721960D01*
X15724587Y-15721960D02*
X15743634Y-15731484D01*
X15743634Y-15731484D02*
X15762682Y-15731484D01*
X15981730Y-15598150D02*
X15981730Y-15798150D01*
X15981730Y-15607674D02*
X16000777Y-15598150D01*
X16000777Y-15598150D02*
X16038873Y-15598150D01*
X16038873Y-15598150D02*
X16057920Y-15607674D01*
X16057920Y-15607674D02*
X16067444Y-15617198D01*
X16067444Y-15617198D02*
X16076968Y-15636246D01*
X16076968Y-15636246D02*
X16076968Y-15693388D01*
X16076968Y-15693388D02*
X16067444Y-15712436D01*
X16067444Y-15712436D02*
X16057920Y-15721960D01*
X16057920Y-15721960D02*
X16038873Y-15731484D01*
X16038873Y-15731484D02*
X16000777Y-15731484D01*
X16000777Y-15731484D02*
X15981730Y-15721960D01*
X16191253Y-15731484D02*
X16172206Y-15721960D01*
X16172206Y-15721960D02*
X16162682Y-15702912D01*
X16162682Y-15702912D02*
X16162682Y-15531484D01*
X16353158Y-15731484D02*
X16353158Y-15626722D01*
X16353158Y-15626722D02*
X16343634Y-15607674D01*
X16343634Y-15607674D02*
X16324587Y-15598150D01*
X16324587Y-15598150D02*
X16286492Y-15598150D01*
X16286492Y-15598150D02*
X16267444Y-15607674D01*
X16353158Y-15721960D02*
X16334111Y-15731484D01*
X16334111Y-15731484D02*
X16286492Y-15731484D01*
X16286492Y-15731484D02*
X16267444Y-15721960D01*
X16267444Y-15721960D02*
X16257920Y-15702912D01*
X16257920Y-15702912D02*
X16257920Y-15683865D01*
X16257920Y-15683865D02*
X16267444Y-15664817D01*
X16267444Y-15664817D02*
X16286492Y-15655293D01*
X16286492Y-15655293D02*
X16334111Y-15655293D01*
X16334111Y-15655293D02*
X16353158Y-15645769D01*
X16419825Y-15598150D02*
X16496015Y-15598150D01*
X16448396Y-15531484D02*
X16448396Y-15702912D01*
X16448396Y-15702912D02*
X16457920Y-15721960D01*
X16457920Y-15721960D02*
X16476968Y-15731484D01*
X16476968Y-15731484D02*
X16496015Y-15731484D01*
X16638873Y-15721960D02*
X16619825Y-15731484D01*
X16619825Y-15731484D02*
X16581730Y-15731484D01*
X16581730Y-15731484D02*
X16562682Y-15721960D01*
X16562682Y-15721960D02*
X16553158Y-15702912D01*
X16553158Y-15702912D02*
X16553158Y-15626722D01*
X16553158Y-15626722D02*
X16562682Y-15607674D01*
X16562682Y-15607674D02*
X16581730Y-15598150D01*
X16581730Y-15598150D02*
X16619825Y-15598150D01*
X16619825Y-15598150D02*
X16638873Y-15607674D01*
X16638873Y-15607674D02*
X16648396Y-15626722D01*
X16648396Y-15626722D02*
X16648396Y-15645769D01*
X16648396Y-15645769D02*
X16553158Y-15664817D01*
X16819825Y-15731484D02*
X16819825Y-15531484D01*
X16819825Y-15721960D02*
X16800777Y-15731484D01*
X16800777Y-15731484D02*
X16762682Y-15731484D01*
X16762682Y-15731484D02*
X16743634Y-15721960D01*
X16743634Y-15721960D02*
X16734111Y-15712436D01*
X16734111Y-15712436D02*
X16724587Y-15693388D01*
X16724587Y-15693388D02*
X16724587Y-15636246D01*
X16724587Y-15636246D02*
X16734111Y-15617198D01*
X16734111Y-15617198D02*
X16743634Y-15607674D01*
X16743634Y-15607674D02*
X16762682Y-15598150D01*
X16762682Y-15598150D02*
X16800777Y-15598150D01*
X16800777Y-15598150D02*
X16819825Y-15607674D01*
X16896016Y-15807674D02*
X16905539Y-15798150D01*
X16905539Y-15798150D02*
X16924587Y-15769579D01*
X16924587Y-15769579D02*
X16934111Y-15750531D01*
X16934111Y-15750531D02*
X16943635Y-15721960D01*
X16943635Y-15721960D02*
X16953158Y-15674341D01*
X16953158Y-15674341D02*
X16953158Y-15636246D01*
X16953158Y-15636246D02*
X16943635Y-15588627D01*
X16943635Y-15588627D02*
X16934111Y-15560055D01*
X16934111Y-15560055D02*
X16924587Y-15541008D01*
X16924587Y-15541008D02*
X16905539Y-15512436D01*
X16905539Y-15512436D02*
X16896016Y-15502912D01*
M02*
