%TF.GenerationSoftware,KiCad,Pcbnew,8.0.0*%
%TF.CreationDate,2024-04-12T21:43:52+10:00*%
%TF.ProjectId,ghost-bot,67686f73-742d-4626-9f74-2e6b69636164,rev?*%
%TF.SameCoordinates,Original*%
%TF.FileFunction,Legend,Bot*%
%TF.FilePolarity,Positive*%
%FSLAX46Y46*%
G04 Gerber Fmt 4.6, Leading zero omitted, Abs format (unit mm)*
G04 Created by KiCad (PCBNEW 8.0.0) date 2024-04-12 21:43:52*
%MOMM*%
%LPD*%
G01*
G04 APERTURE LIST*
%ADD10C,0.100000*%
%ADD11C,0.300000*%
%ADD12C,0.200000*%
%ADD13C,0.150000*%
%ADD14C,0.120000*%
G04 APERTURE END LIST*
D10*
X115685000Y-120060000D02*
X148185000Y-120060000D01*
X148185000Y-128560000D01*
X115685000Y-128560000D01*
X115685000Y-120060000D01*
G36*
X115685000Y-120060000D02*
G01*
X148185000Y-120060000D01*
X148185000Y-128560000D01*
X115685000Y-128560000D01*
X115685000Y-120060000D01*
G37*
D11*
G36*
X127654999Y-104663364D02*
G01*
X127765458Y-104771105D01*
X127890111Y-105015344D01*
X128027173Y-105552932D01*
X128029799Y-106230455D01*
X127898106Y-106767860D01*
X127773176Y-107022969D01*
X127665437Y-107133427D01*
X127432058Y-107252537D01*
X127216490Y-107254510D01*
X126985001Y-107141146D01*
X126874543Y-107033406D01*
X126749888Y-106789165D01*
X126612826Y-106251578D01*
X126610200Y-105574055D01*
X126741894Y-105036649D01*
X126866822Y-104781544D01*
X126974564Y-104671083D01*
X127207941Y-104551974D01*
X127423509Y-104550001D01*
X127654999Y-104663364D01*
G37*
G36*
X132797856Y-104663364D02*
G01*
X132908315Y-104771105D01*
X133032968Y-105015344D01*
X133170030Y-105552932D01*
X133172656Y-106230455D01*
X133040963Y-106767860D01*
X132916033Y-107022969D01*
X132808294Y-107133427D01*
X132574915Y-107252537D01*
X132359347Y-107254510D01*
X132127858Y-107141146D01*
X132017400Y-107033406D01*
X131892745Y-106789165D01*
X131755683Y-106251578D01*
X131753057Y-105574055D01*
X131884751Y-105036649D01*
X132009679Y-104781544D01*
X132117421Y-104671083D01*
X132350798Y-104551974D01*
X132566366Y-104550001D01*
X132797856Y-104663364D01*
G37*
G36*
X141369284Y-104663364D02*
G01*
X141479743Y-104771105D01*
X141604396Y-105015344D01*
X141741458Y-105552932D01*
X141744084Y-106230455D01*
X141612391Y-106767860D01*
X141487461Y-107022969D01*
X141379722Y-107133427D01*
X141146343Y-107252537D01*
X140930775Y-107254510D01*
X140699286Y-107141146D01*
X140588828Y-107033406D01*
X140464173Y-106789165D01*
X140327111Y-106251578D01*
X140324485Y-105574055D01*
X140456179Y-105036649D01*
X140581107Y-104781544D01*
X140688849Y-104671083D01*
X140922226Y-104551974D01*
X141137794Y-104550001D01*
X141369284Y-104663364D01*
G37*
G36*
X122226140Y-99833392D02*
G01*
X122469383Y-100073420D01*
X122598592Y-100580210D01*
X122601289Y-101543227D01*
X122473636Y-102064145D01*
X122237844Y-102303095D01*
X122003751Y-102422570D01*
X121502808Y-102424973D01*
X121271001Y-102311455D01*
X121027758Y-102071425D01*
X120898549Y-101564636D01*
X120895852Y-100601619D01*
X121023505Y-100080700D01*
X121259296Y-99841752D01*
X121493390Y-99722277D01*
X121994333Y-99719874D01*
X122226140Y-99833392D01*
G37*
G36*
X125458425Y-102422786D02*
G01*
X124503137Y-102425135D01*
X124270714Y-102311315D01*
X124160255Y-102203574D01*
X124041235Y-101970370D01*
X124038980Y-101612166D01*
X124152536Y-101380281D01*
X124254157Y-101276097D01*
X124622235Y-101150948D01*
X125457213Y-101148610D01*
X125458425Y-102422786D01*
G37*
G36*
X125456930Y-100851411D02*
G01*
X124645946Y-100853682D01*
X124413571Y-100739885D01*
X124303113Y-100632146D01*
X124184003Y-100398768D01*
X124182030Y-100183199D01*
X124295394Y-99951710D01*
X124403134Y-99841251D01*
X124636127Y-99722338D01*
X125455854Y-99720043D01*
X125456930Y-100851411D01*
G37*
G36*
X137226140Y-99833392D02*
G01*
X137469383Y-100073420D01*
X137598592Y-100580210D01*
X137601289Y-101543227D01*
X137473636Y-102064145D01*
X137237844Y-102303095D01*
X137003751Y-102422570D01*
X136502808Y-102424973D01*
X136271001Y-102311455D01*
X136027758Y-102071425D01*
X135898549Y-101564636D01*
X135895852Y-100601619D01*
X136023505Y-100080700D01*
X136259296Y-99841752D01*
X136493390Y-99722277D01*
X136994333Y-99719874D01*
X137226140Y-99833392D01*
G37*
G36*
X145230727Y-107885589D02*
G01*
X117268120Y-107885589D01*
X117268120Y-106431520D01*
X117601453Y-106431520D01*
X117623851Y-106485592D01*
X117665235Y-106526976D01*
X117719307Y-106549374D01*
X117748571Y-106552256D01*
X118028775Y-106551827D01*
X118030025Y-107431520D01*
X118052423Y-107485592D01*
X118093807Y-107526976D01*
X118147879Y-107549374D01*
X118206407Y-107549374D01*
X118260479Y-107526976D01*
X118301863Y-107485592D01*
X118324261Y-107431520D01*
X118327143Y-107402256D01*
X118325934Y-106551373D01*
X119601215Y-106549425D01*
X119624475Y-106551079D01*
X119629565Y-106549382D01*
X119634978Y-106549374D01*
X119657180Y-106540177D01*
X119679999Y-106532571D01*
X119684072Y-106529037D01*
X119689050Y-106526976D01*
X119706044Y-106509981D01*
X119724214Y-106494223D01*
X119726624Y-106489401D01*
X119730434Y-106485592D01*
X119739632Y-106463385D01*
X119750387Y-106441876D01*
X119750769Y-106436499D01*
X119752832Y-106431520D01*
X119752832Y-106407481D01*
X119754537Y-106383496D01*
X119752832Y-106375997D01*
X119752832Y-106372992D01*
X119751316Y-106369334D01*
X119748017Y-106354822D01*
X119285703Y-104973684D01*
X120598571Y-104973684D01*
X120601173Y-105258115D01*
X120599749Y-105278160D01*
X120601424Y-105285527D01*
X120601453Y-105288663D01*
X120602970Y-105292325D01*
X120606269Y-105306833D01*
X120744310Y-105712831D01*
X120744310Y-105717233D01*
X120752662Y-105737398D01*
X120761114Y-105762255D01*
X120764644Y-105766325D01*
X120766707Y-105771305D01*
X120785362Y-105794036D01*
X122247560Y-107252803D01*
X120719307Y-107255138D01*
X120665235Y-107277536D01*
X120623851Y-107318920D01*
X120601453Y-107372992D01*
X120601453Y-107431520D01*
X120623851Y-107485592D01*
X120665235Y-107526976D01*
X120719307Y-107549374D01*
X120748571Y-107552256D01*
X122634978Y-107549374D01*
X122650814Y-107542813D01*
X122689050Y-107526977D01*
X122730435Y-107485592D01*
X122752832Y-107431519D01*
X122752832Y-107372993D01*
X122745305Y-107354822D01*
X122740299Y-107342735D01*
X122730435Y-107318921D01*
X122711780Y-107296190D01*
X121845076Y-106431520D01*
X123315739Y-106431520D01*
X123338137Y-106485592D01*
X123379521Y-106526976D01*
X123433593Y-106549374D01*
X123462857Y-106552256D01*
X123743061Y-106551827D01*
X123744311Y-107431520D01*
X123766709Y-107485592D01*
X123808093Y-107526976D01*
X123862165Y-107549374D01*
X123920693Y-107549374D01*
X123974765Y-107526976D01*
X124016149Y-107485592D01*
X124038547Y-107431520D01*
X124041429Y-107402256D01*
X124040220Y-106551373D01*
X125315501Y-106549425D01*
X125338761Y-106551079D01*
X125343851Y-106549382D01*
X125349264Y-106549374D01*
X125371466Y-106540177D01*
X125394285Y-106532571D01*
X125398358Y-106529037D01*
X125403336Y-106526976D01*
X125420330Y-106509981D01*
X125438500Y-106494223D01*
X125440910Y-106489401D01*
X125444720Y-106485592D01*
X125453918Y-106463385D01*
X125464673Y-106441876D01*
X125465055Y-106436499D01*
X125467118Y-106431520D01*
X125467118Y-106407481D01*
X125468823Y-106383496D01*
X125467118Y-106375997D01*
X125467118Y-106372992D01*
X125465602Y-106369334D01*
X125462303Y-106354822D01*
X125191266Y-105545113D01*
X126312857Y-105545113D01*
X126315587Y-106249532D01*
X126313034Y-106266690D01*
X126315724Y-106284881D01*
X126315739Y-106288663D01*
X126316586Y-106290707D01*
X126317336Y-106295779D01*
X126459954Y-106855162D01*
X126461041Y-106870446D01*
X126469462Y-106892454D01*
X126470086Y-106894899D01*
X126470731Y-106895770D01*
X126471550Y-106897909D01*
X126616030Y-107180995D01*
X126623851Y-107199876D01*
X126628653Y-107205727D01*
X126630073Y-107208509D01*
X126633066Y-107211105D01*
X126642506Y-107222607D01*
X126787090Y-107363634D01*
X126799461Y-107377898D01*
X126805813Y-107381896D01*
X126808093Y-107384120D01*
X126811755Y-107385636D01*
X126824347Y-107393563D01*
X127090956Y-107524125D01*
X127093807Y-107526976D01*
X127113078Y-107534958D01*
X127137524Y-107546930D01*
X127142901Y-107547312D01*
X127147879Y-107549374D01*
X127177143Y-107552256D01*
X127440402Y-107549847D01*
X127444095Y-107551078D01*
X127464523Y-107549626D01*
X127492121Y-107549374D01*
X127497099Y-107547311D01*
X127502475Y-107546930D01*
X127529939Y-107536420D01*
X127813020Y-107391943D01*
X127831908Y-107384120D01*
X127837760Y-107379316D01*
X127840540Y-107377898D01*
X127843135Y-107374905D01*
X127854638Y-107365465D01*
X127995660Y-107220882D01*
X128009928Y-107208509D01*
X128013928Y-107202153D01*
X128016150Y-107199876D01*
X128017665Y-107196216D01*
X128025593Y-107183623D01*
X128161276Y-106906556D01*
X128169914Y-106894899D01*
X128177813Y-106872787D01*
X128178960Y-106870446D01*
X128179036Y-106869362D01*
X128179807Y-106867207D01*
X128317699Y-106304502D01*
X128324261Y-106288663D01*
X128326061Y-106270381D01*
X128326966Y-106266690D01*
X128326640Y-106264502D01*
X128327143Y-106259399D01*
X128324412Y-105554978D01*
X128325881Y-105545113D01*
X131455714Y-105545113D01*
X131458444Y-106249532D01*
X131455891Y-106266690D01*
X131458581Y-106284881D01*
X131458596Y-106288663D01*
X131459443Y-106290707D01*
X131460193Y-106295779D01*
X131602811Y-106855162D01*
X131603898Y-106870446D01*
X131612319Y-106892454D01*
X131612943Y-106894899D01*
X131613588Y-106895770D01*
X131614407Y-106897909D01*
X131758887Y-107180995D01*
X131766708Y-107199876D01*
X131771510Y-107205727D01*
X131772930Y-107208509D01*
X131775923Y-107211105D01*
X131785363Y-107222607D01*
X131929947Y-107363634D01*
X131942318Y-107377898D01*
X131948670Y-107381896D01*
X131950950Y-107384120D01*
X131954612Y-107385636D01*
X131967204Y-107393563D01*
X132233813Y-107524125D01*
X132236664Y-107526976D01*
X132255935Y-107534958D01*
X132280381Y-107546930D01*
X132285758Y-107547312D01*
X132290736Y-107549374D01*
X132320000Y-107552256D01*
X132583259Y-107549847D01*
X132586952Y-107551078D01*
X132607380Y-107549626D01*
X132634978Y-107549374D01*
X132639956Y-107547311D01*
X132645332Y-107546930D01*
X132672796Y-107536420D01*
X132955877Y-107391943D01*
X132974765Y-107384120D01*
X132980617Y-107379316D01*
X132983397Y-107377898D01*
X132985992Y-107374905D01*
X132997495Y-107365465D01*
X133072406Y-107288662D01*
X134315739Y-107288662D01*
X134338136Y-107342735D01*
X134338140Y-107342739D01*
X134356791Y-107365465D01*
X134522378Y-107526977D01*
X134560613Y-107542813D01*
X134576450Y-107549374D01*
X134576451Y-107549374D01*
X134634977Y-107549374D01*
X134634978Y-107549374D01*
X134666251Y-107536420D01*
X134689049Y-107526977D01*
X134711780Y-107508322D01*
X134786692Y-107431520D01*
X135744310Y-107431520D01*
X135766708Y-107485592D01*
X135808092Y-107526976D01*
X135862164Y-107549374D01*
X135891428Y-107552256D01*
X137634978Y-107549374D01*
X137689050Y-107526976D01*
X137730434Y-107485592D01*
X137752832Y-107431520D01*
X137752832Y-107372992D01*
X137730434Y-107318920D01*
X137700176Y-107288662D01*
X138601453Y-107288662D01*
X138623850Y-107342735D01*
X138623854Y-107342739D01*
X138642505Y-107365465D01*
X138808092Y-107526977D01*
X138846327Y-107542813D01*
X138862164Y-107549374D01*
X138862165Y-107549374D01*
X138920691Y-107549374D01*
X138920692Y-107549374D01*
X138951965Y-107536420D01*
X138974763Y-107526977D01*
X138997494Y-107508322D01*
X139159006Y-107342735D01*
X139181403Y-107288662D01*
X139181403Y-107230136D01*
X139159006Y-107176064D01*
X139140351Y-107153333D01*
X138974764Y-106991820D01*
X138927000Y-106972036D01*
X138920692Y-106969423D01*
X138862164Y-106969423D01*
X138855856Y-106972036D01*
X138808092Y-106991820D01*
X138785362Y-107010475D01*
X138623850Y-107176064D01*
X138601453Y-107230137D01*
X138601453Y-107288662D01*
X137700176Y-107288662D01*
X137689050Y-107277536D01*
X137634978Y-107255138D01*
X137605714Y-107252256D01*
X136898429Y-107253425D01*
X136896804Y-105545113D01*
X140027142Y-105545113D01*
X140029872Y-106249532D01*
X140027319Y-106266690D01*
X140030009Y-106284881D01*
X140030024Y-106288663D01*
X140030871Y-106290707D01*
X140031621Y-106295779D01*
X140174239Y-106855162D01*
X140175326Y-106870446D01*
X140183747Y-106892454D01*
X140184371Y-106894899D01*
X140185016Y-106895770D01*
X140185835Y-106897909D01*
X140330315Y-107180995D01*
X140338136Y-107199876D01*
X140342938Y-107205727D01*
X140344358Y-107208509D01*
X140347351Y-107211105D01*
X140356791Y-107222607D01*
X140501375Y-107363634D01*
X140513746Y-107377898D01*
X140520098Y-107381896D01*
X140522378Y-107384120D01*
X140526040Y-107385636D01*
X140538632Y-107393563D01*
X140805241Y-107524125D01*
X140808092Y-107526976D01*
X140827363Y-107534958D01*
X140851809Y-107546930D01*
X140857186Y-107547312D01*
X140862164Y-107549374D01*
X140891428Y-107552256D01*
X141154687Y-107549847D01*
X141158380Y-107551078D01*
X141178808Y-107549626D01*
X141206406Y-107549374D01*
X141211384Y-107547311D01*
X141216760Y-107546930D01*
X141244224Y-107536420D01*
X141527305Y-107391943D01*
X141546193Y-107384120D01*
X141552045Y-107379316D01*
X141554825Y-107377898D01*
X141557420Y-107374905D01*
X141568923Y-107365465D01*
X141709945Y-107220882D01*
X141724213Y-107208509D01*
X141728213Y-107202153D01*
X141730435Y-107199876D01*
X141731950Y-107196216D01*
X141739878Y-107183623D01*
X141875561Y-106906556D01*
X141884199Y-106894899D01*
X141892098Y-106872787D01*
X141893245Y-106870446D01*
X141893321Y-106869362D01*
X141894092Y-106867207D01*
X142031984Y-106304502D01*
X142038546Y-106288663D01*
X142040346Y-106270381D01*
X142041251Y-106266690D01*
X142040925Y-106264502D01*
X142041428Y-106259399D01*
X142038697Y-105554978D01*
X142041251Y-105537821D01*
X142038560Y-105519629D01*
X142038546Y-105515849D01*
X142037699Y-105513804D01*
X142036949Y-105508732D01*
X141894331Y-104949352D01*
X141893245Y-104934065D01*
X141884821Y-104912055D01*
X141884199Y-104909612D01*
X141883553Y-104908740D01*
X141882735Y-104906602D01*
X141738258Y-104623521D01*
X141730435Y-104604634D01*
X141725631Y-104598781D01*
X141724213Y-104596002D01*
X141721220Y-104593406D01*
X141711780Y-104581904D01*
X141567199Y-104440882D01*
X141554825Y-104426614D01*
X141548469Y-104422613D01*
X141546833Y-104421017D01*
X142599749Y-104421017D01*
X142606269Y-104449690D01*
X143603150Y-107431357D01*
X143603898Y-107441876D01*
X143612255Y-107458590D01*
X143618257Y-107476541D01*
X143625279Y-107484638D01*
X143630072Y-107494223D01*
X143644278Y-107506544D01*
X143656604Y-107520756D01*
X143666191Y-107525549D01*
X143674286Y-107532570D01*
X143692128Y-107538517D01*
X143708952Y-107546929D01*
X143719642Y-107547688D01*
X143729810Y-107551078D01*
X143748566Y-107549745D01*
X143767332Y-107551079D01*
X143777503Y-107547688D01*
X143788191Y-107546929D01*
X143805008Y-107538520D01*
X143822856Y-107532571D01*
X143830955Y-107525546D01*
X143840538Y-107520755D01*
X143852858Y-107506549D01*
X143867071Y-107494223D01*
X143871864Y-107484635D01*
X143878885Y-107476541D01*
X143890873Y-107449690D01*
X144897394Y-104421016D01*
X144893244Y-104362636D01*
X144867071Y-104310289D01*
X144822856Y-104271941D01*
X144767332Y-104253433D01*
X144708952Y-104257583D01*
X144656604Y-104283756D01*
X144618257Y-104327971D01*
X144606269Y-104354822D01*
X143749652Y-106932428D01*
X142878885Y-104327971D01*
X142840538Y-104283757D01*
X142788191Y-104257583D01*
X142729810Y-104253434D01*
X142674286Y-104271942D01*
X142630072Y-104310289D01*
X142603898Y-104362636D01*
X142599749Y-104421017D01*
X141546833Y-104421017D01*
X141546192Y-104420392D01*
X141542532Y-104418876D01*
X141529939Y-104410949D01*
X141263329Y-104280387D01*
X141260478Y-104277536D01*
X141241200Y-104269550D01*
X141216760Y-104257582D01*
X141211384Y-104257200D01*
X141206406Y-104255138D01*
X141177142Y-104252256D01*
X140913882Y-104254664D01*
X140910190Y-104253434D01*
X140889760Y-104254885D01*
X140862164Y-104255138D01*
X140857186Y-104257199D01*
X140851809Y-104257582D01*
X140824346Y-104268092D01*
X140541265Y-104412568D01*
X140522378Y-104420392D01*
X140516525Y-104425195D01*
X140513746Y-104426614D01*
X140511150Y-104429606D01*
X140499648Y-104439047D01*
X140358626Y-104583627D01*
X140344358Y-104596002D01*
X140340357Y-104602357D01*
X140338136Y-104604635D01*
X140336620Y-104608294D01*
X140328693Y-104620888D01*
X140193010Y-104897953D01*
X140184371Y-104909613D01*
X140176466Y-104931736D01*
X140175326Y-104934065D01*
X140175249Y-104935142D01*
X140174477Y-104937304D01*
X140036584Y-105500010D01*
X140030024Y-105515849D01*
X140028223Y-105534130D01*
X140027319Y-105537822D01*
X140027644Y-105540009D01*
X140027142Y-105545113D01*
X136896804Y-105545113D01*
X136896180Y-104889435D01*
X136904324Y-104901512D01*
X136909564Y-104914163D01*
X136928016Y-104936646D01*
X136928108Y-104936782D01*
X136928152Y-104936811D01*
X136928219Y-104936893D01*
X137214215Y-105219109D01*
X137228032Y-105235040D01*
X137234460Y-105239086D01*
X137236665Y-105241262D01*
X137240324Y-105242777D01*
X137252918Y-105250705D01*
X137566095Y-105404072D01*
X137624475Y-105408221D01*
X137679997Y-105389713D01*
X137724212Y-105351367D01*
X137750387Y-105299018D01*
X137754536Y-105240638D01*
X137736028Y-105185115D01*
X137697682Y-105140900D01*
X137672796Y-105125235D01*
X137413860Y-104998430D01*
X137157898Y-104745852D01*
X136878529Y-104331566D01*
X136873291Y-104318920D01*
X136863190Y-104308819D01*
X136854748Y-104296300D01*
X136842405Y-104288034D01*
X136831907Y-104277536D01*
X136818330Y-104271912D01*
X136806118Y-104263734D01*
X136791555Y-104260821D01*
X136777835Y-104255138D01*
X136763139Y-104255138D01*
X136748729Y-104252256D01*
X136734160Y-104255138D01*
X136719307Y-104255138D01*
X136705728Y-104260762D01*
X136691314Y-104263614D01*
X136678956Y-104271852D01*
X136665235Y-104277536D01*
X136654845Y-104287925D01*
X136642615Y-104296079D01*
X136634349Y-104308421D01*
X136623851Y-104318920D01*
X136618227Y-104332496D01*
X136610049Y-104344709D01*
X136607136Y-104359271D01*
X136601453Y-104372992D01*
X136598601Y-104401944D01*
X136598571Y-104402098D01*
X136598581Y-104402150D01*
X136598571Y-104402256D01*
X136601284Y-107253916D01*
X135862164Y-107255138D01*
X135808092Y-107277536D01*
X135766708Y-107318920D01*
X135744310Y-107372992D01*
X135744310Y-107431520D01*
X134786692Y-107431520D01*
X134873292Y-107342735D01*
X134895689Y-107288662D01*
X134895689Y-107230136D01*
X134873292Y-107176064D01*
X134854637Y-107153333D01*
X134689050Y-106991820D01*
X134641286Y-106972036D01*
X134634978Y-106969423D01*
X134576450Y-106969423D01*
X134570142Y-106972036D01*
X134522378Y-106991820D01*
X134499648Y-107010475D01*
X134338136Y-107176064D01*
X134315739Y-107230137D01*
X134315739Y-107288662D01*
X133072406Y-107288662D01*
X133138517Y-107220882D01*
X133152785Y-107208509D01*
X133156785Y-107202153D01*
X133159007Y-107199876D01*
X133160522Y-107196216D01*
X133168450Y-107183623D01*
X133304133Y-106906556D01*
X133312771Y-106894899D01*
X133320670Y-106872787D01*
X133321817Y-106870446D01*
X133321893Y-106869362D01*
X133322664Y-106867207D01*
X133460556Y-106304502D01*
X133467118Y-106288663D01*
X133468918Y-106270381D01*
X133469823Y-106266690D01*
X133469497Y-106264502D01*
X133470000Y-106259399D01*
X133467269Y-105554978D01*
X133469823Y-105537821D01*
X133467132Y-105519629D01*
X133467118Y-105515849D01*
X133466271Y-105513804D01*
X133465521Y-105508732D01*
X133322903Y-104949352D01*
X133321817Y-104934065D01*
X133313393Y-104912055D01*
X133312771Y-104909612D01*
X133312125Y-104908740D01*
X133311307Y-104906602D01*
X133166830Y-104623521D01*
X133159007Y-104604634D01*
X133154203Y-104598781D01*
X133152785Y-104596002D01*
X133149792Y-104593406D01*
X133140352Y-104581904D01*
X132995771Y-104440882D01*
X132983397Y-104426614D01*
X132977041Y-104422613D01*
X132974764Y-104420392D01*
X132971104Y-104418876D01*
X132958511Y-104410949D01*
X132691901Y-104280387D01*
X132689050Y-104277536D01*
X132669772Y-104269550D01*
X132645332Y-104257582D01*
X132639956Y-104257200D01*
X132634978Y-104255138D01*
X132605714Y-104252256D01*
X132342454Y-104254664D01*
X132338762Y-104253434D01*
X132318332Y-104254885D01*
X132290736Y-104255138D01*
X132285758Y-104257199D01*
X132280381Y-104257582D01*
X132252918Y-104268092D01*
X131969837Y-104412568D01*
X131950950Y-104420392D01*
X131945097Y-104425195D01*
X131942318Y-104426614D01*
X131939722Y-104429606D01*
X131928220Y-104439047D01*
X131787198Y-104583627D01*
X131772930Y-104596002D01*
X131768929Y-104602357D01*
X131766708Y-104604635D01*
X131765192Y-104608294D01*
X131757265Y-104620888D01*
X131621582Y-104897953D01*
X131612943Y-104909613D01*
X131605038Y-104931736D01*
X131603898Y-104934065D01*
X131603821Y-104935142D01*
X131603049Y-104937304D01*
X131465156Y-105500010D01*
X131458596Y-105515849D01*
X131456795Y-105534130D01*
X131455891Y-105537822D01*
X131456216Y-105540009D01*
X131455714Y-105545113D01*
X128325881Y-105545113D01*
X128326966Y-105537821D01*
X128324275Y-105519629D01*
X128324261Y-105515849D01*
X128323414Y-105513804D01*
X128322664Y-105508732D01*
X128180046Y-104949352D01*
X128178960Y-104934065D01*
X128170536Y-104912055D01*
X128169914Y-104909612D01*
X128169268Y-104908740D01*
X128168450Y-104906602D01*
X128023973Y-104623521D01*
X128016150Y-104604634D01*
X128011346Y-104598781D01*
X128009928Y-104596002D01*
X128006935Y-104593406D01*
X127997495Y-104581904D01*
X127852914Y-104440882D01*
X127840540Y-104426614D01*
X127834184Y-104422613D01*
X127831907Y-104420392D01*
X127828247Y-104418876D01*
X127815654Y-104410949D01*
X127549044Y-104280387D01*
X127546193Y-104277536D01*
X127526915Y-104269550D01*
X127502475Y-104257582D01*
X127497099Y-104257200D01*
X127492121Y-104255138D01*
X127462857Y-104252256D01*
X127199597Y-104254664D01*
X127195905Y-104253434D01*
X127175475Y-104254885D01*
X127147879Y-104255138D01*
X127142901Y-104257199D01*
X127137524Y-104257582D01*
X127110061Y-104268092D01*
X126826980Y-104412568D01*
X126808093Y-104420392D01*
X126802240Y-104425195D01*
X126799461Y-104426614D01*
X126796865Y-104429606D01*
X126785363Y-104439047D01*
X126644341Y-104583627D01*
X126630073Y-104596002D01*
X126626072Y-104602357D01*
X126623851Y-104604635D01*
X126622335Y-104608294D01*
X126614408Y-104620888D01*
X126478725Y-104897953D01*
X126470086Y-104909613D01*
X126462181Y-104931736D01*
X126461041Y-104934065D01*
X126460964Y-104935142D01*
X126460192Y-104937304D01*
X126322299Y-105500010D01*
X126315739Y-105515849D01*
X126313938Y-105534130D01*
X126313034Y-105537822D01*
X126313359Y-105540009D01*
X126312857Y-105545113D01*
X125191266Y-105545113D01*
X124736028Y-104185114D01*
X124697681Y-104140900D01*
X124645334Y-104114726D01*
X124586953Y-104110577D01*
X124531429Y-104129085D01*
X124487215Y-104167432D01*
X124461041Y-104219779D01*
X124456892Y-104278160D01*
X124463412Y-104306833D01*
X125114715Y-106252569D01*
X124039798Y-106254211D01*
X124038547Y-105372992D01*
X124016149Y-105318920D01*
X123974765Y-105277536D01*
X123920693Y-105255138D01*
X123862165Y-105255138D01*
X123808093Y-105277536D01*
X123766709Y-105318920D01*
X123744311Y-105372992D01*
X123741429Y-105402256D01*
X123742639Y-106254665D01*
X123433593Y-106255138D01*
X123379521Y-106277536D01*
X123338137Y-106318920D01*
X123315739Y-106372992D01*
X123315739Y-106431520D01*
X121845076Y-106431520D01*
X121024232Y-105612602D01*
X120898416Y-105242560D01*
X120896316Y-105013031D01*
X121009680Y-104781542D01*
X121117420Y-104671083D01*
X121350477Y-104552137D01*
X121994205Y-104549642D01*
X122226427Y-104663365D01*
X122379521Y-104812691D01*
X122433594Y-104835088D01*
X122492120Y-104835088D01*
X122546192Y-104812691D01*
X122587578Y-104771305D01*
X122609975Y-104717233D01*
X122609975Y-104658707D01*
X122587578Y-104604634D01*
X122568923Y-104581904D01*
X122424342Y-104440882D01*
X122411968Y-104426614D01*
X122405612Y-104422613D01*
X122403335Y-104420392D01*
X122399675Y-104418876D01*
X122387082Y-104410949D01*
X122120472Y-104280386D01*
X122117622Y-104277536D01*
X122098350Y-104269553D01*
X122073905Y-104257582D01*
X122068527Y-104257199D01*
X122063550Y-104255138D01*
X122034286Y-104252256D01*
X121343263Y-104254934D01*
X121338762Y-104253434D01*
X121316166Y-104255039D01*
X121290736Y-104255138D01*
X121285758Y-104257199D01*
X121280381Y-104257582D01*
X121252918Y-104268092D01*
X120969832Y-104412571D01*
X120950951Y-104420392D01*
X120945098Y-104425194D01*
X120942318Y-104426614D01*
X120939721Y-104429607D01*
X120928220Y-104439047D01*
X120787192Y-104583631D01*
X120772929Y-104596002D01*
X120768930Y-104602354D01*
X120766707Y-104604634D01*
X120765190Y-104608296D01*
X120757264Y-104620888D01*
X120626701Y-104887497D01*
X120623851Y-104890348D01*
X120615871Y-104909613D01*
X120603897Y-104934065D01*
X120603514Y-104939442D01*
X120601453Y-104944420D01*
X120598571Y-104973684D01*
X119285703Y-104973684D01*
X119021742Y-104185114D01*
X118983395Y-104140900D01*
X118931048Y-104114726D01*
X118872667Y-104110577D01*
X118817143Y-104129085D01*
X118772929Y-104167432D01*
X118746755Y-104219779D01*
X118742606Y-104278160D01*
X118749126Y-104306833D01*
X119400429Y-106252569D01*
X118325512Y-106254211D01*
X118324261Y-105372992D01*
X118301863Y-105318920D01*
X118260479Y-105277536D01*
X118206407Y-105255138D01*
X118147879Y-105255138D01*
X118093807Y-105277536D01*
X118052423Y-105318920D01*
X118030025Y-105372992D01*
X118027143Y-105402256D01*
X118028353Y-106254665D01*
X117719307Y-106255138D01*
X117665235Y-106277536D01*
X117623851Y-106318920D01*
X117601453Y-106372992D01*
X117601453Y-106431520D01*
X117268120Y-106431520D01*
X117268120Y-99601688D01*
X118030025Y-99601688D01*
X118052423Y-99655760D01*
X118093807Y-99697144D01*
X118147879Y-99719542D01*
X118177143Y-99722424D01*
X118884426Y-99721254D01*
X118887167Y-102601688D01*
X118909565Y-102655760D01*
X118950949Y-102697144D01*
X119005021Y-102719542D01*
X119063549Y-102719542D01*
X119117621Y-102697144D01*
X119159005Y-102655760D01*
X119181403Y-102601688D01*
X119184285Y-102572424D01*
X119182382Y-100572424D01*
X120598571Y-100572424D01*
X120601342Y-101562279D01*
X120598748Y-101579715D01*
X120601442Y-101597934D01*
X120601453Y-101601688D01*
X120602300Y-101603732D01*
X120603050Y-101608804D01*
X120744310Y-102162857D01*
X120744310Y-102173115D01*
X120751112Y-102189536D01*
X120755800Y-102207924D01*
X120762439Y-102216885D01*
X120766707Y-102227187D01*
X120785362Y-102249918D01*
X121071364Y-102532142D01*
X121085174Y-102548066D01*
X121091599Y-102552110D01*
X121093806Y-102554288D01*
X121097468Y-102555804D01*
X121110060Y-102563731D01*
X121376669Y-102694292D01*
X121379521Y-102697144D01*
X121398798Y-102705129D01*
X121423239Y-102717098D01*
X121428614Y-102717479D01*
X121433593Y-102719542D01*
X121462857Y-102722424D01*
X122011165Y-102719793D01*
X122015523Y-102721246D01*
X122037764Y-102719665D01*
X122063549Y-102719542D01*
X122068527Y-102717479D01*
X122073903Y-102717098D01*
X122101367Y-102706588D01*
X122384448Y-102562111D01*
X122403336Y-102554288D01*
X122409188Y-102549484D01*
X122411968Y-102548066D01*
X122414563Y-102545073D01*
X122426066Y-102535633D01*
X122698020Y-102260035D01*
X122706498Y-102254949D01*
X122716921Y-102240881D01*
X122730435Y-102227187D01*
X122734702Y-102216885D01*
X122741342Y-102207924D01*
X122751235Y-102180232D01*
X122889127Y-101617527D01*
X122895689Y-101601688D01*
X122897489Y-101583406D01*
X122898394Y-101579715D01*
X122898068Y-101577527D01*
X122898571Y-101572424D01*
X123741428Y-101572424D01*
X123743981Y-101978106D01*
X123742606Y-101982233D01*
X123744143Y-102003878D01*
X123744310Y-102030259D01*
X123746371Y-102035236D01*
X123746754Y-102040614D01*
X123757264Y-102068077D01*
X123901743Y-102351162D01*
X123909564Y-102370044D01*
X123914366Y-102375896D01*
X123915786Y-102378677D01*
X123918779Y-102381273D01*
X123928219Y-102392775D01*
X124072803Y-102533802D01*
X124085174Y-102548066D01*
X124091526Y-102552064D01*
X124093806Y-102554288D01*
X124097468Y-102555804D01*
X124110060Y-102563731D01*
X124376669Y-102694292D01*
X124379521Y-102697144D01*
X124398798Y-102705129D01*
X124423239Y-102717098D01*
X124428614Y-102717479D01*
X124433593Y-102719542D01*
X124462857Y-102722424D01*
X125634978Y-102719542D01*
X125689050Y-102697144D01*
X125730434Y-102655760D01*
X125752832Y-102601688D01*
X125755714Y-102572424D01*
X125754655Y-101458831D01*
X126887168Y-101458831D01*
X126909566Y-101512903D01*
X126950950Y-101554287D01*
X127005022Y-101576685D01*
X127034286Y-101579567D01*
X129349264Y-101576685D01*
X129403336Y-101554287D01*
X129444720Y-101512903D01*
X129467118Y-101458831D01*
X129467118Y-101400303D01*
X129444720Y-101346231D01*
X129403336Y-101304847D01*
X129349264Y-101282449D01*
X129320000Y-101279567D01*
X127005022Y-101282449D01*
X126950950Y-101304847D01*
X126909566Y-101346231D01*
X126887168Y-101400303D01*
X126887168Y-101458831D01*
X125754655Y-101458831D01*
X125752888Y-99601688D01*
X130172882Y-99601688D01*
X130195280Y-99655760D01*
X130236664Y-99697144D01*
X130290736Y-99719542D01*
X130320000Y-99722424D01*
X131027283Y-99721254D01*
X131030024Y-102601688D01*
X131052422Y-102655760D01*
X131093806Y-102697144D01*
X131147878Y-102719542D01*
X131206406Y-102719542D01*
X131260478Y-102697144D01*
X131301862Y-102655760D01*
X131324260Y-102601688D01*
X131327142Y-102572424D01*
X131326326Y-101715281D01*
X132741428Y-101715281D01*
X132743836Y-101978540D01*
X132742606Y-101982233D01*
X132744057Y-102002662D01*
X132744310Y-102030259D01*
X132746371Y-102035236D01*
X132746754Y-102040614D01*
X132757264Y-102068077D01*
X132901742Y-102351160D01*
X132909564Y-102370044D01*
X132914366Y-102375896D01*
X132915786Y-102378677D01*
X132918779Y-102381273D01*
X132928219Y-102392775D01*
X133072800Y-102533797D01*
X133085175Y-102548066D01*
X133091530Y-102552066D01*
X133093808Y-102554288D01*
X133097467Y-102555803D01*
X133110061Y-102563731D01*
X133376670Y-102694293D01*
X133379521Y-102697144D01*
X133398792Y-102705126D01*
X133423238Y-102717098D01*
X133428615Y-102717480D01*
X133433593Y-102719542D01*
X133462857Y-102722424D01*
X134173710Y-102719668D01*
X134195904Y-102721246D01*
X134203345Y-102719553D01*
X134206407Y-102719542D01*
X134210069Y-102718024D01*
X134224577Y-102714726D01*
X134679999Y-102559881D01*
X134724213Y-102521534D01*
X134750386Y-102469187D01*
X134754536Y-102410807D01*
X134736028Y-102355282D01*
X134697680Y-102311068D01*
X134645333Y-102284894D01*
X134586953Y-102280745D01*
X134558279Y-102287265D01*
X134160568Y-102422488D01*
X133502937Y-102425037D01*
X133270714Y-102311314D01*
X133160256Y-102203574D01*
X133041146Y-101970196D01*
X133039173Y-101754628D01*
X133152537Y-101523138D01*
X133260277Y-101412680D01*
X133504517Y-101288026D01*
X134058616Y-101146755D01*
X134073903Y-101145669D01*
X134095913Y-101137246D01*
X134098357Y-101136623D01*
X134099228Y-101135977D01*
X134101367Y-101135159D01*
X134384451Y-100990680D01*
X134403335Y-100982859D01*
X134409187Y-100978056D01*
X134411968Y-100976637D01*
X134414564Y-100973643D01*
X134426066Y-100964204D01*
X134567093Y-100819618D01*
X134581356Y-100807249D01*
X134585354Y-100800896D01*
X134587578Y-100798617D01*
X134589094Y-100794954D01*
X134597021Y-100782363D01*
X134699831Y-100572424D01*
X135598571Y-100572424D01*
X135601342Y-101562279D01*
X135598748Y-101579715D01*
X135601442Y-101597934D01*
X135601453Y-101601688D01*
X135602300Y-101603732D01*
X135603050Y-101608804D01*
X135744310Y-102162857D01*
X135744310Y-102173115D01*
X135751112Y-102189536D01*
X135755800Y-102207924D01*
X135762439Y-102216885D01*
X135766707Y-102227187D01*
X135785362Y-102249918D01*
X136071364Y-102532142D01*
X136085174Y-102548066D01*
X136091599Y-102552110D01*
X136093806Y-102554288D01*
X136097468Y-102555804D01*
X136110060Y-102563731D01*
X136376669Y-102694292D01*
X136379521Y-102697144D01*
X136398798Y-102705129D01*
X136423239Y-102717098D01*
X136428614Y-102717479D01*
X136433593Y-102719542D01*
X136462857Y-102722424D01*
X137011165Y-102719793D01*
X137015523Y-102721246D01*
X137037764Y-102719665D01*
X137063549Y-102719542D01*
X137068527Y-102717479D01*
X137073903Y-102717098D01*
X137101367Y-102706588D01*
X137384448Y-102562111D01*
X137403336Y-102554288D01*
X137409188Y-102549484D01*
X137411968Y-102548066D01*
X137414563Y-102545073D01*
X137426066Y-102535633D01*
X137698020Y-102260035D01*
X137706498Y-102254949D01*
X137716921Y-102240881D01*
X137730435Y-102227187D01*
X137734702Y-102216885D01*
X137741342Y-102207924D01*
X137751235Y-102180232D01*
X137889127Y-101617527D01*
X137895689Y-101601688D01*
X137897489Y-101583406D01*
X137898394Y-101579715D01*
X137898068Y-101577527D01*
X137898571Y-101572424D01*
X137895799Y-100582567D01*
X137898394Y-100565132D01*
X137895699Y-100546912D01*
X137895689Y-100543160D01*
X137894842Y-100541115D01*
X137894092Y-100536043D01*
X137752832Y-99981989D01*
X137752832Y-99971732D01*
X137746029Y-99955310D01*
X137741342Y-99936923D01*
X137734702Y-99927961D01*
X137730435Y-99917660D01*
X137711780Y-99894929D01*
X137425782Y-99612710D01*
X137411968Y-99596782D01*
X137405539Y-99592735D01*
X137403335Y-99590560D01*
X137399675Y-99589044D01*
X137387082Y-99581117D01*
X137369331Y-99572424D01*
X138884285Y-99572424D01*
X138887167Y-102601688D01*
X138909565Y-102655760D01*
X138950949Y-102697144D01*
X139005021Y-102719542D01*
X139063549Y-102719542D01*
X139117621Y-102697144D01*
X139159005Y-102655760D01*
X139181403Y-102601688D01*
X139184285Y-102572424D01*
X139182932Y-101150749D01*
X140600070Y-101148406D01*
X140601453Y-102601688D01*
X140623851Y-102655760D01*
X140665235Y-102697144D01*
X140719307Y-102719542D01*
X140777835Y-102719542D01*
X140831907Y-102697144D01*
X140873291Y-102655760D01*
X140895689Y-102601688D01*
X140898571Y-102572424D01*
X140897348Y-101286709D01*
X141884285Y-101286709D01*
X141887167Y-102315973D01*
X141896125Y-102337599D01*
X141909564Y-102370044D01*
X141928219Y-102392775D01*
X142057136Y-102518520D01*
X142058643Y-102521534D01*
X142072925Y-102533921D01*
X142093806Y-102554288D01*
X142098787Y-102556351D01*
X142102857Y-102559881D01*
X142129708Y-102571870D01*
X142556719Y-102711369D01*
X142576450Y-102719542D01*
X142584018Y-102720287D01*
X142586953Y-102721246D01*
X142590902Y-102720965D01*
X142605714Y-102722424D01*
X142890144Y-102719821D01*
X142910189Y-102721246D01*
X142917556Y-102719570D01*
X142920692Y-102719542D01*
X142924354Y-102718024D01*
X142938862Y-102714726D01*
X143344861Y-102576685D01*
X143349262Y-102576685D01*
X143369427Y-102568332D01*
X143394284Y-102559881D01*
X143398354Y-102556350D01*
X143403334Y-102554288D01*
X143426065Y-102535633D01*
X143708284Y-102249634D01*
X143724213Y-102235820D01*
X143728259Y-102229391D01*
X143730435Y-102227187D01*
X143731950Y-102223527D01*
X143739878Y-102210934D01*
X143875561Y-101933867D01*
X143884199Y-101922210D01*
X143892098Y-101900098D01*
X143893245Y-101897757D01*
X143893321Y-101896673D01*
X143894092Y-101894518D01*
X144031985Y-101331810D01*
X144038546Y-101315973D01*
X144040346Y-101297692D01*
X144041251Y-101294001D01*
X144040925Y-101291812D01*
X144041428Y-101286709D01*
X144038788Y-100867393D01*
X144041251Y-100850846D01*
X144038570Y-100832719D01*
X144038546Y-100828874D01*
X144037699Y-100826829D01*
X144036949Y-100821757D01*
X143894331Y-100262377D01*
X143893245Y-100247090D01*
X143884821Y-100225080D01*
X143884199Y-100222637D01*
X143883553Y-100221765D01*
X143882735Y-100219627D01*
X143738258Y-99936546D01*
X143730435Y-99917659D01*
X143725631Y-99911806D01*
X143724213Y-99909027D01*
X143721220Y-99906431D01*
X143711780Y-99894929D01*
X143440417Y-99627153D01*
X143438498Y-99623314D01*
X143422217Y-99609193D01*
X143403334Y-99590560D01*
X143398354Y-99588497D01*
X143394284Y-99584967D01*
X143367433Y-99572978D01*
X142940422Y-99433479D01*
X142920692Y-99425306D01*
X142913123Y-99424560D01*
X142910189Y-99423602D01*
X142906239Y-99423882D01*
X142891428Y-99422424D01*
X142485745Y-99424977D01*
X142481619Y-99423602D01*
X142459973Y-99425139D01*
X142433593Y-99425306D01*
X142428614Y-99427368D01*
X142423239Y-99427750D01*
X142395775Y-99438260D01*
X142085174Y-99596782D01*
X142046828Y-99640997D01*
X142028320Y-99696519D01*
X142032468Y-99754899D01*
X142058643Y-99807249D01*
X142102858Y-99845595D01*
X142158380Y-99864103D01*
X142216760Y-99859955D01*
X142244224Y-99849445D01*
X142493481Y-99722231D01*
X142859907Y-99719924D01*
X143235497Y-99842626D01*
X143479242Y-100083150D01*
X143604396Y-100328369D01*
X143741477Y-100866033D01*
X143743947Y-101258322D01*
X143612391Y-101795172D01*
X143487601Y-102049993D01*
X143243822Y-102297037D01*
X142874589Y-102422578D01*
X142636721Y-102424754D01*
X142261265Y-102302098D01*
X142184117Y-102226848D01*
X142181902Y-101436000D01*
X142634978Y-101433827D01*
X142689050Y-101411429D01*
X142730434Y-101370045D01*
X142752832Y-101315973D01*
X142752832Y-101257445D01*
X142730434Y-101203373D01*
X142689050Y-101161989D01*
X142634978Y-101139591D01*
X142605714Y-101136709D01*
X142005021Y-101139591D01*
X141950949Y-101161989D01*
X141909565Y-101203373D01*
X141887167Y-101257445D01*
X141884285Y-101286709D01*
X140897348Y-101286709D01*
X140895689Y-99543160D01*
X140873291Y-99489088D01*
X140831907Y-99447704D01*
X140777835Y-99425306D01*
X140719307Y-99425306D01*
X140665235Y-99447704D01*
X140623851Y-99489088D01*
X140601453Y-99543160D01*
X140598571Y-99572424D01*
X140599787Y-100851240D01*
X139182649Y-100853583D01*
X139181403Y-99543160D01*
X139159005Y-99489088D01*
X139117621Y-99447704D01*
X139063549Y-99425306D01*
X139005021Y-99425306D01*
X138950949Y-99447704D01*
X138909565Y-99489088D01*
X138887167Y-99543160D01*
X138884285Y-99572424D01*
X137369331Y-99572424D01*
X137120472Y-99450555D01*
X137117621Y-99447704D01*
X137098343Y-99439718D01*
X137073903Y-99427750D01*
X137068527Y-99427368D01*
X137063549Y-99425306D01*
X137034285Y-99422424D01*
X136485976Y-99425054D01*
X136481619Y-99423602D01*
X136459377Y-99425182D01*
X136433593Y-99425306D01*
X136428614Y-99427368D01*
X136423239Y-99427750D01*
X136395775Y-99438260D01*
X136112690Y-99582738D01*
X136093807Y-99590560D01*
X136087954Y-99595362D01*
X136085174Y-99596782D01*
X136082577Y-99599775D01*
X136071076Y-99609215D01*
X135799119Y-99884813D01*
X135790644Y-99889899D01*
X135780223Y-99903962D01*
X135766707Y-99917660D01*
X135762438Y-99927964D01*
X135755800Y-99936924D01*
X135745906Y-99964615D01*
X135608013Y-100527321D01*
X135601453Y-100543160D01*
X135599652Y-100561441D01*
X135598748Y-100565133D01*
X135599073Y-100567320D01*
X135598571Y-100572424D01*
X134699831Y-100572424D01*
X134727583Y-100515753D01*
X134730434Y-100512903D01*
X134738416Y-100493631D01*
X134750388Y-100469186D01*
X134750770Y-100463808D01*
X134752832Y-100458831D01*
X134755714Y-100429567D01*
X134753305Y-100166306D01*
X134754536Y-100162614D01*
X134753084Y-100142184D01*
X134752832Y-100114588D01*
X134750770Y-100109610D01*
X134750388Y-100104233D01*
X134739878Y-100076770D01*
X134595401Y-99793689D01*
X134587578Y-99774802D01*
X134582774Y-99768949D01*
X134581356Y-99766170D01*
X134578363Y-99763574D01*
X134568923Y-99752072D01*
X134424342Y-99611050D01*
X134411968Y-99596782D01*
X134405612Y-99592781D01*
X134403335Y-99590560D01*
X134399675Y-99589044D01*
X134387082Y-99581117D01*
X134120472Y-99450555D01*
X134117621Y-99447704D01*
X134098343Y-99439718D01*
X134073903Y-99427750D01*
X134068527Y-99427368D01*
X134063549Y-99425306D01*
X134034285Y-99422424D01*
X133323432Y-99425179D01*
X133301239Y-99423602D01*
X133293797Y-99425294D01*
X133290736Y-99425306D01*
X133287073Y-99426823D01*
X133272566Y-99430122D01*
X132817143Y-99584967D01*
X132772929Y-99623314D01*
X132746755Y-99675661D01*
X132742606Y-99734041D01*
X132761114Y-99789566D01*
X132799461Y-99833780D01*
X132851808Y-99859954D01*
X132910188Y-99864103D01*
X132938862Y-99857584D01*
X133336574Y-99722359D01*
X133994204Y-99719810D01*
X134226427Y-99833532D01*
X134336886Y-99941273D01*
X134455995Y-100174650D01*
X134457968Y-100390219D01*
X134344604Y-100621709D01*
X134236866Y-100732166D01*
X133992625Y-100856820D01*
X133438525Y-100998091D01*
X133423238Y-100999178D01*
X133401228Y-101007601D01*
X133398785Y-101008224D01*
X133397913Y-101008869D01*
X133395775Y-101009688D01*
X133112691Y-101154166D01*
X133093808Y-101161988D01*
X133087955Y-101166790D01*
X133085175Y-101168210D01*
X133082578Y-101171203D01*
X133071077Y-101180643D01*
X132930054Y-101325224D01*
X132915786Y-101337599D01*
X132911785Y-101343954D01*
X132909564Y-101346232D01*
X132908048Y-101349891D01*
X132900121Y-101362485D01*
X132769558Y-101629094D01*
X132766708Y-101631945D01*
X132758725Y-101651216D01*
X132746754Y-101675662D01*
X132746371Y-101681039D01*
X132744310Y-101686017D01*
X132741428Y-101715281D01*
X131326326Y-101715281D01*
X131324428Y-99720763D01*
X132063549Y-99719542D01*
X132117621Y-99697144D01*
X132159005Y-99655760D01*
X132181403Y-99601688D01*
X132181403Y-99543160D01*
X132159005Y-99489088D01*
X132117621Y-99447704D01*
X132063549Y-99425306D01*
X132034285Y-99422424D01*
X130290736Y-99425306D01*
X130236664Y-99447704D01*
X130195280Y-99489088D01*
X130172882Y-99543160D01*
X130172882Y-99601688D01*
X125752888Y-99601688D01*
X125752832Y-99543160D01*
X125730434Y-99489088D01*
X125689050Y-99447704D01*
X125634978Y-99425306D01*
X125605714Y-99422424D01*
X124629145Y-99425158D01*
X124624476Y-99423602D01*
X124601479Y-99425235D01*
X124576450Y-99425306D01*
X124571472Y-99427367D01*
X124566095Y-99427750D01*
X124538632Y-99438260D01*
X124255546Y-99582739D01*
X124236665Y-99590560D01*
X124230812Y-99595362D01*
X124228032Y-99596782D01*
X124225435Y-99599775D01*
X124213934Y-99609215D01*
X124072906Y-99753799D01*
X124058643Y-99766170D01*
X124054644Y-99772522D01*
X124052421Y-99774802D01*
X124050904Y-99778464D01*
X124042978Y-99791056D01*
X123912415Y-100057665D01*
X123909565Y-100060516D01*
X123901582Y-100079787D01*
X123889611Y-100104233D01*
X123889228Y-100109610D01*
X123887167Y-100114588D01*
X123884285Y-100143852D01*
X123886693Y-100407112D01*
X123885463Y-100410805D01*
X123886914Y-100431234D01*
X123887167Y-100458831D01*
X123889228Y-100463808D01*
X123889611Y-100469186D01*
X123900121Y-100496649D01*
X124044597Y-100779729D01*
X124052421Y-100798617D01*
X124057224Y-100804469D01*
X124058643Y-100807249D01*
X124061635Y-100809844D01*
X124071076Y-100821347D01*
X124215658Y-100962369D01*
X124224241Y-100972266D01*
X124152280Y-100996734D01*
X124147879Y-100996734D01*
X124127710Y-101005087D01*
X124102857Y-101013538D01*
X124098787Y-101017067D01*
X124093806Y-101019131D01*
X124071076Y-101037786D01*
X123930054Y-101182366D01*
X123915786Y-101194741D01*
X123911785Y-101201096D01*
X123909564Y-101203374D01*
X123908048Y-101207033D01*
X123900121Y-101219627D01*
X123769559Y-101486236D01*
X123766708Y-101489088D01*
X123758722Y-101508365D01*
X123746754Y-101532806D01*
X123746372Y-101538181D01*
X123744310Y-101543160D01*
X123741428Y-101572424D01*
X122898571Y-101572424D01*
X122895799Y-100582567D01*
X122898394Y-100565132D01*
X122895699Y-100546912D01*
X122895689Y-100543160D01*
X122894842Y-100541115D01*
X122894092Y-100536043D01*
X122752832Y-99981989D01*
X122752832Y-99971732D01*
X122746029Y-99955310D01*
X122741342Y-99936923D01*
X122734702Y-99927961D01*
X122730435Y-99917660D01*
X122711780Y-99894929D01*
X122425782Y-99612710D01*
X122411968Y-99596782D01*
X122405539Y-99592735D01*
X122403335Y-99590560D01*
X122399675Y-99589044D01*
X122387082Y-99581117D01*
X122120472Y-99450555D01*
X122117621Y-99447704D01*
X122098343Y-99439718D01*
X122073903Y-99427750D01*
X122068527Y-99427368D01*
X122063549Y-99425306D01*
X122034285Y-99422424D01*
X121485976Y-99425054D01*
X121481619Y-99423602D01*
X121459377Y-99425182D01*
X121433593Y-99425306D01*
X121428614Y-99427368D01*
X121423239Y-99427750D01*
X121395775Y-99438260D01*
X121112690Y-99582738D01*
X121093807Y-99590560D01*
X121087954Y-99595362D01*
X121085174Y-99596782D01*
X121082577Y-99599775D01*
X121071076Y-99609215D01*
X120799119Y-99884813D01*
X120790644Y-99889899D01*
X120780223Y-99903962D01*
X120766707Y-99917660D01*
X120762438Y-99927964D01*
X120755800Y-99936924D01*
X120745906Y-99964615D01*
X120608013Y-100527321D01*
X120601453Y-100543160D01*
X120599652Y-100561441D01*
X120598748Y-100565133D01*
X120599073Y-100567320D01*
X120598571Y-100572424D01*
X119182382Y-100572424D01*
X119181571Y-99720763D01*
X119920692Y-99719542D01*
X119974764Y-99697144D01*
X120016148Y-99655760D01*
X120038546Y-99601688D01*
X120038546Y-99543160D01*
X120016148Y-99489088D01*
X119974764Y-99447704D01*
X119920692Y-99425306D01*
X119891428Y-99422424D01*
X118147879Y-99425306D01*
X118093807Y-99447704D01*
X118052423Y-99489088D01*
X118030025Y-99543160D01*
X118030025Y-99601688D01*
X117268120Y-99601688D01*
X117268120Y-99089091D01*
X145230727Y-99089091D01*
X145230727Y-107885589D01*
G37*
D12*
G36*
X222222Y-222222D02*
G01*
X-222222Y-222222D01*
X-222222Y222222D01*
X222222Y222222D01*
X222222Y-222222D01*
G37*
D13*
X183743097Y-90494819D02*
X183743097Y-89494819D01*
X183743097Y-89494819D02*
X183505002Y-89494819D01*
X183505002Y-89494819D02*
X183362145Y-89542438D01*
X183362145Y-89542438D02*
X183266907Y-89637676D01*
X183266907Y-89637676D02*
X183219288Y-89732914D01*
X183219288Y-89732914D02*
X183171669Y-89923390D01*
X183171669Y-89923390D02*
X183171669Y-90066247D01*
X183171669Y-90066247D02*
X183219288Y-90256723D01*
X183219288Y-90256723D02*
X183266907Y-90351961D01*
X183266907Y-90351961D02*
X183362145Y-90447200D01*
X183362145Y-90447200D02*
X183505002Y-90494819D01*
X183505002Y-90494819D02*
X183743097Y-90494819D01*
X182266907Y-89494819D02*
X182743097Y-89494819D01*
X182743097Y-89494819D02*
X182790716Y-89971009D01*
X182790716Y-89971009D02*
X182743097Y-89923390D01*
X182743097Y-89923390D02*
X182647859Y-89875771D01*
X182647859Y-89875771D02*
X182409764Y-89875771D01*
X182409764Y-89875771D02*
X182314526Y-89923390D01*
X182314526Y-89923390D02*
X182266907Y-89971009D01*
X182266907Y-89971009D02*
X182219288Y-90066247D01*
X182219288Y-90066247D02*
X182219288Y-90304342D01*
X182219288Y-90304342D02*
X182266907Y-90399580D01*
X182266907Y-90399580D02*
X182314526Y-90447200D01*
X182314526Y-90447200D02*
X182409764Y-90494819D01*
X182409764Y-90494819D02*
X182647859Y-90494819D01*
X182647859Y-90494819D02*
X182743097Y-90447200D01*
X182743097Y-90447200D02*
X182790716Y-90399580D01*
X186513097Y-111454819D02*
X186513097Y-110454819D01*
X186513097Y-110454819D02*
X186275002Y-110454819D01*
X186275002Y-110454819D02*
X186132145Y-110502438D01*
X186132145Y-110502438D02*
X186036907Y-110597676D01*
X186036907Y-110597676D02*
X185989288Y-110692914D01*
X185989288Y-110692914D02*
X185941669Y-110883390D01*
X185941669Y-110883390D02*
X185941669Y-111026247D01*
X185941669Y-111026247D02*
X185989288Y-111216723D01*
X185989288Y-111216723D02*
X186036907Y-111311961D01*
X186036907Y-111311961D02*
X186132145Y-111407200D01*
X186132145Y-111407200D02*
X186275002Y-111454819D01*
X186275002Y-111454819D02*
X186513097Y-111454819D01*
X185465478Y-111454819D02*
X185275002Y-111454819D01*
X185275002Y-111454819D02*
X185179764Y-111407200D01*
X185179764Y-111407200D02*
X185132145Y-111359580D01*
X185132145Y-111359580D02*
X185036907Y-111216723D01*
X185036907Y-111216723D02*
X184989288Y-111026247D01*
X184989288Y-111026247D02*
X184989288Y-110645295D01*
X184989288Y-110645295D02*
X185036907Y-110550057D01*
X185036907Y-110550057D02*
X185084526Y-110502438D01*
X185084526Y-110502438D02*
X185179764Y-110454819D01*
X185179764Y-110454819D02*
X185370240Y-110454819D01*
X185370240Y-110454819D02*
X185465478Y-110502438D01*
X185465478Y-110502438D02*
X185513097Y-110550057D01*
X185513097Y-110550057D02*
X185560716Y-110645295D01*
X185560716Y-110645295D02*
X185560716Y-110883390D01*
X185560716Y-110883390D02*
X185513097Y-110978628D01*
X185513097Y-110978628D02*
X185465478Y-111026247D01*
X185465478Y-111026247D02*
X185370240Y-111073866D01*
X185370240Y-111073866D02*
X185179764Y-111073866D01*
X185179764Y-111073866D02*
X185084526Y-111026247D01*
X185084526Y-111026247D02*
X185036907Y-110978628D01*
X185036907Y-110978628D02*
X184989288Y-110883390D01*
X193013097Y-111454819D02*
X193013097Y-110454819D01*
X193013097Y-110454819D02*
X192775002Y-110454819D01*
X192775002Y-110454819D02*
X192632145Y-110502438D01*
X192632145Y-110502438D02*
X192536907Y-110597676D01*
X192536907Y-110597676D02*
X192489288Y-110692914D01*
X192489288Y-110692914D02*
X192441669Y-110883390D01*
X192441669Y-110883390D02*
X192441669Y-111026247D01*
X192441669Y-111026247D02*
X192489288Y-111216723D01*
X192489288Y-111216723D02*
X192536907Y-111311961D01*
X192536907Y-111311961D02*
X192632145Y-111407200D01*
X192632145Y-111407200D02*
X192775002Y-111454819D01*
X192775002Y-111454819D02*
X193013097Y-111454819D01*
X192108335Y-110454819D02*
X191441669Y-110454819D01*
X191441669Y-110454819D02*
X191870240Y-111454819D01*
X190243097Y-90494819D02*
X190243097Y-89494819D01*
X190243097Y-89494819D02*
X190005002Y-89494819D01*
X190005002Y-89494819D02*
X189862145Y-89542438D01*
X189862145Y-89542438D02*
X189766907Y-89637676D01*
X189766907Y-89637676D02*
X189719288Y-89732914D01*
X189719288Y-89732914D02*
X189671669Y-89923390D01*
X189671669Y-89923390D02*
X189671669Y-90066247D01*
X189671669Y-90066247D02*
X189719288Y-90256723D01*
X189719288Y-90256723D02*
X189766907Y-90351961D01*
X189766907Y-90351961D02*
X189862145Y-90447200D01*
X189862145Y-90447200D02*
X190005002Y-90494819D01*
X190005002Y-90494819D02*
X190243097Y-90494819D01*
X189100240Y-89923390D02*
X189195478Y-89875771D01*
X189195478Y-89875771D02*
X189243097Y-89828152D01*
X189243097Y-89828152D02*
X189290716Y-89732914D01*
X189290716Y-89732914D02*
X189290716Y-89685295D01*
X189290716Y-89685295D02*
X189243097Y-89590057D01*
X189243097Y-89590057D02*
X189195478Y-89542438D01*
X189195478Y-89542438D02*
X189100240Y-89494819D01*
X189100240Y-89494819D02*
X188909764Y-89494819D01*
X188909764Y-89494819D02*
X188814526Y-89542438D01*
X188814526Y-89542438D02*
X188766907Y-89590057D01*
X188766907Y-89590057D02*
X188719288Y-89685295D01*
X188719288Y-89685295D02*
X188719288Y-89732914D01*
X188719288Y-89732914D02*
X188766907Y-89828152D01*
X188766907Y-89828152D02*
X188814526Y-89875771D01*
X188814526Y-89875771D02*
X188909764Y-89923390D01*
X188909764Y-89923390D02*
X189100240Y-89923390D01*
X189100240Y-89923390D02*
X189195478Y-89971009D01*
X189195478Y-89971009D02*
X189243097Y-90018628D01*
X189243097Y-90018628D02*
X189290716Y-90113866D01*
X189290716Y-90113866D02*
X189290716Y-90304342D01*
X189290716Y-90304342D02*
X189243097Y-90399580D01*
X189243097Y-90399580D02*
X189195478Y-90447200D01*
X189195478Y-90447200D02*
X189100240Y-90494819D01*
X189100240Y-90494819D02*
X188909764Y-90494819D01*
X188909764Y-90494819D02*
X188814526Y-90447200D01*
X188814526Y-90447200D02*
X188766907Y-90399580D01*
X188766907Y-90399580D02*
X188719288Y-90304342D01*
X188719288Y-90304342D02*
X188719288Y-90113866D01*
X188719288Y-90113866D02*
X188766907Y-90018628D01*
X188766907Y-90018628D02*
X188814526Y-89971009D01*
X188814526Y-89971009D02*
X188909764Y-89923390D01*
X187489288Y-131454819D02*
X187489288Y-130454819D01*
X187489288Y-130454819D02*
X187251193Y-130454819D01*
X187251193Y-130454819D02*
X187108336Y-130502438D01*
X187108336Y-130502438D02*
X187013098Y-130597676D01*
X187013098Y-130597676D02*
X186965479Y-130692914D01*
X186965479Y-130692914D02*
X186917860Y-130883390D01*
X186917860Y-130883390D02*
X186917860Y-131026247D01*
X186917860Y-131026247D02*
X186965479Y-131216723D01*
X186965479Y-131216723D02*
X187013098Y-131311961D01*
X187013098Y-131311961D02*
X187108336Y-131407200D01*
X187108336Y-131407200D02*
X187251193Y-131454819D01*
X187251193Y-131454819D02*
X187489288Y-131454819D01*
X185965479Y-131454819D02*
X186536907Y-131454819D01*
X186251193Y-131454819D02*
X186251193Y-130454819D01*
X186251193Y-130454819D02*
X186346431Y-130597676D01*
X186346431Y-130597676D02*
X186441669Y-130692914D01*
X186441669Y-130692914D02*
X186536907Y-130740533D01*
X185346431Y-130454819D02*
X185251193Y-130454819D01*
X185251193Y-130454819D02*
X185155955Y-130502438D01*
X185155955Y-130502438D02*
X185108336Y-130550057D01*
X185108336Y-130550057D02*
X185060717Y-130645295D01*
X185060717Y-130645295D02*
X185013098Y-130835771D01*
X185013098Y-130835771D02*
X185013098Y-131073866D01*
X185013098Y-131073866D02*
X185060717Y-131264342D01*
X185060717Y-131264342D02*
X185108336Y-131359580D01*
X185108336Y-131359580D02*
X185155955Y-131407200D01*
X185155955Y-131407200D02*
X185251193Y-131454819D01*
X185251193Y-131454819D02*
X185346431Y-131454819D01*
X185346431Y-131454819D02*
X185441669Y-131407200D01*
X185441669Y-131407200D02*
X185489288Y-131359580D01*
X185489288Y-131359580D02*
X185536907Y-131264342D01*
X185536907Y-131264342D02*
X185584526Y-131073866D01*
X185584526Y-131073866D02*
X185584526Y-130835771D01*
X185584526Y-130835771D02*
X185536907Y-130645295D01*
X185536907Y-130645295D02*
X185489288Y-130550057D01*
X185489288Y-130550057D02*
X185441669Y-130502438D01*
X185441669Y-130502438D02*
X185346431Y-130454819D01*
X193013097Y-131454819D02*
X193013097Y-130454819D01*
X193013097Y-130454819D02*
X192775002Y-130454819D01*
X192775002Y-130454819D02*
X192632145Y-130502438D01*
X192632145Y-130502438D02*
X192536907Y-130597676D01*
X192536907Y-130597676D02*
X192489288Y-130692914D01*
X192489288Y-130692914D02*
X192441669Y-130883390D01*
X192441669Y-130883390D02*
X192441669Y-131026247D01*
X192441669Y-131026247D02*
X192489288Y-131216723D01*
X192489288Y-131216723D02*
X192536907Y-131311961D01*
X192536907Y-131311961D02*
X192632145Y-131407200D01*
X192632145Y-131407200D02*
X192775002Y-131454819D01*
X192775002Y-131454819D02*
X193013097Y-131454819D01*
X191584526Y-130454819D02*
X191775002Y-130454819D01*
X191775002Y-130454819D02*
X191870240Y-130502438D01*
X191870240Y-130502438D02*
X191917859Y-130550057D01*
X191917859Y-130550057D02*
X192013097Y-130692914D01*
X192013097Y-130692914D02*
X192060716Y-130883390D01*
X192060716Y-130883390D02*
X192060716Y-131264342D01*
X192060716Y-131264342D02*
X192013097Y-131359580D01*
X192013097Y-131359580D02*
X191965478Y-131407200D01*
X191965478Y-131407200D02*
X191870240Y-131454819D01*
X191870240Y-131454819D02*
X191679764Y-131454819D01*
X191679764Y-131454819D02*
X191584526Y-131407200D01*
X191584526Y-131407200D02*
X191536907Y-131359580D01*
X191536907Y-131359580D02*
X191489288Y-131264342D01*
X191489288Y-131264342D02*
X191489288Y-131026247D01*
X191489288Y-131026247D02*
X191536907Y-130931009D01*
X191536907Y-130931009D02*
X191584526Y-130883390D01*
X191584526Y-130883390D02*
X191679764Y-130835771D01*
X191679764Y-130835771D02*
X191870240Y-130835771D01*
X191870240Y-130835771D02*
X191965478Y-130883390D01*
X191965478Y-130883390D02*
X192013097Y-130931009D01*
X192013097Y-130931009D02*
X192060716Y-131026247D01*
D14*
%TO.C,D5*%
X185565003Y-95545000D02*
X185565003Y-92455000D01*
X180015003Y-94000462D02*
G75*
G02*
X185565003Y-92455170I2990000J462D01*
G01*
X185565002Y-95544830D02*
G75*
G02*
X180015004Y-93999538I-2559999J1544830D01*
G01*
X185505003Y-94000000D02*
G75*
G02*
X180505003Y-94000000I-2500000J0D01*
G01*
X180505003Y-94000000D02*
G75*
G02*
X185505003Y-94000000I2500000J0D01*
G01*
%TO.C,D9*%
X185565003Y-115545000D02*
X185565003Y-112455000D01*
X180015003Y-114000462D02*
G75*
G02*
X185565003Y-112455170I2990000J462D01*
G01*
X185565002Y-115544830D02*
G75*
G02*
X180015004Y-113999538I-2559999J1544830D01*
G01*
X185505003Y-114000000D02*
G75*
G02*
X180505003Y-114000000I-2500000J0D01*
G01*
X180505003Y-114000000D02*
G75*
G02*
X185505003Y-114000000I2500000J0D01*
G01*
%TO.C,D7*%
X192065003Y-115545000D02*
X192065003Y-112455000D01*
X186515003Y-114000462D02*
G75*
G02*
X192065003Y-112455170I2990000J462D01*
G01*
X192065002Y-115544830D02*
G75*
G02*
X186515004Y-113999538I-2559999J1544830D01*
G01*
X192005003Y-114000000D02*
G75*
G02*
X187005003Y-114000000I-2500000J0D01*
G01*
X187005003Y-114000000D02*
G75*
G02*
X192005003Y-114000000I2500000J0D01*
G01*
%TO.C,D8*%
X192065003Y-95545000D02*
X192065003Y-92455000D01*
X186515003Y-94000462D02*
G75*
G02*
X192065003Y-92455170I2990000J462D01*
G01*
X192065002Y-95544830D02*
G75*
G02*
X186515004Y-93999538I-2559999J1544830D01*
G01*
X192005003Y-94000000D02*
G75*
G02*
X187005003Y-94000000I-2500000J0D01*
G01*
X187005003Y-94000000D02*
G75*
G02*
X192005003Y-94000000I2500000J0D01*
G01*
%TO.C,D10*%
X185565003Y-135545000D02*
X185565003Y-132455000D01*
X180015003Y-134000462D02*
G75*
G02*
X185565003Y-132455170I2990000J462D01*
G01*
X185565002Y-135544830D02*
G75*
G02*
X180015004Y-133999538I-2559999J1544830D01*
G01*
X185505003Y-134000000D02*
G75*
G02*
X180505003Y-134000000I-2500000J0D01*
G01*
X180505003Y-134000000D02*
G75*
G02*
X185505003Y-134000000I2500000J0D01*
G01*
%TO.C,D6*%
X192065003Y-135545000D02*
X192065003Y-132455000D01*
X186515003Y-134000462D02*
G75*
G02*
X192065003Y-132455170I2990000J462D01*
G01*
X192065002Y-135544830D02*
G75*
G02*
X186515004Y-133999538I-2559999J1544830D01*
G01*
X192005003Y-134000000D02*
G75*
G02*
X187005003Y-134000000I-2500000J0D01*
G01*
X187005003Y-134000000D02*
G75*
G02*
X192005003Y-134000000I2500000J0D01*
G01*
%TD*%
M02*
